<svg width="64" height="65" viewBox="0 0 64 65" fill="none" xmlns="http://www.w3.org/2000/svg">
<path d="M31.7667 63.5698C31.6024 63.5698 31.4381 63.5698 31.2738 63.5698C28.169 61.6453 25.1464 59.6238 22.3701 57.2464C17.524 53.0901 13.4993 48.287 10.7559 42.5458C5.44987 31.4516 5.31845 20.0986 9.1789 8.58389C9.60601 7.33862 9.62244 7.33862 10.9695 7.48417C11.0845 7.50035 11.2159 7.50035 11.3309 7.50035C15.6513 7.79145 19.7582 6.91814 23.7172 5.25239C25.8692 4.33057 27.8898 3.18233 29.7789 1.84003C30.1732 1.5651 30.6167 1.40338 30.9124 1.84003C31.0767 2.09879 31.0767 2.56778 30.9617 2.89123C29.5489 6.91814 28.0869 10.9451 26.6413 14.972C26.5427 15.2469 26.4606 15.5218 26.3456 15.8614C28.4319 15.8614 30.436 15.8614 32.4566 15.8614C33.3108 15.8614 33.5737 16.1687 33.393 16.9773C32.5059 20.891 31.6024 24.8047 30.7153 28.7184C30.4525 29.899 30.1732 31.0796 29.9103 32.2602C29.9432 32.2764 29.9925 32.2925 30.0253 32.3087C33.3765 26.3249 36.7113 20.3412 40.1118 14.2442C38.3212 14.2442 36.6785 14.2442 35.0521 14.2442C34.1815 14.2442 33.9022 13.8722 34.1322 13.0475C34.855 10.4114 35.5942 7.7591 36.3335 5.12301C36.5635 4.33057 36.9249 4.18502 37.697 4.52464C38.9619 5.0745 40.2268 5.67287 41.541 6.1257C45.0072 7.30628 48.5719 7.85614 52.2353 7.468C53.303 7.35479 53.4016 7.38714 53.763 8.37365C54.8637 11.317 55.57 14.3574 56.0136 17.4625C56.9499 24.0446 56.5721 30.5297 54.5515 36.9016C51.8246 45.5053 46.6499 52.4756 39.6025 58.1036C37.122 60.0766 34.3786 61.7585 31.7667 63.5698ZM51.2989 24.9665C51.2003 23.8991 51.0689 21.9746 50.8061 20.0824C50.4775 17.7213 49.8861 15.4248 49.0155 13.193C48.8348 12.724 48.5391 12.4653 48.0298 12.6431C47.537 12.821 47.4384 13.193 47.6191 13.6782C48.9662 17.2846 49.6561 21.0204 49.7547 24.8533C49.9354 31.0634 48.5555 36.8855 45.3029 42.2547C42.1652 47.4298 37.7955 51.3759 32.7194 54.6265C32.1938 54.9661 31.6352 55.2734 31.1096 55.6292C30.7646 55.8556 30.666 56.1952 30.8796 56.5834C31.0931 56.9715 31.4381 57.02 31.8324 56.8745C31.9638 56.826 32.0952 56.7451 32.2102 56.6642C34.3293 55.1602 36.5799 53.7856 38.5676 52.1198C46.7813 45.2304 51.1839 36.5135 51.2989 24.9665Z" fill="#3AAA35"/>
<path d="M51.2989 24.9665C51.1839 36.5135 46.7813 45.2304 38.5676 52.1036C36.5799 53.7694 34.3458 55.144 32.2102 56.6481C32.0952 56.7289 31.9638 56.8098 31.8324 56.8583C31.4381 57.0039 31.0931 56.9553 30.8796 56.5672C30.666 56.1952 30.7646 55.8556 31.1096 55.613C31.6352 55.2572 32.1938 54.95 32.7194 54.6103C37.7955 51.3597 42.1817 47.4137 45.3029 42.2385C48.5555 36.8693 49.9354 31.0473 49.7547 24.8371C49.6397 21.0042 48.9662 17.2684 47.6191 13.662C47.4384 13.1768 47.537 12.8049 48.0298 12.627C48.5391 12.4491 48.8348 12.724 49.0155 13.1768C49.8861 15.4086 50.4775 17.7051 50.8061 20.0662C51.0689 21.9746 51.2003 23.8991 51.2989 24.9665Z" fill="white"/>
</svg>
