<svg width="65" height="65" viewBox="0 0 65 65" fill="none" xmlns="http://www.w3.org/2000/svg">
<path d="M26.5362 40.7545C28.585 40.1047 30.5529 39.4549 32.5208 38.8311C32.7095 38.7791 33.006 38.9091 33.2217 39.039C35.5939 40.5206 38.074 40.8325 40.7159 39.8968C40.9585 39.8188 41.3898 39.8448 41.5785 40.0007C44.6787 42.6519 48.0214 42.9898 51.6068 41.0404C51.6877 40.9884 51.7955 41.0144 51.9572 40.9884C52.119 43.8216 52.119 46.5767 50.6363 49.124C50.0432 50.1377 49.4771 51.1774 48.8841 52.1911C47.8058 54.0365 47.2127 56.0119 47.2936 58.1433C47.3205 58.7411 47.1049 59.053 46.5657 59.3649C42.1447 61.7562 37.4001 63.3937 32.4938 64.5113C32.1703 64.5893 31.8199 64.5893 31.4964 64.5113C27.7223 63.6276 24.0561 62.484 20.5516 60.9244C20.0124 60.6905 19.8237 60.3786 19.8507 59.8328C20.0394 56.5837 18.988 53.7506 16.9932 51.1254C16.0766 49.9037 15.4027 48.4222 14.9444 46.9406C13.92 43.6656 13.0573 40.3126 12.1677 37.0116C11.359 33.9705 12.8956 31.3713 16.0227 30.5656C19.7159 29.6039 23.4091 28.6422 27.1023 27.7064C29.852 27.0046 32.4399 28.4082 33.1138 30.8775C33.7878 33.3727 32.2782 35.816 29.5285 36.5438C27.1832 37.1676 24.8109 37.7654 22.3577 38.3892C22.9508 40.5986 23.5169 42.7299 24.1639 44.8093C24.2178 44.9912 24.8109 45.1212 25.1613 45.1472C29.2859 45.2511 32.5747 47.4345 33.8687 50.9434C34.0574 51.4633 34.1652 52.0091 34.3 52.5289C34.5696 53.5686 35.3513 54.0365 36.4027 53.8286C37.3192 53.6466 37.7506 52.9448 37.5619 51.8792C36.807 47.1486 32.7634 43.0678 27.8841 42.2101C26.9136 42.0541 26.5092 41.6642 26.5362 40.7545Z" fill="#3AAA35"/>
<path d="M23.49 18.2527C24.0022 14.198 25.5927 12.4045 28.4502 12.4825C31.3077 12.5605 32.7904 14.3539 33.1678 18.3307C34.4348 15.7315 36.3757 14.4059 39.2333 15.2376C41.6325 15.9134 42.6299 17.7069 42.576 20.3321C42.8186 19.8903 42.9265 19.7083 43.0343 19.4744C44.0317 17.525 46.0805 16.5373 48.291 16.9531C50.3668 17.343 51.9573 19.1105 52.0112 21.2418C52.0651 24.2829 52.0651 31.6053 52.0112 34.6464C51.9573 37.1156 49.9624 39.013 47.4553 39.091C45.0291 39.169 42.9534 37.4275 42.6299 35.0102C42.576 34.6983 42.549 34.3864 42.4951 33.9965C40.5542 37.1936 37.9662 38.0513 35.3783 36.4918C35.7557 35.4781 36.241 34.5164 36.4566 33.4767C37.5888 28.0703 32.5208 23.2358 26.9136 24.4834C22.8969 25.3671 18.9341 26.5108 14.9444 27.5245C14.7557 27.5765 14.567 27.6025 14.1087 27.7064C14.3513 25.5491 13.6235 19.1365 14.8635 17.1611C16.7236 14.198 22.3577 16.9531 22.9778 21.4943C23.1126 21.7802 23.2474 17.8109 23.49 18.2527Z" fill="#3AAA35"/>
<path d="M44.6517 3.58571C44.6248 3.66368 44.5978 3.81964 44.5439 3.97559C43.9239 6.18492 43.3308 7.19332 42.6838 9.40265C42.3873 10.4683 41.6055 10.9362 40.6889 10.7023C39.7185 10.4423 39.2872 9.66258 39.6106 8.54492C40.2037 6.33558 40.8237 5.32718 41.4707 3.11784C41.7133 2.23411 42.4412 1.79224 43.2769 1.9222C44.0587 2.05216 44.6517 2.75396 44.6517 3.58571Z" fill="#3AAA35"/>
<path d="M24.0366 8.79391C23.9827 9.62566 23.6052 10.2235 22.7696 10.4054C21.9339 10.5874 21.206 10.2755 20.9634 9.52168C20.2086 7.05243 19.9585 6.08095 19.3115 3.5857C19.1228 2.85792 19.8237 2.10414 20.5786 1.94819C21.4412 1.79224 22.196 2.23411 22.4656 3.14383C22.9778 4.9113 23.0122 5.155 23.4974 6.92247C23.6861 7.57227 23.8748 8.19609 24.0366 8.79391Z" fill="#3AAA35"/>
<path d="M50.8597 14.3271C49.4848 14.2232 48.6761 13.1835 49.1883 12.2738C50.4553 9.98644 50.7442 8.81013 52.146 6.62678C52.6043 5.899 53.4399 5.82103 54.1948 6.28889C54.9226 6.75675 55.2461 7.45854 54.7878 8.21231C53.5478 10.3957 53.3128 11.494 51.9649 13.5993C51.7223 14.0152 51.1023 14.1972 50.8597 14.3271Z" fill="#3AAA35"/>
<path d="M30.3642 5.71705C30.3642 4.54741 30.3372 3.37776 30.3642 2.2341C30.3911 1.22041 30.9842 0.596598 31.9277 0.570606C32.8982 0.544613 33.5721 1.16843 33.5721 2.2341C33.5991 4.52141 33.5991 5.71383 33.5721 8.00114C33.5721 9.04082 32.8982 9.74262 31.9547 9.74262C31.0112 9.74262 30.3642 9.04082 30.3642 8.00114C30.3372 6.85748 30.3642 6.83472 30.3642 5.71705Z" fill="#3AAA35"/>
<path d="M15.3381 12.4825C14.9068 12.8984 14.5294 13.4962 14.0172 13.7301C13.2624 14.068 12.5615 13.7301 12.1302 13.0283C11.1597 11.4428 11.0355 11.4093 10.0651 9.79783C9.76853 9.30398 9.44504 8.81013 9.17546 8.26429C8.79805 7.48453 9.04067 6.65277 9.79549 6.2369C10.5773 5.82102 11.386 5.899 11.8443 6.62678C13.2191 8.81012 13.6937 9.46739 15.0147 11.7027C15.1225 11.8587 15.1225 12.0666 15.1494 12.2745C15.2034 12.3525 15.2573 12.4045 15.3381 12.4825Z" fill="#3AAA35"/>
</svg>
