<svg width="64" height="65" viewBox="0 0 64 65" fill="none" xmlns="http://www.w3.org/2000/svg">
<path d="M60.6056 43.3852C59.4565 42.2803 58.1403 42.1953 56.8449 42.0678C55.5496 41.9616 54.2543 41.9403 52.8544 41.8554C52.8336 41.5579 52.8127 41.2604 52.8127 40.9629C52.8127 36.0758 52.8127 31.2099 52.8127 26.3228C52.8127 23.688 51.4129 21.6057 49.1564 21.1807C48.07 20.9682 46.8791 21.2232 45.6674 21.2657C45.6674 20.5858 45.6883 19.6721 45.6674 18.7797C45.5629 15.5712 43.1811 13.3826 40.2144 13.7438C39.6503 13.8075 39.128 14.02 38.5221 14.19C38.6265 12.2989 38.3131 10.5565 36.8716 9.23915C36.0359 8.47421 35.0539 8.02799 33.9048 7.9855C32.2752 7.943 30.9798 8.5592 29.9352 9.8341C28.8906 11.109 28.8488 12.6389 28.8697 14.1475C28.1175 13.9988 27.4281 13.765 26.7386 13.7225C24.2315 13.5951 22.0796 15.4649 21.7871 18.0147C21.7244 18.4822 21.7244 18.9709 21.7244 19.4384C21.7244 24.8992 21.7244 30.36 21.7244 35.8208C21.7244 36.097 21.7244 36.3733 21.7244 36.6708C21.6617 36.692 21.6199 36.7132 21.5572 36.7132C21.1812 36.097 20.826 35.4809 20.4081 34.8859C19.3008 33.3348 17.7757 32.5273 15.8953 32.7398C13.9732 32.9311 12.6152 34.036 11.9257 35.8846C11.3825 37.3295 11.5496 38.7531 12.3227 40.0917C12.7614 40.8354 13.2211 41.5791 13.8061 42.5353C12.4063 42.2378 11.2154 42.0253 10.0245 41.7066C7.97701 41.1754 5.9922 40.4317 4.25811 39.1568C3.00455 38.2431 2.06438 37.0745 1.47939 35.5871C-0.192025 31.3162 -0.588985 26.854 -0.484521 22.3281C-0.31738 15.0824 1.01975 8.02799 3.19259 1.12228C3.25526 0.952289 3.31794 0.782308 3.40151 0.569824C5.63703 2.03596 7.97701 3.16212 10.5259 3.86332C15.1432 5.13822 19.8231 5.05322 24.4822 4.22454C29.3502 3.3746 34.1973 2.31219 39.0444 1.39851C43.4736 0.569823 47.9238 0.272344 52.4157 0.952291C56.1137 1.50475 58.788 3.52334 60.6056 6.79559C62.2561 9.7916 62.9456 13.0638 63.259 16.4423C63.8858 23.0718 63.2172 29.6163 62.089 36.1395C61.6294 38.5194 61.107 40.8779 60.6056 43.3852Z" fill="#3AAA35"/>
<path d="M47.7149 64.5698C40.8621 64.5698 34.0928 64.5698 27.2818 64.5698C27.1983 63.5499 27.1983 62.5512 27.052 61.5738C26.8013 59.789 26.1327 58.1741 25.1926 56.6442C21.6617 50.8646 18.1517 45.0638 14.6627 39.263C14.4537 38.9018 14.2239 38.5194 14.1403 38.1156C13.8896 37.1382 14.2866 36.1395 15.0805 35.6083C15.9371 35.0346 16.8146 35.0559 17.6503 35.6083C18.0473 35.8633 18.4025 36.267 18.6741 36.6707C19.2382 37.5207 19.6978 38.4769 20.3037 39.2843C21.4737 40.8567 22.0378 42.5353 21.808 44.5114C21.7035 45.4463 22.2676 46.02 23.0197 45.9988C23.7301 45.9775 24.1688 45.4251 24.1897 44.5114C24.1897 36.1395 24.1897 27.7677 24.1897 19.3958C24.1897 18.9284 24.2106 18.4397 24.3151 17.9722C24.5867 16.8461 25.6104 16.0811 26.6551 16.1448C27.8041 16.2086 28.7025 17.0373 28.8906 18.2272C28.9324 18.5459 28.9324 18.8646 28.9324 19.1834C28.9324 22.9231 28.9324 26.6628 28.9324 30.4025C28.9324 30.6575 28.9324 30.9337 28.9533 31.1887C29.0368 31.8474 29.5382 32.3148 30.1441 32.3148C30.75 32.2936 31.2514 31.8261 31.3141 31.1462C31.335 30.9124 31.335 30.6787 31.335 30.4237C31.335 24.7717 31.335 19.1409 31.335 13.4888C31.335 13.2338 31.3141 12.9576 31.3559 12.7026C31.4604 11.4277 32.4632 10.4715 33.675 10.429C34.8241 10.4078 35.8687 11.3215 36.0359 12.5539C36.0985 12.9363 36.0985 13.3401 36.0985 13.7438C36.0985 19.3109 36.0985 24.8779 36.0985 30.445C36.0985 31.6986 36.4955 32.2936 37.3103 32.3148C38.1251 32.3148 38.5221 31.6986 38.543 30.4662C38.543 26.6203 38.543 22.7743 38.543 18.9284C38.543 17.271 39.504 16.1448 40.9039 16.1448C42.2619 16.1448 43.2647 17.2923 43.2647 18.9284C43.2856 22.7106 43.2647 26.514 43.2647 30.2962C43.2647 30.53 43.2438 30.785 43.2647 31.0187C43.3274 31.7836 43.8497 32.3148 44.4974 32.2936C45.166 32.2723 45.6883 31.7411 45.6883 30.9762C45.7092 29.3613 45.6883 27.7464 45.7092 26.1316C45.7092 24.5592 46.6284 23.4968 47.9865 23.4543C49.2609 23.4118 50.3264 24.4742 50.4518 25.9191C50.4727 26.2378 50.4727 26.5565 50.4727 26.8753C50.4727 35.4808 50.4518 44.1077 50.4936 52.7132C50.4936 54.7743 50.0966 56.6867 49.1147 58.5141C48.0909 60.3627 47.6731 62.3812 47.7149 64.5698Z" fill="#3AAA35"/>
<path d="M10.5259 57.4924C10.5259 57.9174 10.5468 58.3424 10.5259 58.7673C10.4841 59.4685 9.94093 59.9997 9.29326 59.9572C8.6038 59.8935 8.16506 59.511 8.12327 58.8098C8.08149 57.9386 8.08149 57.0675 8.12327 56.1963C8.16506 55.5376 8.72916 55.0701 9.33505 55.0914C9.94093 55.1126 10.4424 55.5801 10.505 56.26C10.5468 56.6425 10.5259 57.0675 10.5259 57.4924Z" fill="#3AAA35"/>
<path d="M10.5258 49.9493C10.5258 50.3743 10.5467 50.7992 10.5258 51.2242C10.4631 51.9041 9.98259 52.3503 9.35581 52.3716C8.70814 52.3928 8.18582 51.9679 8.14404 51.2879C8.08136 50.3955 8.08136 49.4818 8.14404 48.5894C8.18582 47.9094 8.72903 47.4845 9.3767 47.527C10.0662 47.5695 10.4631 47.9944 10.5258 48.6956C10.5467 49.0994 10.5258 49.5243 10.5258 49.9493Z" fill="#3AAA35"/>
<path d="M5.53256 54.9426C5.11471 54.9426 4.69686 54.9851 4.279 54.9426C3.63133 54.8789 3.17169 54.3477 3.19259 53.7102C3.21348 53.094 3.67311 52.5416 4.32079 52.5203C5.17738 52.4778 6.03398 52.4778 6.89058 52.5203C7.53826 52.5628 8.01879 53.1365 7.97701 53.7527C7.93522 54.4114 7.60094 54.8576 6.93238 54.9214C6.47274 54.9639 5.9922 54.9214 5.53256 54.9426Z" fill="#3AAA35"/>
<path d="M13.0329 52.4991C13.4508 52.4991 13.8686 52.4778 14.2865 52.4991C14.955 52.5628 15.3938 53.0515 15.4147 53.689C15.4356 54.3477 15.0177 54.8576 14.3491 54.9001C13.4717 54.9426 12.5942 54.9426 11.7167 54.9001C11.069 54.8576 10.7138 54.4114 10.672 53.7315C10.6511 53.094 11.0899 52.5841 11.7376 52.4991C11.7793 52.4991 11.842 52.4991 11.8838 52.4991C12.2599 52.4991 12.6568 52.4991 13.0329 52.4991Z" fill="#3AAA35"/>
</svg>
