<svg width="64" height="65" viewBox="0 0 64 65" fill="none" xmlns="http://www.w3.org/2000/svg">
<path d="M2.5 34.3114C2.5 33.2034 2.5 32.0799 2.5 30.9718C2.53078 30.7871 2.59235 30.6025 2.59235 30.4178C3.00793 24.8928 4.7626 19.8603 7.99489 15.351C9.22624 13.6273 10.6423 12.0729 12.1969 10.734C26.0957 24.6311 39.9638 38.4975 53.878 52.3946C53.7087 52.5793 53.5086 52.8256 53.3085 53.041C46.0282 60.459 37.1779 63.1676 27.0038 61.6748C20.5239 60.7206 15.0598 57.7042 10.5345 52.9487C6.45571 48.6395 3.94683 43.5916 2.96176 37.7896C2.76166 36.6353 2.65392 35.4811 2.5 34.3114ZM23.8331 49.1166C23.4791 48.8703 23.0327 48.5779 22.6172 48.2393C19.3541 45.6692 17.6148 42.3296 17.7072 38.1435C17.7687 35.3426 18.6153 32.7724 20.1083 30.4486C21.0164 29.0173 22.1246 27.7091 23.1097 26.3702C22.3863 25.6469 21.6013 24.862 20.7855 24.0463C19.1694 25.6315 17.7687 27.4475 16.6605 29.479C14.598 33.2495 13.6899 37.2509 14.5364 41.5139C15.4599 46.1463 18.1381 49.5783 22.0477 52.1022C23.3252 52.9179 24.7258 53.5489 26.1419 54.303C26.2343 53.8259 26.3112 53.5181 26.3574 53.2257C26.5267 51.8098 27.05 50.5786 28.0659 49.5475C29.2664 48.3163 30.4362 47.0543 31.6368 45.777C34.592 47.7161 35.808 50.6864 35.8234 54.2876C39.4251 52.8717 42.5958 51.1019 44.92 48.1624C44.0888 47.3313 43.2884 46.5311 42.4727 45.7154C41.3644 47.0543 40.0869 48.2701 38.517 49.1781C36.9778 44.8536 33.4222 42.622 29.8513 40.3289C29.6358 40.9753 29.4204 41.5447 29.2511 42.1295C28.8509 43.5146 28.0967 44.6535 27.0808 45.6692C25.988 46.7619 24.9567 47.9162 23.8331 49.1166Z" fill="#3AAA35"/>
<path d="M33.607 3.1006C34.6844 3.2545 35.7618 3.37762 36.8393 3.5623C48.1985 5.53222 58.6649 14.2583 60.9891 27.1705C62.4051 35.1117 60.8813 42.4989 56.3715 49.2243C56.31 49.3167 56.233 49.409 56.1406 49.5475C56.0021 49.4244 55.879 49.3321 55.7559 49.2243C53.3855 46.8697 51.0306 44.4996 48.6756 42.1295C48.5217 41.9756 48.3985 41.6525 48.4447 41.4524C50.4764 33.0033 48.1677 25.8931 41.8108 20.045C38.9787 17.444 35.7003 15.4741 32.4064 13.5504C31.0981 12.7963 29.8052 12.0268 28.3891 11.1957C28.1121 14.0736 27.3271 16.6899 25.6494 18.9061C22.1554 15.4126 18.6615 11.9191 15.0752 8.33319C16.2911 7.62525 17.5225 6.84036 18.8308 6.1786C22.2016 4.45492 25.7725 3.45457 29.5589 3.16216C29.682 3.14677 29.8206 3.1006 29.9437 3.06982C31.1443 3.1006 32.3756 3.1006 33.607 3.1006Z" fill="#3AAA35"/>
<path d="M23.8331 49.1166C24.9567 47.9315 25.9879 46.7773 27.0807 45.6846C28.0966 44.6689 28.8508 43.53 29.251 42.1449C29.4203 41.5601 29.6358 40.9907 29.8513 40.3443C33.4222 42.6374 36.9777 44.869 38.5169 49.1935C40.1022 48.2855 41.3644 47.0697 42.4726 45.7308C43.2884 46.5465 44.0887 47.3467 44.9199 48.1778C42.6111 51.1327 39.425 52.9025 35.8233 54.303C35.8079 50.7018 34.592 47.7315 31.6367 45.7924C30.4361 47.0697 29.2664 48.3317 28.0658 49.5629C27.0499 50.594 26.5112 51.8252 26.3573 53.2411C26.3265 53.5335 26.2496 53.8413 26.1418 54.3184C24.7258 53.5643 23.3251 52.9333 22.0476 52.1176C18.1381 49.6091 15.4599 46.1617 14.5364 41.5294C13.6898 37.2509 14.5979 33.2649 16.6604 29.4944C17.7686 27.4629 19.1693 25.6469 20.7855 24.0617C21.6012 24.8774 22.4016 25.6777 23.1096 26.3856C22.1092 27.7246 21.0163 29.0327 20.1082 30.464C18.6152 32.8032 17.7686 35.3734 17.7071 38.1589C17.6147 42.3604 19.354 45.6846 22.6171 48.2548C23.0327 48.5779 23.4945 48.8703 23.8331 49.1166Z" fill="white"/>
<path d="M28.2199 21.5224C29.0818 19.9526 29.9745 18.3521 30.8981 16.6746C32.2525 17.521 33.6994 18.3828 35.1154 19.2909C37.809 21.0453 40.3333 23.0152 42.2726 25.6315C45.0894 29.4174 46.1206 33.6805 45.5665 38.3282C45.5511 38.4975 45.4895 38.6668 45.4742 38.7592C39.7176 33.0187 33.961 27.2629 28.2199 21.5224Z" fill="#3AAA35"/>
</svg>
