<svg width="65" height="65" viewBox="0 0 65 65" fill="none" xmlns="http://www.w3.org/2000/svg">
<path d="M62.6333 8.30314C62.3666 20.0365 58.9 30.4365 51.4333 39.5032C45.5667 46.4365 38.3666 51.2365 29.5667 53.9032C27.4333 54.4365 25.8333 53.9032 24.2333 52.5698C21.5667 49.9032 18.6333 46.9698 15.9666 44.3031C14.9 43.2365 13.5667 41.9032 12.5 40.8365C10.9 39.2365 10.6333 37.6365 11.1667 35.5032C16.2333 19.2365 29.5667 7.23652 46.1 3.76986C50.9 2.70319 55.7 2.43646 60.5 2.70312C61.5667 2.70312 62.3667 3.50316 62.3667 4.56982C62.3667 5.90316 62.3666 7.23647 62.6333 8.30314ZM50.9 29.1032C50.9 20.8365 44.2333 14.1698 35.9667 14.1698C27.7 14.1698 21.0334 20.8365 21.0334 29.1032C21.0334 37.3698 27.7 44.0364 35.9667 44.0364C44.2333 44.0364 50.9 37.3698 50.9 29.1032Z" fill="#3AAA35"/>
<path d="M33.5667 56.8365C38.6333 54.9698 43.1667 52.3032 47.4333 48.8365C47.9667 50.7032 47.9667 52.5698 46.9 54.1698C46.6333 54.7032 46.1 55.2365 45.5667 55.7699C43.7 57.6365 41.5667 59.7698 39.7 61.6365C38.3667 62.9698 37.0333 62.7032 36.2333 61.1032C35.4333 59.7699 34.3666 58.1698 33.5667 56.8365Z" fill="#3AAA35"/>
<path d="M16.2333 17.6365C12.7667 21.9031 10.1 26.4365 8.23332 31.5032C6.63332 30.4365 5.03335 29.6365 3.43335 28.5698C2.36668 28.0365 2.36667 26.4365 3.16667 25.6365C5.56667 23.2365 7.70002 21.1031 10.1 18.7031C11.4333 17.3698 14.1 16.8365 16.2333 17.6365Z" fill="#3AAA35"/>
<path d="M2.3667 60.0365C2.3667 59.7698 2.63332 59.2365 2.89998 58.9698C6.36665 55.2365 10.1 51.7698 13.8333 48.0364C14.6333 47.2364 15.9667 47.2364 16.7667 48.0364C17.5667 48.8364 17.5667 49.9031 16.7667 50.7031C13.3 54.1698 9.56668 57.9031 6.10002 61.3698C5.56668 61.9031 4.7667 62.1698 3.70003 61.9031C2.90003 61.9031 2.63337 61.3698 2.3667 60.0365Z" fill="#3AAA35"/>
<path d="M15.9666 61.1032C15.1666 60.8365 14.3667 60.5699 14.1 59.7699C13.8334 58.9699 13.8334 58.1698 14.3667 57.6365C15.9667 56.0365 17.3 54.4365 18.9 53.1032C19.7 52.3032 21.0333 52.5699 21.5667 53.1032C22.3667 53.9032 22.3667 54.9699 21.5667 55.7699C20.2333 57.3699 18.6333 58.7031 17.3 60.0365C17.0333 60.8365 16.5 61.1032 15.9666 61.1032Z" fill="#3AAA35"/>
<path d="M3.70003 48.8365C3.9667 48.3032 4.23333 47.7698 4.5 47.5032C5.83333 46.1698 7.43335 44.5698 8.76668 43.2365C9.56668 42.4365 10.9 42.4365 11.7 43.2365C12.5 44.0365 12.5 45.1032 11.7 46.1698C10.3667 47.5032 8.76668 49.1032 7.43335 50.4365C6.90002 50.9698 6.10003 51.2365 5.03337 50.9698C4.23337 50.4365 3.9667 49.9032 3.70003 48.8365Z" fill="#3AAA35"/>
<path d="M35.9666 18.1698C42.1 18.1698 46.9 22.9699 46.9 29.1032C46.9 35.2365 41.8333 40.0365 35.9666 40.0365C29.8333 40.0365 25.0334 34.9698 25.0334 28.8365C25.0334 22.9698 29.8333 18.1698 35.9666 18.1698ZM33.5667 28.8365C33.5667 27.5032 33.5666 26.1699 33.3 25.1032C33.3 24.0365 32.2333 23.2365 31.1667 23.2365C30.1 23.2365 29.0333 24.0365 29.3 25.3698C29.3 27.2365 29.5667 29.1032 29.5667 31.2365C29.5667 32.3032 30.3667 33.1032 31.4333 33.1032C34.9 33.3699 38.3667 33.3698 41.8333 33.6365C42.9 33.6365 43.9666 32.8365 43.9666 31.7699C43.9666 30.7032 43.1667 29.9031 41.8333 29.6365C39.9667 29.6365 38.1 29.3698 36.2333 29.3698C35.7 29.1031 34.6333 29.1032 33.5667 28.8365Z" fill="#3AAA35"/>
</svg>
