<svg width="64" height="65" viewBox="0 0 64 65" fill="none" xmlns="http://www.w3.org/2000/svg">
<path d="M33.6421 64.5698C32.4752 64.3361 31.2749 64.1692 30.1246 63.852C23.2061 61.9324 18.0214 55.8896 17.0212 48.7785C16.5377 45.273 17.3546 42.0513 18.6382 38.8797C20.5721 34.1389 23.1061 29.7154 25.9568 25.4921C28.7575 21.369 31.7583 17.3627 34.6591 13.3064C34.7924 13.1228 34.9425 12.9725 35.1259 12.7722C35.2592 12.9058 35.3593 13.0059 35.4426 13.1228C40.4439 19.5495 45.1451 26.1765 49.0128 33.3544C50.5632 36.2088 51.9469 39.1468 52.7971 42.285C54.2642 47.7435 53.0472 52.7013 49.7963 57.1582C46.6455 61.4483 42.3444 63.8687 37.043 64.4697C36.9097 64.4863 36.7763 64.5364 36.6263 64.5698C35.6427 64.5698 34.6424 64.5698 33.6421 64.5698ZM31.7917 53.4524C28.5408 53.0685 26.7237 51.2657 26.3736 47.9939C25.1566 47.9939 23.9563 47.9939 22.7393 47.9939C22.5393 53.3189 27.5406 57.4086 31.7917 57.0581C31.7917 55.8562 31.7917 54.671 31.7917 53.4524Z" fill="#3AAA35"/>
<path d="M3.21753 25.4588C3.68432 23.8896 4.05108 22.2871 4.66791 20.7848C6.36835 16.5615 8.81898 12.7389 11.3863 8.99971C13.0534 6.57926 14.8372 4.20889 16.6043 1.77175C16.7544 1.90529 16.8377 1.97206 16.8877 2.03883C20.522 6.67942 23.9062 11.4869 26.757 16.645C26.9904 17.079 26.9737 17.3461 26.6903 17.7467C22.906 23.0717 19.3217 28.5302 16.5043 34.4395C15.6874 36.1421 15.0039 37.9116 14.2037 39.7811C13.3035 39.4807 12.3032 39.2637 11.403 38.8463C6.8018 36.7431 4.08442 33.1875 3.33423 28.1463C3.31755 28.0294 3.26754 27.9126 3.21753 27.7957C3.21753 27.0446 3.21753 26.2433 3.21753 25.4588Z" fill="#3AAA35"/>
<path d="M49.0461 8.59904C47.9458 8.59904 46.9122 8.59904 45.7453 8.59904C45.862 8.26518 45.8786 7.96471 46.0287 7.81448C48.4126 5.41072 50.7966 3.00697 53.2472 0.569824C53.8807 1.22084 54.4809 1.83847 55.0977 2.45611C56.8315 4.19215 58.5653 5.9282 60.2824 7.68094C60.4824 7.88125 60.5825 8.19841 60.7825 8.59904C59.5489 8.59904 58.5319 8.59904 57.4316 8.59904C57.4316 14.2746 57.4316 19.8833 57.4316 25.5255C54.6142 25.5255 51.8635 25.5255 49.0295 25.5255C49.0461 19.9167 49.0461 14.2913 49.0461 8.59904Z" fill="#3AAA35"/>
</svg>
