<svg width="65" height="65" viewBox="0 0 65 65" fill="none" xmlns="http://www.w3.org/2000/svg">
<path d="M57.5156 15.601C59.1233 16.9732 59.9927 18.5741 59.9927 20.567C60.0091 26.0884 59.9927 31.6097 59.9927 37.1311C59.9927 39.9245 59.9927 42.7178 59.9927 45.5112C59.9763 49.1866 57.1055 52.0453 53.4144 52.0453C48.8703 52.0453 44.3262 52.0453 39.7821 52.0453C39.5688 52.0453 39.3392 52.0453 39.0931 52.0453C39.0931 53.3522 39.0931 54.61 39.0931 55.9658C39.3228 55.9658 39.536 55.9658 39.7493 55.9658C42.7021 55.9658 45.6386 55.9658 48.5914 55.9658C51.1834 55.9658 53.234 57.8444 53.4636 60.4254C53.5621 61.5689 52.8731 62.3857 51.7083 62.4837C51.5115 62.5 51.2982 62.5 51.1013 62.5C38.6994 62.5 26.2974 62.5 13.8955 62.5C13.6494 62.5 13.4033 62.5 13.1572 62.4673C12.1402 62.353 11.5004 61.6179 11.5168 60.6051C11.5496 58.1221 13.6986 55.9658 16.2085 55.9495C19.1942 55.9332 22.1798 55.9495 25.1655 55.9495C25.3952 55.9495 25.6084 55.9495 25.8873 55.9495C25.8873 54.6427 25.8873 53.3685 25.8873 52.029C25.6576 52.029 25.4444 52.029 25.2147 52.029C20.7198 52.029 16.2085 52.029 11.7136 52.029C7.82571 52.029 5.0041 49.203 5.0041 45.3151C5.0041 37.0821 4.9877 28.849 5.02051 20.616C5.03691 18.133 6.23446 16.2871 8.36707 15.0129C8.4819 14.9476 8.61314 14.8986 8.74438 14.8496C8.89202 15.8624 9.02326 16.8425 9.1873 17.8226C9.22011 18.084 9.30214 18.3454 9.40057 18.5904C9.54821 18.9171 9.46618 19.1621 9.31854 19.4888C9.12169 19.9136 8.95764 20.42 8.95764 20.8774C8.94123 27.7219 8.94123 34.5664 8.94123 41.411C8.94123 43.0935 10.0732 44.2043 11.7628 44.2043C25.592 44.2043 39.4376 44.2043 53.2668 44.2043C54.9893 44.2043 56.0884 43.0772 56.0884 41.362C56.0884 35.2035 56.1048 29.0614 56.072 22.903C56.072 21.5961 56.1704 20.322 56.5641 19.0641C56.9086 17.9697 57.1711 16.8425 57.5156 15.601ZM34.4506 48.1575C34.4506 47.112 33.5483 46.2136 32.4984 46.1973C31.4649 46.1809 30.5298 47.0957 30.5298 48.1248C30.5134 49.154 31.4321 50.0687 32.482 50.0851C33.5155 50.1014 34.4506 49.1866 34.4506 48.1575Z" fill="#3AAA35"/>
<path d="M39.7164 31.2994C40.5531 31.5281 41.3405 31.7241 42.1279 31.9364C42.981 32.1488 43.6371 31.8058 43.8504 31.038C44.0309 30.3682 43.6371 29.6985 42.8497 29.4698C42.0459 29.2411 41.2421 29.0287 40.389 28.8C40.7335 27.5095 41.0616 26.2844 41.4061 24.9939C42.2427 25.2226 43.0138 25.4513 43.8012 25.631C44.9495 25.8923 45.8518 25.0592 45.4745 24.0628C45.3432 23.7034 44.9167 23.393 44.5558 23.197C44.1949 23.001 43.7356 22.952 43.3255 22.8376C42.9317 22.7233 42.538 22.6252 42.0787 22.5109C42.4232 21.2367 42.7513 19.9952 43.0958 18.7047C43.9488 18.9334 44.7527 19.1458 45.5565 19.3418C46.3275 19.5379 47.0329 19.1785 47.2134 18.4924C47.4102 17.741 47.0329 17.0875 46.2291 16.8425C45.819 16.7118 45.4089 16.6138 44.9987 16.4995C44.605 16.4015 44.2113 16.2871 43.7848 16.1728C44.1293 14.9149 44.4574 13.6734 44.8019 12.3829C45.6057 12.5953 46.3603 12.8077 47.1314 13.0037C48.1977 13.2651 49.0015 12.7097 48.9523 11.7459C48.9195 11.1415 48.6078 10.7494 48.0336 10.586C47.2134 10.341 46.3931 10.1287 45.4417 9.86729C45.7369 8.88716 45.9666 7.90704 46.3439 6.99226C46.59 6.38785 47.2134 6.28983 47.8203 6.45319C49.5921 6.91058 51.3638 7.38431 53.1355 7.85804C53.8081 8.03772 54.4807 8.21741 55.1369 8.3971C56.1375 8.6748 56.482 9.27921 56.2196 10.292C55.0384 14.7026 53.8409 19.1131 52.6597 23.5237C51.5442 27.6402 50.4451 31.7567 49.3296 35.8733C49.2968 36.0203 49.2804 36.1836 49.2476 36.396C49.7889 36.396 50.2975 36.3797 50.806 36.396C51.5278 36.4123 52.0692 36.9187 52.1184 37.5885C52.1676 38.3236 51.7083 38.879 50.9536 38.977C50.7076 39.0097 50.4615 39.0097 50.2154 39.0097C38.3876 39.0097 26.5598 39.0097 14.732 39.0097C14.4696 39.0097 14.1907 39.0097 13.9446 38.977C13.2228 38.879 12.7963 38.3236 12.8291 37.6048C12.8619 36.9187 13.4033 36.4123 14.1087 36.396C14.7156 36.3797 15.339 36.396 15.946 36.396C16.553 36.396 17.1763 36.396 17.8981 36.396C17.2256 34.1907 16.5858 32.0508 15.9132 29.8292C18.702 29.0777 21.458 28.3426 24.296 27.5912C24.985 30.5316 25.6576 33.4556 26.3466 36.3797C26.6419 36.3797 26.8879 36.3797 27.216 36.3797C27.216 36.151 27.216 35.9059 27.216 35.6772C27.216 29.0941 27.216 22.5109 27.216 15.9277C27.216 15.2743 27.3309 14.6046 27.3801 14.0165C29.1518 14.1145 30.7923 14.2779 32.4491 14.2779C34.106 14.2779 35.7465 14.1145 37.5674 14.0165C37.6166 14.5556 37.7479 15.209 37.7479 15.8624C37.7643 21.8902 37.7643 27.9179 37.7643 33.962C37.7643 34.7461 37.7643 35.5466 37.7643 36.3633C39.1751 36.3633 40.5367 36.3633 42.0787 36.3633C41.0452 35.4486 39.8148 35.5302 38.7157 35.0402C39.0438 33.8313 39.3719 32.5899 39.7164 31.2994Z" fill="#3AAA35"/>
<path d="M15.1915 27.3625C14.2892 25.1082 14.5025 23.1643 16.3726 21.5144C15.9297 21.4001 15.5196 21.3184 15.1423 21.1877C13.0261 20.469 11.6809 18.5577 11.484 16.1564C11.3528 14.4575 11.5661 12.8076 11.9926 11.1578C12.2222 10.2757 12.173 9.31187 12.2387 8.39709C12.2551 8.20106 12.2058 7.9887 12.1894 7.79268C12.1566 6.79622 13.0753 6.06112 13.9611 6.50218C17.521 8.2664 20.5066 10.635 21.7698 14.5719C22.5408 16.9732 21.7698 18.9661 19.7684 20.616C22.1799 21.1714 23.3775 22.7232 23.6727 25.1082C20.8511 25.8596 18.0459 26.5947 15.1915 27.3625Z" fill="#3AAA35"/>
<path d="M36.7144 11.4355C33.86 11.8275 31.104 11.8275 28.266 11.4355C29.0042 9.40988 29.726 7.44963 30.4478 5.48938C30.7103 4.78696 30.9728 4.08453 31.2353 3.38211C31.4485 2.81037 31.8751 2.5 32.4984 2.5C33.089 2.5 33.5155 2.81037 33.7124 3.34944C34.7131 6.01211 35.6974 8.69112 36.7144 11.4355Z" fill="#3AAA35"/>
</svg>
