<svg width="65" height="65" viewBox="0 0 65 65" fill="none" xmlns="http://www.w3.org/2000/svg">
<path d="M62.6333 8.23332C62.3666 19.9667 58.9 30.3667 51.4333 39.4333C45.5667 46.3667 38.3666 51.1667 29.5667 53.8333C27.4333 54.3667 25.8333 53.8333 24.2333 52.5C21.5667 49.8333 18.6333 46.9 15.9666 44.2333C14.9 43.1667 13.5667 41.8334 12.5 40.7667C10.9 39.1667 10.6333 37.5667 11.1667 35.4333C16.2333 19.1667 29.5667 7.1667 46.1 3.70003C50.9 2.63337 55.7 2.36663 60.5 2.6333C61.5667 2.6333 62.3667 3.43333 62.3667 4.5C62.3667 5.83333 62.3666 7.16665 62.6333 8.23332ZM50.9 29.0333C50.9 20.7667 44.2333 14.1 35.9667 14.1C27.7 14.1 21.0334 20.7667 21.0334 29.0333C21.0334 37.3 27.7 43.9666 35.9667 43.9666C44.2333 43.9666 50.9 37.3 50.9 29.0333Z" fill="#3AAA35"/>
<path d="M33.5667 56.7667C38.6333 54.9 43.1667 52.2334 47.4333 48.7667C47.9667 50.6334 47.9667 52.5 46.9 54.1C46.6333 54.6334 46.1 55.1667 45.5667 55.7C43.7 57.5667 41.5667 59.7 39.7 61.5667C38.3667 62.9 37.0333 62.6334 36.2333 61.0334C35.4333 59.7 34.3666 58.1 33.5667 56.7667Z" fill="#3AAA35"/>
<path d="M16.2333 17.5667C12.7667 21.8333 10.1 26.3667 8.23332 31.4333C6.63332 30.3667 5.03335 29.5667 3.43335 28.5C2.36668 27.9667 2.36667 26.3667 3.16667 25.5667C5.56667 23.1667 7.70002 21.0333 10.1 18.6333C11.4333 17.3 14.1 16.7667 16.2333 17.5667Z" fill="#3AAA35"/>
<path d="M2.3667 59.9666C2.3667 59.7 2.63332 59.1666 2.89998 58.9C6.36665 55.1666 10.1 51.7 13.8333 47.9666C14.6333 47.1666 15.9667 47.1666 16.7667 47.9666C17.5667 48.7666 17.5667 49.8333 16.7667 50.6333C13.3 54.1 9.56668 57.8333 6.10002 61.3C5.56668 61.8333 4.7667 62.1 3.70003 61.8333C2.90003 61.8333 2.63337 61.3 2.3667 59.9666Z" fill="#3AAA35"/>
<path d="M15.9666 61.0334C15.1666 60.7667 14.3667 60.5001 14.1 59.7001C13.8334 58.9001 13.8334 58.1 14.3667 57.5667C15.9667 55.9667 17.3 54.3667 18.9 53.0334C19.7 52.2334 21.0333 52.5001 21.5667 53.0334C22.3667 53.8334 22.3667 54.9001 21.5667 55.7001C20.2333 57.3001 18.6333 58.6333 17.3 59.9667C17.0333 60.7667 16.5 61.0334 15.9666 61.0334Z" fill="#3AAA35"/>
<path d="M3.70003 48.7667C3.9667 48.2334 4.23333 47.7 4.5 47.4333C5.83333 46.1 7.43335 44.5 8.76668 43.1667C9.56668 42.3667 10.9 42.3667 11.7 43.1667C12.5 43.9667 12.5 45.0333 11.7 46.1C10.3667 47.4333 8.76668 49.0334 7.43335 50.3667C6.90002 50.9 6.10003 51.1666 5.03337 50.9C4.23337 50.3666 3.9667 49.8334 3.70003 48.7667Z" fill="#3AAA35"/>
<path d="M35.9666 18.1C42.1 18.1 46.9 22.9 46.9 29.0334C46.9 35.1667 41.8333 39.9666 35.9666 39.9666C29.8333 39.9666 25.0334 34.9 25.0334 28.7667C25.0334 22.9 29.8333 18.1 35.9666 18.1ZM33.5667 28.7667C33.5667 27.4333 33.5666 26.1 33.3 25.0334C33.3 23.9667 32.2333 23.1667 31.1667 23.1667C30.1 23.1667 29.0333 23.9666 29.3 25.3C29.3 27.1666 29.5667 29.0333 29.5667 31.1667C29.5667 32.2333 30.3667 33.0334 31.4333 33.0334C34.9 33.3 38.3667 33.3 41.8333 33.5667C42.9 33.5667 43.9666 32.7667 43.9666 31.7C43.9666 30.6334 43.1667 29.8333 41.8333 29.5667C39.9667 29.5667 38.1 29.3 36.2333 29.3C35.7 29.0333 34.6333 29.0333 33.5667 28.7667Z" fill="#3AAA35"/>
</svg>
