<svg width="65" height="65" viewBox="0 0 65 65" fill="none" xmlns="http://www.w3.org/2000/svg">
<path d="M49.612 64.5C49.1112 64.5 48.6104 64.5 48.1096 64.5C48.0428 64.45 47.9927 64.4 47.9259 64.3667C46.4403 63.7833 45.7391 62.7667 45.7391 61.1667C45.7391 59.85 45.7558 58.55 45.7224 57.2333C45.7057 56.7833 45.6557 56.3167 45.5221 55.8833C45.0213 54.2333 43.5857 53.25 41.7161 53.25C32.8019 53.25 23.8877 53.25 14.9902 53.25C14.7565 53.25 14.5061 53.25 14.2891 53.25C14.2891 51.9167 14.2891 50.6833 14.2891 49.4167C15.491 49.6167 16.5594 49.3667 17.611 48.9333C27.2931 44.9833 33.503 35.7667 33.6032 25.25C33.6199 22.5833 33.6365 19.9167 33.5865 17.25C33.5698 16.5833 33.4696 15.8667 33.2526 15.2333C32.4847 12.9 30.4314 11.4833 27.8774 11.4667C24.5721 11.45 21.7343 10.3667 19.5141 7.83333C18.1285 6.23333 16.3757 5.58333 14.2223 5.81667C14.3225 4.51667 14.7732 3.41667 15.5745 2.45C16.4759 1.38333 17.6611 0.833333 18.9632 0.5C30.2144 0.5 41.449 0.5 52.7002 0.5C52.1326 1.71667 51.949 2.98333 51.949 4.31667C51.9657 23.2833 51.949 42.2667 51.949 61.2333C51.949 62.75 51.2145 63.8167 49.829 64.35C49.7622 64.3833 49.6954 64.45 49.612 64.5ZM39.0451 42C36.7749 42 34.5046 42 32.2343 42C31.4831 42 30.8488 42.25 30.4481 42.9333C29.6969 44.2333 30.5984 45.7333 32.2009 45.75C34.5881 45.7667 36.9919 45.75 39.379 45.75C41.5491 45.75 43.7026 45.7667 45.8727 45.75C47.108 45.75 47.9259 44.9167 47.8759 43.7667C47.8258 42.7333 47.0245 42 45.856 42C43.5857 42 41.3154 42 39.0451 42ZM41.232 34.5C39.7129 34.5 38.1938 34.5 36.6747 34.5C35.406 34.5 34.5714 35.25 34.5881 36.3833C34.5881 37.4833 35.4227 38.2333 36.6413 38.25C39.6962 38.25 42.751 38.25 45.8226 38.25C47.0579 38.25 47.8759 37.5 47.8759 36.4C47.8759 35.2667 47.0579 34.5167 45.7892 34.5167C44.2701 34.5 42.751 34.5 41.232 34.5ZM42.2002 12C40.9983 12 39.7797 12 38.5777 12C37.2924 12 36.4577 12.7333 36.4577 13.8667C36.4577 15 37.2757 15.75 38.5444 15.75C40.9649 15.75 43.3687 15.75 45.7892 15.75C47.0579 15.75 47.8759 14.9833 47.8759 13.85C47.8759 12.75 47.0412 12 45.8059 12C44.6207 12 43.4021 12 42.2002 12ZM42.2002 19.5C40.9482 19.5 39.6962 19.4833 38.4609 19.5C37.2757 19.5167 36.4744 20.2667 36.4577 21.35C36.4577 22.4667 37.259 23.2333 38.4776 23.25C40.9315 23.2667 43.3854 23.2667 45.8393 23.25C47.0579 23.25 47.8759 22.4833 47.8759 21.3667C47.8759 20.2667 47.0579 19.5167 45.8226 19.5C44.6207 19.5 43.4188 19.5 42.2002 19.5ZM42.1334 30.75C43.3854 30.75 44.6374 30.7667 45.8727 30.75C47.0579 30.7333 47.8592 29.9833 47.8759 28.9C47.8759 27.7833 47.0746 27.0167 45.856 27.0167C43.4021 27 40.9482 27 38.4943 27.0167C37.2757 27.0167 36.4577 27.8 36.4577 28.9C36.4577 30 37.2924 30.75 38.511 30.7667C39.7296 30.75 40.9315 30.75 42.1334 30.75Z" fill="#3AAA35"/>
<path d="M0.500488 16.5C1.01798 15.4833 1.85264 15.1333 2.98778 15.1333C7.21116 15.1167 10.7167 13.45 13.5713 10.35C14.6397 9.18334 15.708 9.16667 16.7597 10.3167C19.6643 13.5 23.2701 15.1333 27.5769 15.15C27.844 15.15 28.1278 15.1667 28.3782 15.2333C29.2796 15.4333 29.8472 16.1333 29.8472 17.0667C29.8472 20.15 30.0308 23.25 29.8138 26.3167C29.1628 35.2833 24.6556 41.65 16.4759 45.4C15.5912 45.8 14.8066 45.8167 13.9218 45.4167C6.81053 42.25 2.47029 36.8833 0.867739 29.2667C0.7175 28.5667 0.617341 27.85 0.500488 27.1333C0.500488 23.5833 0.500488 20.05 0.500488 16.5ZM23.27 24.5833C23.27 23.9833 23.2867 23.3833 23.27 22.7667C23.2534 21.9167 22.8193 21.25 22.0181 21.0167C19.9314 20.4 17.9783 19.5333 16.1253 18.3833C15.5077 18 14.84 18 14.239 18.3833C12.4195 19.5333 10.483 20.4 8.41308 21C7.57842 21.25 7.1277 21.8833 7.11101 22.7667C7.09431 23.6667 7.09431 24.55 7.11101 25.45C7.26125 30.7333 9.56491 34.85 13.8551 37.8833C14.8567 38.5833 15.5411 38.5833 16.5427 37.8833C21.1333 34.65 23.3201 30.2 23.27 24.5833Z" fill="#3AAA35"/>
<path d="M11.5013 64.5C10.2159 64.15 9.03073 63.6333 8.14599 62.6C7.24455 61.55 6.76045 60.35 6.74375 58.95C6.74375 57.7833 7.51164 57 8.69686 57C14.3559 57 20.0149 57 25.6739 57C30.8321 57 35.9903 57 41.1485 57C41.3989 57 41.6493 57 41.9832 57C41.9832 57.8667 41.9498 58.7167 41.9832 59.5667C42.0332 60.7333 42.0833 61.8833 42.2336 63.0333C42.3003 63.5333 42.5674 64.0167 42.7344 64.5C32.3178 64.5 21.9012 64.5 11.5013 64.5Z" fill="#3AAA35"/>
<path d="M59.6112 0.5C59.7781 0.583333 59.9284 0.666667 60.0953 0.75C61.2972 1.31667 61.9816 2.25 61.9816 3.58333C61.9983 7.61667 62.0317 11.6667 61.965 15.7C61.9149 18.6167 62.5826 21.2833 64.1351 23.7667C64.8863 24.95 64.4355 26.25 63.1836 26.6667C63.05 26.7167 62.8998 26.75 62.7662 26.75C60.4626 26.75 58.1422 26.75 55.7384 26.75C55.7384 26.4833 55.7384 26.25 55.7384 26.0167C55.7384 18.65 55.7384 11.2667 55.7384 3.9C55.7384 2.2 56.3894 1.25 57.9753 0.616666C58.0253 0.599999 58.0587 0.533333 58.1088 0.5C58.6096 0.5 59.1104 0.5 59.6112 0.5Z" fill="#3AAA35"/>
<path d="M15.1905 34.3C12.7199 32.2333 11.2676 29.6667 10.8837 26.5333C10.8002 25.9 10.7835 25.25 10.8002 24.6C10.8002 24.4 11.0005 24.1167 11.2008 24.0333C12.4028 23.45 13.6047 22.9167 14.8233 22.3833C15.0236 22.3 15.3408 22.2833 15.5578 22.3833C16.7764 22.9 17.9783 23.45 19.1802 24.0167C19.3471 24.1 19.5808 24.3167 19.5808 24.4667C19.681 28.4167 18.2621 31.6833 15.1905 34.3Z" fill="#3AAA35"/>
</svg>
