<svg width="213" height="50" viewBox="0 0 213 50" fill="none" xmlns="http://www.w3.org/2000/svg">
<path fill-rule="evenodd" clip-rule="evenodd" d="M56.3394 35.8275V15.742H72.6369V35.8275H68.6726V19.5741H60.3477V35.8275H56.3394ZM84.3094 24.2872H82.063C80.1689 24.2872 79.2439 24.9479 79.2439 26.2693C79.2439 27.5467 80.1689 28.2074 81.9749 28.2074C82.7677 28.2074 83.5606 28.1633 84.3094 28.0312V24.2872ZM88.0093 21.2039V35.8275H84.3094V30.7621C83.6046 30.8942 82.8558 31.0704 81.9308 31.0704L78.8916 35.8275H74.7511L78.4071 30.5419C76.513 29.749 75.4999 28.3395 75.4999 26.1812C75.4999 23.186 77.6582 21.2039 81.9749 21.2039H88.0093ZM112.896 22.4372C114.041 23.5384 114.57 25.036 114.57 27.0181V35.8275H110.782V27.6788C110.782 25.4324 109.592 24.2872 107.831 24.2872C105.937 24.2872 104.615 25.6526 104.615 27.8109V35.8275H100.827V27.7228C100.827 25.5645 99.6818 24.2872 97.8759 24.2872C96.0259 24.2872 94.6605 25.6526 94.6605 27.8109V35.8275H90.8724V21.2039H94.5724V23.3181C95.4093 21.7765 97.1271 20.8074 99.0211 20.8074C100.871 20.8074 102.545 21.6884 103.338 23.4062C104.395 21.7765 106.421 20.8074 108.579 20.8074C110.385 20.8074 111.795 21.336 112.896 22.4372ZM144.302 31.5109C145.05 30.7181 145.447 29.705 145.447 28.5157C145.447 27.3264 145.05 26.3574 144.302 25.5205C143.553 24.7276 142.584 24.3312 141.35 24.3312C140.161 24.3312 139.192 24.7276 138.443 25.5205C137.695 26.3133 137.298 27.3264 137.298 28.5157C137.298 29.705 137.695 30.674 138.443 31.5109C139.192 32.3038 140.161 32.7002 141.35 32.7002C142.584 32.7442 143.553 32.3038 144.302 31.5109ZM147.209 23.0538C148.574 24.5514 149.235 26.3574 149.235 28.5157C149.235 30.674 148.53 32.4799 147.165 33.9775C145.799 35.4311 144.081 36.2239 142.011 36.2239C140.205 36.2239 138.531 35.4311 137.43 34.0656V41.906H133.642V21.2479H137.386V23.186C138.576 21.6884 140.205 20.8955 142.055 20.8955C144.125 20.8515 145.843 21.6003 147.209 23.0538ZM158.485 32.7002C159.63 32.7002 160.599 32.3038 161.348 31.5109C162.141 30.674 162.537 29.705 162.537 28.5157C162.537 27.3705 162.141 26.3574 161.348 25.5645C160.555 24.7717 159.63 24.3753 158.485 24.3753C157.34 24.3753 156.371 24.7717 155.578 25.5645C154.785 26.3574 154.432 27.3705 154.432 28.5157C154.432 29.6609 154.829 30.674 155.578 31.5109C156.327 32.3038 157.296 32.7002 158.485 32.7002ZM152.803 23.0538C154.3 21.5562 156.15 20.8074 158.441 20.8074C160.731 20.8074 162.625 21.5562 164.079 23.0538C165.576 24.5514 166.281 26.3574 166.281 28.5157C166.281 30.674 165.576 32.524 164.079 33.9775C162.581 35.4311 160.731 36.2239 158.441 36.2239C156.15 36.2239 154.256 35.4751 152.803 33.9775C151.305 32.4799 150.6 30.674 150.6 28.5157C150.6 26.3574 151.349 24.5514 152.803 23.0538ZM177.029 21.2039H180.817V35.8275H177.029V30.8942C175.928 31.5109 174.738 31.8633 173.769 31.8633C172.007 31.8633 170.73 31.555 169.585 30.7621C168.439 29.9252 167.779 28.3836 167.779 26.1371V21.2039H171.567V25.8288C171.567 27.5467 172.448 28.4276 174.21 28.4276C175.223 28.4276 176.06 28.2955 177.029 27.899V21.2039ZM193.326 35.8275L187.468 29.0883V35.8275H183.68V21.1598H187.468V26.974L192.798 21.2039H197.599L191.08 27.9871L197.995 35.8275H193.326Z" fill="#3E3E3E"/>
<path fill-rule="evenodd" clip-rule="evenodd" d="M207.994 25.5205C207.201 24.6836 206.232 24.2872 205.043 24.2872C203.853 24.2872 202.884 24.6836 202.092 25.5205C201.343 26.3574 200.946 27.3264 200.946 28.5157C200.946 29.705 201.343 30.674 202.092 31.5109C202.884 32.3478 203.853 32.7442 205.043 32.7442C206.232 32.7442 207.201 32.3478 207.994 31.5109C208.787 30.674 209.183 29.705 209.183 28.5157C209.183 27.3705 208.787 26.3574 207.994 25.5205ZM209.095 21.2039H212.707V35.8275H209.095V33.8895C207.818 35.4311 206.276 36.1799 204.426 36.1799C202.312 36.1799 200.594 35.4751 199.228 33.9775C197.863 32.4799 197.202 30.63 197.202 28.4276C197.202 26.2252 197.907 24.4193 199.273 22.9657C200.638 21.5122 202.4 20.8074 204.47 20.8074C206.32 20.8074 207.906 21.6443 209.139 23.0979V21.2039H209.095ZM125.097 17.5479C125.097 16.2706 126.11 15.3456 127.388 15.3456C128.665 15.3456 129.634 16.3587 129.634 17.5479C129.634 18.8694 128.665 19.8384 127.388 19.8384C126.066 19.7944 125.097 18.8253 125.097 17.5479ZM120.428 27.0181H127.872C127.52 25.1241 126.154 23.9788 124.216 23.9788C122.278 23.9788 120.869 25.1241 120.428 27.0181ZM121.529 15.3456C122.807 15.3456 123.776 16.3587 123.776 17.5479C123.776 18.8694 122.807 19.8384 121.529 19.8384C120.252 19.8384 119.283 18.8694 119.283 17.5479C119.239 16.3146 120.252 15.3456 121.529 15.3456ZM131.396 29.8371H120.384C120.913 31.9073 122.366 32.9645 124.657 32.9645C126.242 32.9645 128.004 32.3919 129.37 31.2907L130.911 33.6692C129.061 35.3871 126.947 36.1359 124.524 36.1359C121.926 36.1359 119.988 35.3871 118.622 33.8895C117.257 32.3918 116.596 30.5859 116.596 28.4716C116.596 26.2252 117.301 24.4193 118.71 22.9657C120.12 21.5122 121.97 20.8074 124.216 20.8074C126.33 20.8074 128.136 21.4681 129.502 22.7896C130.867 24.111 131.572 25.8729 131.572 28.1633C131.528 28.6919 131.484 29.2645 131.396 29.8371Z" fill="#3E3E3E"/>
<path d="M31.2229 48.9299C44.5112 45.8183 52.7611 32.5236 49.6495 19.2353C46.5379 5.94702 33.2432 -2.30286 19.9549 0.80871C6.66662 3.92028 -1.58325 17.215 1.52831 30.5033C4.63988 43.7916 17.9346 52.0415 31.2229 48.9299Z" fill="white"/>
<path fill-rule="evenodd" clip-rule="evenodd" d="M38.0598 7.10876C36.1658 11.9539 31.8932 12.967 25.6385 12.967C24.9778 12.967 24.3171 12.967 23.6564 12.967C23.0397 12.967 22.4671 12.967 21.8945 12.967C21.3659 12.967 20.8814 12.967 20.3529 13.0111C21.2338 10.8528 22.5993 9.39922 24.5814 8.51827C27.3564 7.28495 30.9242 7.28496 34.0956 7.28496C35.5491 7.24091 36.8706 7.2409 38.0598 7.10876Z" fill="#3E3E3E"/>
<path fill-rule="evenodd" clip-rule="evenodd" d="M39.9979 8.69446C37.2229 14.773 30.9682 15.3896 25.6385 15.3896C24.4493 15.3896 23.3481 15.3456 22.2909 15.3456L20.9695 20.5872C27.8409 14.9932 36.9587 20.5432 35.9896 29.0002C35.3289 34.6823 31.2766 38.4263 26.9599 39.4834C22.2909 40.6727 17.0934 38.9108 14.7589 34.1537C14.4946 33.6692 14.0982 32.6561 13.922 32.0835L18.8553 30.8062C18.9434 31.0704 19.0755 31.3788 19.2517 31.599C22.5552 36.9287 29.2504 34.2859 29.9992 28.7359C30.748 23.0979 22.8636 20.1027 19.2957 26.7098L14.9351 24.8598L14.847 24.8157L16.9612 16.3587C17.0934 15.742 17.5338 14.0682 17.6219 13.8039C20.0005 5.03854 27.7087 4.90641 33.9194 4.86236C31.3647 3.80523 28.5456 3.18856 25.5945 3.18856C13.6136 3.18856 3.92326 12.8789 3.92326 24.8598C3.92326 36.8406 13.6136 46.531 25.5945 46.531C37.5753 46.531 47.2657 36.8406 47.2657 24.8598C47.2657 18.4289 44.4467 12.6587 39.9979 8.69446Z" fill="#3E3E3E"/>
</svg>
