<svg width="191" height="58" viewBox="0 0 191 58" fill="none" xmlns="http://www.w3.org/2000/svg">
<path fill-rule="evenodd" clip-rule="evenodd" d="M47.2879 49.0918L41.8424 39.9829L36.4959 49.0918H30.0603L38.2781 35.379L29.9118 22.6563H36.5949L41.9909 31.1711L47.0899 22.6563H53.5255L45.2583 35.7751L53.7731 49.0918H47.2879Z" fill="#3E3E3E"/>
<path fill-rule="evenodd" clip-rule="evenodd" d="M74.6145 40.082C74.6145 45.874 70.2581 49.4878 64.5156 49.4878C59.4661 49.4878 55.2087 46.7156 54.8126 40.6265H60.2582C60.6542 43.2503 62.7334 44.3889 65.0601 44.3889C67.9314 44.3889 69.169 42.4582 69.169 39.9829C69.169 37.3592 67.2383 35.7751 64.5651 35.7751C62.3374 35.7751 60.8522 36.8146 60.2087 37.9533H54.9612L56.7928 22.6563H73.9709L73.3769 27.8048H61.0502L60.5552 32.8543C60.5552 32.8543 61.8423 31.3196 65.7532 31.3196C70.5056 31.3691 74.6145 34.5374 74.6145 40.082Z" fill="#3E3E3E"/>
<path fill-rule="evenodd" clip-rule="evenodd" d="M55.4067 19.389C52.4859 8.05245 43.2286 0.0327148 24.0703 0.0327148H0.9021L4.0704 21.2702C6.44662 40.478 13.7733 46.6166 26.7435 48.8938C26.793 48.8938 27.2386 48.9433 27.2386 48.4977C27.2386 48.3492 27.1396 48.1512 26.991 48.1017C18.2287 44.3889 17.1891 32.3097 15.3575 20.1316L13.9218 10.4287H27.1396C39.3177 10.4287 48.7236 10.2307 54.7136 19.6365C54.8126 19.7851 54.9612 19.8841 55.1097 19.8841C55.3572 19.8841 55.5057 19.686 55.5057 19.488C55.4067 19.4385 55.4067 19.4385 55.4067 19.389Z" fill="#3E3E3E"/>
<path fill-rule="evenodd" clip-rule="evenodd" d="M79.1689 35.8741C79.1689 27.6563 85.1095 21.7652 93.4263 21.7652C98.9708 21.7652 103.971 24.983 105.456 29.389L102.337 30.4286C101.198 27.1117 97.4856 24.7355 93.4263 24.7355C87.0897 24.7355 82.5848 29.3395 82.5848 35.8741C82.5848 42.3097 87.1392 47.0126 93.4263 47.0126C99.1193 47.0126 103.624 42.9532 103.773 37.6067L90.654 37.5572V34.5374H107.189C107.733 43.5473 101.991 49.9829 93.4263 49.9829C85.159 50.0324 79.1689 44.0423 79.1689 35.8741Z" fill="#3E3E3E"/>
<path fill-rule="evenodd" clip-rule="evenodd" d="M114.317 30.181V32.7058H114.664C115.505 30.9731 117.634 29.785 119.713 29.785C120.555 29.785 121.495 29.983 122.04 30.28V33.1513C121.05 32.7553 119.961 32.6068 119.218 32.6068C116.347 32.6068 114.367 35.1315 114.367 38.8939V49.0918H111.248V30.181H114.317Z" fill="#3E3E3E"/>
<path fill-rule="evenodd" clip-rule="evenodd" d="M141 39.5869C141 35.3295 138.03 32.2107 133.971 32.2107C129.862 32.2107 126.941 35.3295 126.941 39.5869C126.941 43.8938 129.862 47.0126 133.971 47.0126C138.03 47.0126 141 43.8938 141 39.5869ZM123.773 39.5869C123.773 33.6464 127.981 29.389 133.921 29.389C139.862 29.389 144.07 33.5969 144.07 39.5869C144.07 45.577 139.862 49.8344 133.921 49.8344C127.981 49.8344 123.773 45.577 123.773 39.5869Z" fill="#3E3E3E"/>
<path fill-rule="evenodd" clip-rule="evenodd" d="M161.891 49.0918V46.5176H161.545C160.258 48.5968 158.079 49.7849 155.604 49.7849C150.753 49.7849 147.733 46.3195 147.733 41.4681V30.181H150.852V41.4681C150.852 44.6859 152.733 46.9631 156 46.9631C159.168 46.9631 161.941 44.5374 161.941 41.1711V30.181H165.059V49.0918H161.891Z" fill="#3E3E3E"/>
<path fill-rule="evenodd" clip-rule="evenodd" d="M172.98 39.5869C172.98 43.7453 175.95 47.0126 180.01 47.0126C184.069 47.0126 186.99 43.7453 186.99 39.5869C186.99 35.379 184.02 32.2107 180.01 32.2107C175.95 32.2107 172.98 35.4285 172.98 39.5869ZM190.158 39.5869C190.158 45.5275 185.901 49.8344 180.406 49.8344C177.386 49.8344 174.812 48.5473 173.426 46.27H173.079V57.7056H169.96V30.181H173.079V33.0523H173.426C174.812 30.7751 177.238 29.4385 180.356 29.4385C185.901 29.389 190.158 33.6959 190.158 39.5869Z" fill="#3E3E3E"/>
</svg>
