<svg width="258" height="58" viewBox="0 0 258 58" fill="none" xmlns="http://www.w3.org/2000/svg">
<path d="M28.8367 38.1796L57.6733 57.6732V19.4935L28.8367 0V38.1796Z" fill="#262626"/>
<path d="M0 28.8366C0 44.7544 12.9188 57.6732 28.8366 57.6732V0C12.9188 0 0 12.9188 0 28.8366ZM57.6732 0V57.6732C73.591 57.6732 86.5098 44.7544 86.5098 28.8366C86.5098 12.9188 73.591 0 57.6732 0Z" fill="#3E3E3E"/>
<path d="M172.848 29.0373L166.702 19.2029H161.272V38.4035H167.124V28.7547L173.204 38.4035H178.635V19.2017H172.847L172.848 29.0373ZM133.825 18.8892H130.799C126.803 18.8892 123.533 21.7371 123.533 26.1571V31.5161C123.533 35.957 126.803 38.7841 130.799 38.7841H133.825C137.822 38.7841 141.094 35.9281 141.094 31.5161V26.1571C141.094 21.5041 137.822 18.8892 133.825 18.8892ZM134.89 31.9452C134.888 32.5581 134.644 33.1455 134.21 33.5789C133.777 34.0122 133.19 34.2564 132.577 34.2579H132.049C131.436 34.2558 130.849 34.0114 130.416 33.578C129.984 33.1447 129.74 32.5577 129.738 31.9452V25.7223C129.738 24.4489 130.779 23.4073 132.049 23.4073H132.577C133.849 23.4073 134.89 24.4477 134.89 25.7223V31.9452ZM181.335 38.4035H187.513V19.2017H181.335V38.4035ZM250.43 33.2198V19.2017H244.254V38.4023H257.745V33.2198H250.43ZM199.643 18.8892H196.873C192.878 18.8892 189.608 21.7371 189.608 26.1571V31.5161C189.608 35.957 192.878 38.7841 196.873 38.7841H199.643C203.642 38.7841 206.911 35.9281 206.911 31.5161V31.2716H200.707V31.9452C200.705 32.5584 200.461 33.1459 200.027 33.5793C199.593 34.0127 199.006 34.2567 198.392 34.2579H198.124C197.511 34.2561 196.924 34.0118 196.491 33.5784C196.058 33.145 195.814 32.5578 195.813 31.9452V25.7223C195.813 24.4489 196.851 23.4073 198.124 23.4073H198.392C199.666 23.4073 200.707 24.4477 200.707 25.7223V26.6566H206.911V26.1571C206.911 21.5041 203.642 18.8892 199.643 18.8892ZM159.509 26.2529V25.3255C159.509 21.4072 156.237 19.2029 152.242 19.2029L143.19 19.2017V38.4023H149.28V32.7157H151.098L153.661 38.4023H160.064L156.482 31.3708C158.312 30.3661 159.509 28.6221 159.509 26.2529ZM153.5 26.0314C153.5 26.7304 153.144 28.291 151.359 28.291H149.281V23.5065H151.611C152.235 23.5065 153.501 24.2262 153.501 25.7257V26.0314H153.5ZM115.584 28.8528L109.242 19.2029H103.812V38.4035H109.666V28.6717L116.007 38.4035H121.438V19.2017H115.584V28.8528ZM234.075 31.1193H241.037V26.5528H234.075V24.2112H241.667V19.2017H227.898V38.4023H242.233V33.3905H234.075V31.1193ZM226.418 19.2017H219.735L216.476 26.4628H214.951V19.2017H208.773V38.4023H214.951V31.5819H216.468L219.799 38.4035H226.889L221.653 28.7178L226.418 19.2017Z" fill="#3E3E3E"/>
</svg>
