<svg width="32" height="32" viewBox="0 0 32 32" fill="none" xmlns="http://www.w3.org/2000/svg">
<path fill-rule="evenodd" clip-rule="evenodd" d="M8 15.9993C8 15.7341 8.10536 15.4797 8.29289 15.2922C8.48043 15.1047 8.73478 14.9993 9 14.9993H20.586L16.292 10.7073C16.1042 10.5195 15.9987 10.2649 15.9987 9.99931C15.9987 9.73376 16.1042 9.47908 16.292 9.29131C16.4798 9.10354 16.7344 8.99805 17 8.99805C17.2656 8.99805 17.5202 9.10354 17.708 9.29131L23.708 15.2913C23.8011 15.3842 23.875 15.4946 23.9254 15.616C23.9758 15.7375 24.0018 15.8678 24.0018 15.9993C24.0018 16.1308 23.9758 16.2611 23.9254 16.3826C23.875 16.5041 23.8011 16.6144 23.708 16.7073L17.708 22.7073C17.5202 22.8951 17.2656 23.0006 17 23.0006C16.7344 23.0006 16.4798 22.8951 16.292 22.7073C16.1042 22.5195 15.9987 22.2649 15.9987 21.9993C15.9987 21.7338 16.1042 21.4791 16.292 21.2913L20.586 16.9993H9C8.73478 16.9993 8.48043 16.894 8.29289 16.7064C8.10536 16.5189 8 16.2645 8 15.9993Z"/>
</svg>
