<svg width="16" height="16" viewBox="0 0 16 16" fill="none" xmlns="http://www.w3.org/2000/svg">
<path d="M1.17105 1.99697C1.11682 1.94274 1.0738 1.87835 1.04446 1.8075C1.01511 1.73664 1 1.6607 1 1.58401C1 1.50732 1.01511 1.43137 1.04446 1.36052C1.0738 1.28966 1.11682 1.22528 1.17105 1.17105C1.22528 1.11682 1.28966 1.0738 1.36052 1.04446C1.43137 1.01511 1.50732 1 1.58401 1C1.6607 1 1.73664 1.01511 1.8075 1.04446C1.87835 1.0738 1.94274 1.11682 1.99697 1.17105L8 7.17525L14.003 1.17105C14.0573 1.11682 14.1216 1.0738 14.1925 1.04446C14.2634 1.01511 14.3393 1 14.416 1C14.4927 1 14.5686 1.01511 14.6395 1.04446C14.7103 1.0738 14.7747 1.11682 14.8289 1.17105C14.8832 1.22528 14.9262 1.28966 14.9555 1.36052C14.9849 1.43137 15 1.50732 15 1.58401C15 1.6607 14.9849 1.73664 14.9555 1.8075C14.9262 1.87835 14.8832 1.94274 14.8289 1.99697L8.82475 8L14.8289 14.003C14.8832 14.0573 14.9262 14.1216 14.9555 14.1925C14.9849 14.2634 15 14.3393 15 14.416C15 14.4927 14.9849 14.5686 14.9555 14.6395C14.9262 14.7103 14.8832 14.7747 14.8289 14.8289C14.7747 14.8832 14.7103 14.9262 14.6395 14.9555C14.5686 14.9849 14.4927 15 14.416 15C14.3393 15 14.2634 14.9849 14.1925 14.9555C14.1216 14.9262 14.0573 14.8832 14.003 14.8289L8 8.82475L1.99697 14.8289C1.94274 14.8832 1.87835 14.9262 1.8075 14.9555C1.73664 14.9849 1.6607 15 1.58401 15C1.50732 15 1.43137 14.9849 1.36052 14.9555C1.28966 14.9262 1.22528 14.8832 1.17105 14.8289C1.11682 14.7747 1.0738 14.7103 1.04446 14.6395C1.01511 14.5686 1 14.4927 1 14.416C1 14.3393 1.01511 14.2634 1.04446 14.1925C1.0738 14.1216 1.11682 14.0573 1.17105 14.003L7.17525 8L1.17105 1.99697Z" fill="white"/>
</svg>
