<svg width="25" height="24" viewBox="0 0 25 24" fill="none" xmlns="http://www.w3.org/2000/svg">
<path d="M18.5759 1.55399L22.7489 5.90399V22.446H7.16016V22.5H22.8022V5.95874L18.5759 1.55399Z" fill="#940000"/>
<path d="M18.5227 1.5H7.10547V22.446H22.7475V5.90475L18.5227 1.5Z" fill="#F4F4F4"/>
<path d="M6.99172 2.625H2.19922V7.74525H17.2742V2.625H6.99172Z" fill="#7A7B7C"/>
<path d="M17.3546 7.65824H2.29688V2.53424H17.3546V7.65824Z" fill="#DD2025"/>
<path d="M7.28884 3.40051H7.26634H7.11109H6.30859V7.00051H7.07959V5.78626L7.24984 5.79601C7.41527 5.79317 7.57915 5.76353 7.73509 5.70826C7.87182 5.66124 7.9976 5.58699 8.10484 5.49001C8.21397 5.39763 8.3 5.28103 8.35609 5.14951C8.43132 4.93089 8.45818 4.69854 8.43484 4.46851C8.43016 4.30419 8.40135 4.14145 8.34934 3.98551C8.302 3.87294 8.23174 3.77146 8.14303 3.68753C8.05432 3.6036 7.94911 3.53906 7.83409 3.49801C7.73465 3.46201 7.63191 3.43589 7.52734 3.42001C7.44816 3.4078 7.36821 3.40128 7.28809 3.40051M7.14634 5.12101H7.07959V4.01101H7.22434C7.28823 4.00641 7.35233 4.01621 7.41192 4.03971C7.4715 4.06321 7.52505 4.09979 7.56859 4.14676C7.65883 4.26752 7.70704 4.41452 7.70584 4.56526C7.70584 4.74976 7.70584 4.91701 7.53934 5.03476C7.41939 5.10074 7.28286 5.13119 7.14634 5.12101Z" fill="#464648"/>
<path d="M9.89881 3.39074C9.81556 3.39074 9.73456 3.39674 9.67756 3.39899L9.49906 3.40349H8.91406V7.00349H9.60256C9.86568 7.0107 10.1277 6.9661 10.3736 6.87224C10.5715 6.79373 10.7468 6.66717 10.8836 6.50399C11.0166 6.33933 11.1121 6.14761 11.1633 5.94224C11.2222 5.70964 11.251 5.47042 11.2488 5.23049C11.2634 4.9471 11.2414 4.66303 11.1836 4.38524C11.1286 4.18076 11.0258 3.99231 10.8836 3.83549C10.772 3.70886 10.6353 3.60671 10.4823 3.53549C10.3509 3.47467 10.2127 3.42985 10.0706 3.40199C10.0141 3.39265 9.95683 3.38838 9.89956 3.38924M9.76306 6.34199H9.68806V4.04399H9.69781C9.85243 4.0262 10.0089 4.05409 10.1478 4.12424C10.2496 4.20548 10.3325 4.30784 10.3908 4.42424C10.4538 4.54674 10.4901 4.68119 10.4973 4.81874C10.5041 4.98374 10.4973 5.11874 10.4973 5.23049C10.5004 5.35921 10.4921 5.48796 10.4726 5.61524C10.4494 5.74591 10.4067 5.87234 10.3458 5.99024C10.2769 6.09985 10.1837 6.19222 10.0736 6.26024C9.98103 6.32008 9.87145 6.34801 9.76156 6.33974" fill="#464648"/>
<path d="M13.5725 3.4035H11.75V7.0035H12.521V5.5755H13.496V4.9065H12.521V4.0725H13.571V3.4035" fill="#464648"/>
<path d="M16.8365 15.1913C16.8365 15.1913 19.2275 14.7578 19.2275 15.5745C19.2275 16.3913 17.7462 16.059 16.8365 15.1913ZM15.0687 15.2535C14.6889 15.3374 14.3187 15.4603 13.964 15.6203L14.264 14.9453C14.564 14.2703 14.8752 13.35 14.8752 13.35C15.2332 13.9525 15.6497 14.5182 16.1187 15.039C15.7651 15.0917 15.4145 15.1639 15.0687 15.255V15.2535ZM14.1222 10.3785C14.1222 9.66676 14.3525 9.47251 14.5317 9.47251C14.711 9.47251 14.9127 9.55876 14.9195 10.1768C14.8611 10.7982 14.731 11.4108 14.5317 12.0023C14.2588 11.5056 14.1176 10.9474 14.1215 10.3808L14.1222 10.3785ZM10.6355 18.2655C9.90199 17.8268 12.1737 16.476 12.5855 16.4325C12.5832 16.4333 11.4035 18.7245 10.6355 18.2655ZM19.9257 15.6713C19.9182 15.5963 19.8507 14.766 18.3732 14.8013C17.7574 14.7913 17.1419 14.8347 16.5335 14.931C15.9442 14.3373 15.4367 13.6677 15.0245 12.9398C15.2842 12.1893 15.4414 11.4073 15.4917 10.6148C15.47 9.71476 15.2547 9.19876 14.5647 9.20626C13.8747 9.21376 13.7742 9.81751 13.865 10.716C13.9539 11.3198 14.1216 11.9093 14.3637 12.4695C14.3637 12.4695 14.045 13.4618 13.6235 14.4488C13.202 15.4358 12.914 15.9533 12.914 15.9533C12.181 16.1919 11.491 16.5464 10.8702 17.0033C10.2522 17.5785 10.001 18.0203 10.3265 18.462C10.607 18.843 11.5887 18.9293 12.4662 17.7795C12.9325 17.1857 13.3584 16.5613 13.7412 15.9105C13.7412 15.9105 15.0792 15.5438 15.4955 15.4433C15.9117 15.3428 16.415 15.2633 16.415 15.2633C16.415 15.2633 17.6367 16.4925 18.815 16.449C19.9932 16.4055 19.9362 15.7448 19.9287 15.6728" fill="#DD2025"/>
<path d="M18.4648 1.55774V5.96249H22.6896L18.4648 1.55774Z" fill="#909090"/>
<path d="M18.5234 1.5V5.90475H22.7482L18.5234 1.5Z" fill="#F4F4F4"/>
<path d="M7.2322 3.34274H7.2097H7.05445H6.25195V6.94274H7.02595V5.72924L7.19695 5.73899C7.36238 5.73615 7.52625 5.70651 7.6822 5.65124C7.81892 5.6042 7.9447 5.52996 8.05195 5.43299C8.16026 5.34036 8.24551 5.22378 8.30095 5.09249C8.37617 4.87387 8.40304 4.64152 8.3797 4.41149C8.37502 4.24717 8.34621 4.08444 8.2942 3.92849C8.24686 3.81592 8.1766 3.71444 8.08789 3.63051C7.99918 3.54658 7.89397 3.48204 7.77895 3.44099C7.67905 3.40464 7.5758 3.37826 7.4707 3.36224C7.39152 3.35003 7.31157 3.34351 7.23145 3.34274M7.0897 5.06324H7.02295V3.95324H7.16845C7.23234 3.94864 7.29644 3.95844 7.35603 3.98194C7.41561 4.00544 7.46916 4.04202 7.5127 4.08899C7.60294 4.20975 7.65115 4.35675 7.64995 4.50749C7.64995 4.69199 7.64995 4.85924 7.48345 4.97699C7.3635 5.04297 7.22697 5.07267 7.09045 5.06249" fill="white"/>
<path d="M9.84188 3.333C9.75863 3.333 9.67763 3.339 9.62063 3.34125L9.44437 3.34575H8.85938V6.94575H9.54788C9.81099 6.95296 10.073 6.90836 10.3189 6.8145C10.5168 6.73599 10.6921 6.60943 10.8289 6.44625C10.9619 6.28159 11.0574 6.08988 11.1086 5.8845C11.1675 5.6519 11.1963 5.41268 11.1941 5.17275C11.2087 4.88936 11.1867 4.60529 11.1289 4.3275C11.074 4.12302 10.9711 3.93457 10.8289 3.77775C10.7173 3.65112 10.5807 3.54897 10.4276 3.47775C10.2962 3.41693 10.158 3.37211 10.0159 3.34425C9.95937 3.33491 9.90214 3.33065 9.84488 3.3315M9.70837 6.28425H9.63338V3.98625H9.64312C9.79774 3.96846 9.95419 3.99636 10.0931 4.0665C10.1949 4.14774 10.2778 4.2501 10.3361 4.3665C10.3991 4.489 10.4354 4.62345 10.4426 4.761C10.4494 4.926 10.4426 5.061 10.4426 5.17275C10.4457 5.30147 10.4374 5.43022 10.4179 5.5575C10.3948 5.68817 10.352 5.8146 10.2911 5.9325C10.2222 6.04211 10.1291 6.13448 10.0189 6.2025C9.92634 6.26235 9.81677 6.29027 9.70688 6.282" fill="white"/>
<path d="M13.5139 3.34576H11.6914V6.94576H12.4624V5.51776H13.4374V4.84876H12.4624V4.01476H13.5124V3.34576" fill="white"/>
</svg>
