<svg width="16" height="17" viewBox="0 0 16 17" fill="none" xmlns="http://www.w3.org/2000/svg">
<path fill-rule="evenodd" clip-rule="evenodd" d="M6.00006 16.168C6.00006 16.168 12.0001 10.482 12.0001 6.16797C12.0001 4.57667 11.3679 3.05055 10.2427 1.92533C9.11748 0.80011 7.59136 0.167969 6.00006 0.167969C4.40876 0.167969 2.88264 0.80011 1.75742 1.92533C0.632202 3.05055 6.10589e-05 4.57667 6.10352e-05 6.16797C6.10352e-05 10.482 6.00006 16.168 6.00006 16.168ZM6.00006 9.16797C6.79571 9.16797 7.55877 8.8519 8.12138 8.28929C8.68399 7.72668 9.00006 6.96362 9.00006 6.16797C9.00006 5.37232 8.68399 4.60926 8.12138 4.04665C7.55877 3.48404 6.79571 3.16797 6.00006 3.16797C5.20441 3.16797 4.44135 3.48404 3.87874 4.04665C3.31613 4.60926 3.00006 5.37232 3.00006 6.16797C3.00006 6.96362 3.31613 7.72668 3.87874 8.28929C4.44135 8.8519 5.20441 9.16797 6.00006 9.16797Z" fill="#3AAA35"/>
</svg>
