<svg width="36" height="37" viewBox="0 0 36 37" fill="none" xmlns="http://www.w3.org/2000/svg">
<path d="M18 0.167969C13.2261 0.167969 8.64773 2.06439 5.27208 5.44005C1.89642 8.8157 0 13.3941 0 18.168C0 22.9419 1.89642 27.5202 5.27208 30.8959C8.64773 34.2715 13.2261 36.168 18 36.168C22.7739 36.168 27.3523 34.2715 30.7279 30.8959C34.1036 27.5202 36 22.9419 36 18.168C36 13.3941 34.1036 8.8157 30.7279 5.44005C27.3523 2.06439 22.7739 0.167969 18 0.167969Z" fill="#26A2E0"/>
<path d="M26.1757 10.5977L23.1906 25.8387C23.1906 25.8387 23.0623 26.5352 22.1985 26.5352C21.7395 26.5352 21.5029 26.3168 21.5029 26.3168L15.037 20.9515L11.8734 19.3569L7.81334 18.2771C7.81334 18.2771 7.09058 18.0684 7.09058 17.4707C7.09058 16.9727 7.83406 16.7352 7.83406 16.7352L24.8202 9.98725C24.8202 9.98725 25.339 9.79999 25.7175 9.80078C25.9502 9.80078 26.2156 9.90039 26.2156 10.1992C26.2156 10.3984 26.1757 10.5977 26.1757 10.5977Z" fill="white"/>
<path d="M17.449 22.9526L14.7189 25.6412C14.7189 25.6412 14.6002 25.7329 14.4416 25.7368C14.3866 25.7384 14.3277 25.7297 14.2671 25.7026L15.0353 20.9492L17.449 22.9526Z" fill="#B0BEC5"/>
<path d="M22.946 13.1444C22.8113 12.9691 22.5627 12.9372 22.3874 13.0703L11.8718 19.3632C11.8718 19.3632 13.55 24.0584 13.8058 24.8712C14.0624 25.6848 14.268 25.7039 14.268 25.7039L15.0362 20.9506L22.8711 13.7022C23.0464 13.5691 23.0791 13.3197 22.946 13.1444Z" fill="#CFD8DC"/>
</svg>
