<svg width="16" height="17" viewBox="0 0 16 17" fill="none" xmlns="http://www.w3.org/2000/svg">
<path d="M6.00023 1.07031C6.00023 0.937704 6.05291 0.810527 6.14667 0.716759C6.24044 0.622991 6.36762 0.570313 6.50023 0.570312H9.50023C9.63284 0.570313 9.76001 0.622991 9.85378 0.716759C9.94755 0.810527 10.0002 0.937704 10.0002 1.07031C10.0002 1.20292 9.94755 1.3301 9.85378 1.42387C9.76001 1.51763 9.63284 1.57031 9.50023 1.57031H9.00023V2.64031C10.362 2.83689 11.6357 3.43038 12.6622 4.34665C13.6886 5.26291 14.4223 6.46133 14.7716 7.79217C15.1209 9.12301 15.0704 10.5273 14.6262 11.8295C14.182 13.1318 13.364 14.2743 12.2742 15.1143L12.8752 15.7163C12.9691 15.8101 13.0219 15.9373 13.022 16.07C13.0221 16.2026 12.9695 16.3299 12.8757 16.4238C12.782 16.5177 12.6548 16.5705 12.5221 16.5706C12.3894 16.5707 12.2621 16.5181 12.1682 16.4243L11.4222 15.6783C10.3772 16.2649 9.19861 16.5721 8.00023 16.5703C6.80185 16.5721 5.62324 16.2649 4.57823 15.6783L3.83223 16.4243C3.78574 16.4707 3.73056 16.5075 3.66985 16.5326C3.60913 16.5577 3.54407 16.5706 3.47837 16.5706C3.41268 16.5705 3.34763 16.5576 3.28695 16.5324C3.22627 16.5072 3.17115 16.4703 3.12473 16.4238C3.07831 16.3773 3.04149 16.3221 3.0164 16.2614C2.9913 16.2007 2.9784 16.1357 2.97845 16.07C2.97854 15.9373 3.03134 15.8101 3.12523 15.7163L3.72723 15.1143C2.63751 14.2744 1.81945 13.1319 1.37523 11.8298C0.931014 10.5276 0.880332 9.12337 1.22952 7.79256C1.57871 6.46174 2.31228 5.26331 3.33861 4.34698C4.36493 3.43065 5.6385 2.83705 7.00023 2.64031V1.57031H6.50023C6.36762 1.57031 6.24044 1.51763 6.14667 1.42387C6.05291 1.3301 6.00023 1.20292 6.00023 1.07031ZM8.50023 6.07031C8.50023 5.9377 8.44755 5.81053 8.35378 5.71676C8.26001 5.62299 8.13284 5.57031 8.00023 5.57031C7.86762 5.57031 7.74044 5.62299 7.64667 5.71676C7.55291 5.81053 7.50023 5.9377 7.50023 6.07031V9.43231L6.07123 11.8123C6.00293 11.9261 5.98264 12.0623 6.0148 12.1911C6.04696 12.3198 6.12895 12.4305 6.24273 12.4988C6.35651 12.5671 6.49275 12.5874 6.6215 12.5552C6.75024 12.5231 6.86093 12.4411 6.92923 12.3273L8.42923 9.82731C8.47572 9.74965 8.50026 9.66083 8.50023 9.57031V6.07031ZM0.860227 5.95731C0.601487 5.73225 0.391817 5.45636 0.244256 5.1468C0.0966952 4.83724 0.0143991 4.50063 0.00248571 4.15791C-0.0094277 3.81519 0.0492963 3.47368 0.175006 3.15462C0.300715 2.83557 0.490722 2.54578 0.73321 2.30329C0.975697 2.06081 1.26548 1.8708 1.58454 1.74509C1.9036 1.61938 2.2451 1.56066 2.58783 1.57257C2.93055 1.58448 3.26716 1.66678 3.57671 1.81434C3.88627 1.9619 4.16216 2.17157 4.38723 2.43031C2.86718 3.20206 1.63197 4.43726 0.860227 5.95731ZM11.6132 2.43031C11.8383 2.17157 12.1142 1.9619 12.4237 1.81434C12.7333 1.66678 13.0699 1.58448 13.4126 1.57257C13.7554 1.56066 14.0969 1.61938 14.4159 1.74509C14.735 1.8708 15.0248 2.06081 15.2672 2.30329C15.5097 2.54578 15.6997 2.83557 15.8254 3.15462C15.9512 3.47368 16.0099 3.81519 15.998 4.15791C15.9861 4.50063 15.9038 4.83724 15.7562 5.1468C15.6086 5.45636 15.399 5.73225 15.1402 5.95731C14.3685 4.43726 13.1333 3.20206 11.6132 2.43031Z" fill="#3AAA35"/>
</svg>
