<svg width="193" height="57" viewBox="0 0 193 57" fill="none" xmlns="http://www.w3.org/2000/svg">
<path d="M1.23279 47.4654C5.25362 38.6359 9.33531 29.8067 13.4468 21.0381C16.1072 15.7286 20.8841 6.26207 23.6051 0.800483L23.8468 0.284912C62.9379 0.315226 132.957 0.284912 171.383 0.284912C177.491 0.284912 186.228 0.70954 192.395 0.831025L193 0.86134L192.698 1.37714C191.186 4.01676 188.949 8.0219 187.377 10.6918L189.705 5.86753C190.491 4.25951 191.277 2.65148 192.063 1.04345L192.395 1.58957C186.198 1.74114 177.491 2.13591 171.414 2.13591C133.532 2.10559 62.9683 2.13591 24.4516 2.13591L25.2678 1.62011L19.4632 13.1801C13.7493 24.8308 7.40053 36.1178 1.23279 47.4654Z" fill="#339933"/>
<path d="M93.7879 29.132C93.7879 31.7436 93.0189 34.1478 91.4516 36.3735C89.8843 38.5994 87.8734 40.1129 85.4485 40.9738C84.1474 41.4189 82.8462 41.6564 81.5156 41.6564L71.9341 41.6562V16.6378H81.5156C83.8517 16.6378 86.0104 17.2905 88.0212 18.5966C89.9731 19.8727 91.4813 21.5644 92.5458 23.7012C93.3739 25.4522 93.7879 27.2624 93.7879 29.132ZM87.0749 29.132C87.0749 27.4107 86.6018 25.8971 85.6259 24.6211C84.3543 22.9295 82.4322 22.0688 79.889 22.0688H78.4105V36.2251H79.889C82.4322 36.2251 84.3545 35.3645 85.6259 33.6728C86.6018 32.367 87.0749 30.8533 87.0749 29.132Z" fill="#339933"/>
<path d="M124.395 29.221C124.395 32.6043 123.271 35.6018 121.024 38.1541C118.451 41.0625 114.991 42.5465 110.585 42.5465C106.208 42.5465 102.748 41.0923 100.175 38.1541C97.9277 35.6018 96.804 32.6045 96.804 29.221C96.804 27.6779 97.0997 26.0753 97.7206 24.4429C98.3416 22.8105 99.1401 21.4158 100.175 20.2584C102.748 17.3501 106.208 15.866 110.614 15.866C114.991 15.866 118.48 17.3202 121.053 20.2584C123.271 22.8404 124.395 25.808 124.395 29.221ZM117.682 29.221C117.682 27.47 117.12 25.9267 115.997 24.6506C114.548 23.0184 112.744 22.1874 110.585 22.1874C109.107 22.1874 107.746 22.6029 106.534 23.4339C105.321 24.2649 104.464 25.3927 103.961 26.7874C103.665 27.5888 103.517 28.3899 103.517 29.221C103.517 30.9124 104.079 32.4261 105.203 33.7617C106.593 35.4238 108.397 36.2548 110.585 36.2548C112.773 36.2548 114.577 35.4238 115.997 33.7916C117.12 32.4858 117.682 30.9721 117.682 29.221Z" fill="#339933"/>
<path d="M146.485 41.0625C144.356 41.8935 142.404 42.3386 140.6 42.3386C137.466 42.3386 134.656 41.3296 132.172 39.3115C129.008 36.7296 127.411 33.3759 127.411 29.221C127.411 25.0661 129.008 21.7124 132.172 19.1304C134.657 17.1123 137.495 16.1033 140.66 16.1033C142.375 16.1033 144.327 16.5188 146.485 17.3795V25.1848C145.865 24.4427 145.244 23.879 144.622 23.4932C143.469 22.7809 142.227 22.4545 140.896 22.4545C139.211 22.4545 137.762 22.9591 136.52 23.9682C134.952 25.2443 134.154 27.0249 134.154 29.2508C134.154 31.4768 134.952 33.2277 136.52 34.5335C137.762 35.5425 139.24 36.0472 140.896 36.0472C142.227 36.0472 143.469 35.6911 144.622 35.0085C145.244 34.6525 145.865 34.0587 146.485 33.317V41.0625Z" fill="#339933"/>
<path d="M177.063 29.221C177.063 32.6043 175.939 35.6018 173.692 38.1541C171.119 41.0625 167.659 42.5465 163.253 42.5465C158.876 42.5465 155.416 41.0923 152.843 38.1541C150.596 35.6018 149.472 32.6045 149.472 29.221C149.472 27.6779 149.768 26.0753 150.389 24.4429C151.01 22.8105 151.808 21.4158 152.843 20.2584C155.416 17.3501 158.876 15.866 163.282 15.866C167.659 15.866 171.148 17.3202 173.721 20.2584C175.939 22.8404 177.063 25.808 177.063 29.221ZM170.35 29.221C170.35 27.47 169.788 25.9267 168.664 24.6506C167.215 23.0184 165.412 22.1874 163.253 22.1874C161.774 22.1874 160.414 22.6029 159.202 23.4339C157.989 24.2649 157.131 25.3927 156.629 26.7874C156.333 27.5888 156.185 28.3899 156.185 29.221C156.185 30.9124 156.747 32.4261 157.871 33.7617C159.261 35.4238 161.065 36.2548 163.253 36.2548C165.441 36.2548 167.245 35.4238 168.664 33.7916C169.788 32.4858 170.35 30.9721 170.35 29.221Z" fill="#339933"/>
<path d="M41.5042 22.0686H33.6974V26.3422H40.7945V31.7733H33.6974V41.656H27.221V16.6376H41.5042V22.0686Z" fill="#339933"/>
<path d="M69.0656 41.656H62.1459L60.5489 37.2932H51.5883L49.8731 41.656H43.0125L52.5939 16.6376H59.6617L69.0656 41.656ZM58.7744 32.3369L56.0836 24.3538L53.363 32.3369H58.7744Z" fill="#339933"/>
<path d="M176.058 20.7924V17.2014H174.697V16.7267H177.921V17.2014H176.59V20.7924H176.058Z" fill="#339933"/>
<path d="M178.453 20.7924V16.7264L179.251 16.7267L180.198 19.6056C180.286 19.8727 180.345 20.0804 180.404 20.1991C180.464 20.0507 180.523 19.8429 180.612 19.5463L181.587 16.7269L182.297 16.7267V20.7926L181.765 20.7924V17.3794L180.582 20.7924H180.109L178.926 17.3199V20.7924H178.453Z" fill="#339933"/>
<path d="M130.006 47.9803V56.0773H128.834V47.9803H130.006ZM129.989 44.2778C130.161 44.4393 130.247 44.6354 130.247 44.8661C130.247 45.0968 130.161 45.2928 129.989 45.4543C129.828 45.6158 129.638 45.6965 129.42 45.6965C129.201 45.6965 129.006 45.6158 128.834 45.4543C128.673 45.2928 128.592 45.0968 128.592 44.8661C128.592 44.6354 128.673 44.4393 128.834 44.2778C129.006 44.1164 129.201 44.0356 129.42 44.0356C129.638 44.0356 129.828 44.1164 129.989 44.2778Z" fill="#940000"/>
<path d="M133.057 47.9803H134.178C134.224 48.557 134.247 49.0184 134.247 49.3644H134.281C134.5 48.903 134.867 48.5224 135.385 48.2225C135.913 47.9226 136.465 47.7727 137.04 47.7727C138.039 47.7727 138.798 48.0726 139.315 48.6724C139.844 49.2721 140.108 50.0853 140.108 51.1118V56.0773H138.936V51.5963C138.936 50.6851 138.769 49.9873 138.436 49.5028C138.114 49.0068 137.551 48.7589 136.747 48.7589C136.068 48.7589 135.488 49.0357 135.005 49.5893C134.534 50.1314 134.298 50.91 134.298 51.925V56.0773H133.126V49.7623C133.126 49.0703 133.103 48.4763 133.057 47.9803Z" fill="#940000"/>
<path d="M146.781 47.9803V48.9665H144.505V53.6897C144.505 54.2549 144.609 54.6471 144.816 54.8662C145.022 55.0738 145.321 55.1776 145.712 55.1776C146.045 55.1776 146.384 55.0911 146.729 54.9181L146.781 55.9389C146.356 56.1004 145.896 56.1811 145.402 56.1811C144.85 56.1811 144.367 56.0196 143.954 55.6967C143.54 55.3737 143.333 54.8143 143.333 54.0184V48.9665H141.661V47.9803H143.333V45.6965H144.505V47.9803H146.781Z" fill="#940000"/>
<path d="M149.27 51.406H154.769C154.735 50.6216 154.482 49.9873 154.011 49.5028C153.551 49.0068 152.913 48.7589 152.097 48.7589C151.339 48.7589 150.689 49.0241 150.149 49.5547C149.62 50.0738 149.327 50.6908 149.27 51.406ZM155.959 51.7866C155.959 52.0173 155.953 52.2018 155.942 52.3402H149.253C149.276 53.1591 149.569 53.857 150.132 54.4337C150.695 54.9989 151.385 55.2814 152.201 55.2814C152.764 55.2814 153.275 55.1488 153.735 54.8835C154.195 54.6067 154.545 54.2722 154.787 53.88L155.666 54.5721C154.769 55.714 153.614 56.2849 152.201 56.2849C151.005 56.2849 150.011 55.8812 149.218 55.0738C148.425 54.2664 148.029 53.2514 148.029 52.0288C148.029 50.8177 148.419 49.8085 149.201 49.0011C149.983 48.1821 150.948 47.7727 152.097 47.7727C153.316 47.7727 154.264 48.1533 154.942 48.9146C155.62 49.6643 155.959 50.6216 155.959 51.7866Z" fill="#940000"/>
<path d="M158.48 49.7623C158.48 49.0703 158.457 48.4763 158.411 47.9803H159.532C159.578 48.557 159.601 49.0184 159.601 49.3644H159.636C159.865 48.8915 160.21 48.5109 160.67 48.2225C161.141 47.9226 161.658 47.7727 162.221 47.7727C162.532 47.7727 162.79 47.8015 162.997 47.8592L162.842 48.9665C162.658 48.8973 162.382 48.8627 162.015 48.8627C161.336 48.8627 160.773 49.1222 160.325 49.6412C159.877 50.1487 159.653 50.91 159.653 51.925V56.0773H158.48V49.7623Z" fill="#940000"/>
<path d="M165.882 47.9803V56.0773H164.71V47.9803H165.882ZM165.865 44.2778C166.037 44.4393 166.124 44.6354 166.124 44.8661C166.124 45.0968 166.037 45.2928 165.865 45.4543C165.704 45.6158 165.515 45.6965 165.296 45.6965C165.078 45.6965 164.882 45.6158 164.71 45.4543C164.549 45.2928 164.469 45.0968 164.469 44.8661C164.469 44.6354 164.549 44.4393 164.71 44.2778C164.882 44.1164 165.078 44.0356 165.296 44.0356C165.515 44.0356 165.704 44.1164 165.865 44.2778Z" fill="#940000"/>
<path d="M175.795 48.9838C176.611 49.7912 177.019 50.8062 177.019 52.0288C177.019 53.2514 176.611 54.2664 175.795 55.0738C174.991 55.8812 173.962 56.2849 172.709 56.2849C171.468 56.2849 170.439 55.8812 169.623 55.0738C168.819 54.2664 168.416 53.2514 168.416 52.0288C168.416 50.8062 168.819 49.7912 169.623 48.9838C170.439 48.1764 171.468 47.7727 172.709 47.7727C173.962 47.7727 174.991 48.1764 175.795 48.9838ZM174.933 54.3645C175.496 53.7416 175.778 52.9631 175.778 52.0288C175.778 51.0945 175.496 50.316 174.933 49.6931C174.37 49.0703 173.629 48.7589 172.709 48.7589C171.801 48.7589 171.066 49.0703 170.503 49.6931C169.939 50.316 169.658 51.0945 169.658 52.0288C169.658 52.9515 169.939 53.7243 170.503 54.3472C171.066 54.97 171.801 55.2814 172.709 55.2814C173.629 55.2814 174.37 54.9758 174.933 54.3645Z" fill="#940000"/>
</svg>
