<svg aria-hidden="true" style="width: 0px; height: 0px; overflow: hidden; position: absolute;" xmlns="http://www.w3.org/2000/svg">
    <symbol id="search_icon" viewBox="0 0 17 17">
      <path d="M12.0753 10.6291C13.0436 9.30782 13.4773 7.66962 13.2896 6.04228C13.1019 4.41494 12.3067 2.91847 11.0631 1.85226C9.81941 0.786056 8.21904 0.228738 6.58213 0.291811C4.94522 0.354885 3.39248 1.0337 2.23456 2.19244C1.07665 3.35119 0.398946 4.90441 0.337044 6.54137C0.275142 8.17833 0.833605 9.77829 1.9007 11.0212C2.9678 12.2641 4.46484 13.0582 6.09231 13.2447C7.71979 13.4312 9.35768 12.9964 10.6783 12.0271H10.6773C10.7073 12.0671 10.7393 12.1051 10.7753 12.1421L14.6253 15.9921C14.8128 16.1798 15.0672 16.2852 15.3324 16.2853C15.5977 16.2854 15.8522 16.1801 16.0398 15.9926C16.2274 15.8051 16.3329 15.5508 16.333 15.2855C16.3331 15.0202 16.2278 14.7658 16.0403 14.5781L12.1903 10.7281C12.1545 10.6919 12.1161 10.6585 12.0753 10.6281V10.6291ZM12.3333 6.78513C12.3333 7.50741 12.191 8.2226 11.9146 8.88989C11.6382 9.55718 11.2331 10.1635 10.7224 10.6742C10.2117 11.1849 9.60534 11.5901 8.93805 11.8665C8.27076 12.1429 7.55557 12.2851 6.8333 12.2851C6.11102 12.2851 5.39583 12.1429 4.72854 11.8665C4.06125 11.5901 3.45493 11.1849 2.94421 10.6742C2.43349 10.1635 2.02836 9.55718 1.75196 8.88989C1.47556 8.2226 1.3333 7.50741 1.3333 6.78513C1.3333 5.32644 1.91276 3.9275 2.94421 2.89605C3.97566 1.8646 5.3746 1.28513 6.8333 1.28513C8.29199 1.28513 9.69093 1.8646 10.7224 2.89605C11.7538 3.9275 12.3333 5.32644 12.3333 6.78513Z"/>
    </symbol>
    <symbol id="phone_icon" viewBox="0 0 17 17">
      <path fill-rule="evenodd" clip-rule="evenodd" d="M2.05149 0.795327C2.22646 0.620615 2.43657 0.485085 2.66788 0.397717C2.8992 0.310348 3.14644 0.273137 3.39323 0.288549C3.64001 0.303962 3.8807 0.371645 4.09935 0.487115C4.318 0.602584 4.50961 0.763203 4.66149 0.958327L6.45649 3.26433C6.78549 3.68733 6.90149 4.23833 6.77149 4.75833L6.22449 6.94833C6.19621 7.06176 6.19773 7.18057 6.22892 7.29324C6.26011 7.4059 6.3199 7.50859 6.40249 7.59133L8.85949 10.0483C8.94232 10.1311 9.04518 10.191 9.15804 10.2222C9.2709 10.2534 9.38991 10.2548 9.50349 10.2263L11.6925 9.67933C11.9491 9.61517 12.2169 9.61018 12.4758 9.66475C12.7346 9.71932 12.9776 9.83202 13.1865 9.99433L15.4925 11.7883C16.3215 12.4333 16.3975 13.6583 15.6555 14.3993L14.6215 15.4333C13.8815 16.1733 12.7755 16.4983 11.7445 16.1353C9.10567 15.2069 6.70976 13.6962 4.73449 11.7153C2.75378 9.74034 1.24309 7.34479 0.314487 4.70633C-0.0475134 3.67633 0.277487 2.56933 1.01749 1.82933L2.05149 0.795327Z" fill="#3AAA35"/>
    </symbol>
    <symbol id="burger_icon" viewBox="0 0 30 31">
      <path fill-rule="evenodd" clip-rule="evenodd" d="M30 23C30 22.6685 29.8683 22.3505 29.6339 22.1161C29.3995 21.8817 29.0815 21.75 28.75 21.75H1.25C0.91848 21.75 0.600538 21.8817 0.366117 22.1161C0.131697 22.3505 0 22.6685 0 23C0 23.3315 0.131697 23.6495 0.366117 23.8839C0.600538 24.1183 0.91848 24.25 1.25 24.25H28.75C29.0815 24.25 29.3995 24.1183 29.6339 23.8839C29.8683 23.6495 30 23.3315 30 23ZM30 15.5C30 15.1685 29.8683 14.8505 29.6339 14.6161C29.3995 14.3817 29.0815 14.25 28.75 14.25H1.25C0.91848 14.25 0.600536 14.3817 0.366116 14.6161C0.131695 14.8505 0 15.1685 0 15.5C0 15.8315 0.131695 16.1495 0.366116 16.3839C0.600536 16.6183 0.91848 16.75 1.25 16.75H28.75C29.0815 16.75 29.3995 16.6183 29.6339 16.3839C29.8683 16.1495 30 15.8315 30 15.5ZM30 8C30 7.66848 29.8683 7.35054 29.6339 7.11612C29.3995 6.8817 29.0815 6.75 28.75 6.75H1.25C0.91848 6.75 0.600536 6.8817 0.366116 7.11612C0.131695 7.35054 0 7.66848 0 8C0 8.33152 0.131695 8.64946 0.366116 8.88388C0.600536 9.1183 0.91848 9.25 1.25 9.25H28.75C29.0815 9.25 29.3995 9.1183 29.6339 8.88388C29.8683 8.64946 30 8.33152 30 8Z"/>
    </symbol>
    <symbol id="close_icon" viewBox="0 0 16 16">
      <path d="M0.7,1.5C0.6,1.5,0.5,1.4,0.5,1.3c0-0.1,0-0.2,0-0.2c0-0.1,0-0.2,0-0.2c0-0.1,0.1-0.1,0.1-0.2c0.1-0.1,0.1-0.1,0.2-0.1c0.1,0,0.2,0,0.2,0c0.1,0,0.2,0,0.2,0c0.1,0,0.1,0.1,0.2,0.1L8,7.1l6.5-6.5c0.1-0.1,0.1-0.1,0.2-0.1c0.1,0,0.2,0,0.2,0c0.1,0,0.2,0,0.2,0c0.1,0,0.1,0.1,0.2,0.1c0.1,0.1,0.1,0.1,0.1,0.2c0,0.1,0,0.2,0,0.2c0,0.1,0,0.2,0,0.2c0,0.1-0.1,0.1-0.1,0.2L8.9,8l6.5,6.5c0.1,0.1,0.1,0.1,0.1,0.2c0,0.1,0,0.2,0,0.2c0,0.1,0,0.2,0,0.2c0,0.1-0.1,0.1-0.1,0.2c-0.1,0.1-0.1,0.1-0.2,0.1c-0.1,0-0.2,0-0.2,0c-0.1,0-0.2,0-0.2,0c-0.1,0-0.1-0.1-0.2-0.1L8,8.9l-6.5,6.5c-0.1,0.1-0.1,0.1-0.2,0.1c-0.1,0-0.2,0-0.2,0c-0.1,0-0.2,0-0.2,0c-0.1,0-0.1-0.1-0.2-0.1c-0.1-0.1-0.1-0.1-0.1-0.2c0-0.1,0-0.2,0-0.2c0-0.1,0-0.2,0-0.2c0-0.1,0.1-0.1,0.1-0.2L7.1,8L0.7,1.5z"/>
      <path d="M14.9,16c-0.1,0-0.3,0-0.4-0.1c-0.1-0.1-0.3-0.1-0.4-0.2L8,9.6l-6.1,6.1c-0.1,0.1-0.2,0.2-0.4,0.2c-0.3,0.1-0.6,0.1-0.8,0c-0.1-0.1-0.3-0.1-0.4-0.2c-0.1-0.1-0.2-0.2-0.2-0.4C0,15.2,0,15,0,14.9c0-0.1,0-0.3,0.1-0.4c0.1-0.1,0.1-0.3,0.2-0.4L6.4,8L0.3,1.9C0.2,1.8,0.1,1.7,0.1,1.5C0,1.4,0,1.2,0,1.1s0-0.3,0.1-0.4c0.1-0.1,0.1-0.3,0.2-0.4s0.2-0.2,0.4-0.2C0.9,0,1.3,0,1.5,0.1c0.1,0.1,0.3,0.1,0.4,0.2L8,6.4l6.1-6.1c0.1-0.1,0.2-0.2,0.4-0.2c0.3-0.1,0.6-0.1,0.8,0c0.1,0.1,0.3,0.1,0.4,0.2c0.1,0.1,0.2,0.2,0.2,0.4C16,0.8,16,1,16,1.1s0,0.3-0.1,0.4s-0.1,0.3-0.2,0.4L9.6,8l6.1,6.1c0.1,0.1,0.2,0.2,0.2,0.4c0.1,0.1,0.1,0.3,0.1,0.4c0,0.1,0,0.3-0.1,0.4c-0.1,0.1-0.1,0.3-0.2,0.4c-0.1,0.1-0.2,0.2-0.4,0.2C15.2,16,15,16,14.9,16z M8,8.2l6.9,6.8l0.4,0.3L15,15l0-0.1l0.3-0.4L15,14.8L8.2,8l6.8-6.9l0.3-0.4L15,1l-0.1,0l-0.4-0.3L14.8,1L8,7.8L1.1,0.9L1,1l0,0.1l0,0.1L7.8,8l-6.8,6.9l-0.3,0.4L1,15l0.1,0l0.4,0.3L1.2,15L8,8.2z"/>
    </symbol>
    <symbol id="chevron_down" viewBox="0 0 16 17">
      <path fill-rule="evenodd" clip-rule="evenodd" d="M1.64601 5.21574C1.69245 5.16918 1.74763 5.13223 1.80838 5.10703C1.86912 5.08182 1.93424 5.06885 2.00001 5.06885C2.06578 5.06885 2.1309 5.08182 2.19164 5.10703C2.25239 5.13223 2.30756 5.16918 2.35401 5.21574L8.00001 10.8627L13.646 5.21574C13.6925 5.16925 13.7477 5.13238 13.8084 5.10722C13.8692 5.08206 13.9343 5.06911 14 5.06911C14.0658 5.06911 14.1309 5.08206 14.1916 5.10722C14.2523 5.13238 14.3075 5.16925 14.354 5.21574C14.4005 5.26223 14.4374 5.31742 14.4625 5.37816C14.4877 5.4389 14.5006 5.504 14.5006 5.56974C14.5006 5.63549 14.4877 5.70059 14.4625 5.76132C14.4374 5.82206 14.4005 5.87725 14.354 5.92374L8.35401 11.9237C8.30756 11.9703 8.25239 12.0072 8.19164 12.0325C8.1309 12.0577 8.06578 12.0706 8.00001 12.0706C7.93424 12.0706 7.86912 12.0577 7.80837 12.0325C7.74763 12.0072 7.69245 11.9703 7.64601 11.9237L1.64601 5.92374C1.59945 5.8773 1.5625 5.82212 1.5373 5.76137C1.51209 5.70063 1.49911 5.63551 1.49911 5.56974C1.49911 5.50397 1.51209 5.43885 1.5373 5.37811C1.5625 5.31736 1.59945 5.26219 1.64601 5.21574Z"/>
    </symbol>
    <symbol id="email_icon" viewBox="0 0 16 17">
      <path fill-rule="evenodd" clip-rule="evenodd" d="M0.050061 3.72297C0.150879 3.28121 0.398716 2.88678 0.752983 2.60428C1.10725 2.32177 1.54695 2.16794 2.00006 2.16797H14.0001C14.4532 2.16794 14.8929 2.32177 15.2471 2.60428C15.6014 2.88678 15.8492 3.28121 15.9501 3.72297L8.00006 8.58197L0.050061 3.72297ZM6.10352e-05 4.86497V11.969L5.80306 8.41097L6.10352e-05 4.86497ZM6.76106 8.99797L0.191061 13.025C0.353388 13.3673 0.609588 13.6564 0.929843 13.8587C1.2501 14.0611 1.62124 14.1683 2.00006 14.168H14.0001C14.3788 14.1681 14.7498 14.0606 15.0699 13.8581C15.39 13.6555 15.646 13.3663 15.8081 13.024L9.23806 8.99697L8.00006 9.75397L6.76106 8.99697V8.99797ZM10.1971 8.41197L16.0001 11.969V4.86497L10.1971 8.41097V8.41197Z"/>
    </symbol>
    <symbol id="pin_icon" viewBox="0 0 16 17">
      <path fill-rule="evenodd" clip-rule="evenodd" d="M6.00006 16.168C6.00006 16.168 12.0001 10.482 12.0001 6.16797C12.0001 4.57667 11.3679 3.05055 10.2427 1.92533C9.11748 0.80011 7.59136 0.167969 6.00006 0.167969C4.40876 0.167969 2.88264 0.80011 1.75742 1.92533C0.632202 3.05055 6.10589e-05 4.57667 6.10352e-05 6.16797C6.10352e-05 10.482 6.00006 16.168 6.00006 16.168ZM6.00006 9.16797C6.79571 9.16797 7.55877 8.8519 8.12138 8.28929C8.68399 7.72668 9.00006 6.96362 9.00006 6.16797C9.00006 5.37232 8.68399 4.60926 8.12138 4.04665C7.55877 3.48404 6.79571 3.16797 6.00006 3.16797C5.20441 3.16797 4.44135 3.48404 3.87874 4.04665C3.31613 4.60926 3.00006 5.37232 3.00006 6.16797C3.00006 6.96362 3.31613 7.72668 3.87874 8.28929C4.44135 8.8519 5.20441 9.16797 6.00006 9.16797Z"/>
    </symbol>
    <symbol id="chevron_up" viewBox="0 0 16 17">
      <path fill-rule="evenodd" clip-rule="evenodd" d="M14.354 11.5221C14.3075 11.5686 14.2524 11.6056 14.1916 11.6308C14.1309 11.656 14.0658 11.6689 14 11.6689C13.9342 11.6689 13.8691 11.656 13.8084 11.6308C13.7476 11.6056 13.6924 11.5686 13.646 11.5221L7.99999 5.87505L2.35399 11.5221C2.3075 11.5685 2.25232 11.6054 2.19158 11.6306C2.13084 11.6557 2.06574 11.6687 1.99999 11.6687C1.93425 11.6687 1.86915 11.6557 1.80841 11.6306C1.74767 11.6054 1.69248 11.5685 1.64599 11.5221C1.5995 11.4756 1.56263 11.4204 1.53747 11.3596C1.51231 11.2989 1.49936 11.2338 1.49936 11.1681C1.49936 11.1023 1.51231 11.0372 1.53747 10.9765C1.56263 10.9157 1.5995 10.8605 1.64599 10.8141L7.64599 4.81405C7.69244 4.76749 7.74761 4.73055 7.80836 4.70534C7.8691 4.68013 7.93422 4.66716 7.99999 4.66716C8.06576 4.66716 8.13088 4.68013 8.19162 4.70534C8.25237 4.73055 8.30755 4.76749 8.35399 4.81405L14.354 10.8141C14.4006 10.8605 14.4375 10.9157 14.4627 10.9764C14.4879 11.0372 14.5009 11.1023 14.5009 11.1681C14.5009 11.2338 14.4879 11.2989 14.4627 11.3597C14.4375 11.4204 14.4006 11.4756 14.354 11.5221Z"/>
    </symbol>
    <symbol id="arrow_right_icon" viewBox="0 0 32 32">
      <path fill-rule="evenodd" clip-rule="evenodd" d="M8 15.9993C8 15.7341 8.10536 15.4797 8.29289 15.2922C8.48043 15.1047 8.73478 14.9993 9 14.9993H20.586L16.292 10.7073C16.1042 10.5195 15.9987 10.2649 15.9987 9.99931C15.9987 9.73376 16.1042 9.47908 16.292 9.29131C16.4798 9.10354 16.7344 8.99805 17 8.99805C17.2656 8.99805 17.5202 9.10354 17.708 9.29131L23.708 15.2913C23.8011 15.3842 23.875 15.4946 23.9254 15.616C23.9758 15.7375 24.0018 15.8678 24.0018 15.9993C24.0018 16.1308 23.9758 16.2611 23.9254 16.3826C23.875 16.5041 23.8011 16.6144 23.708 16.7073L17.708 22.7073C17.5202 22.8951 17.2656 23.0006 17 23.0006C16.7344 23.0006 16.4798 22.8951 16.292 22.7073C16.1042 22.5195 15.9987 22.2649 15.9987 21.9993C15.9987 21.7338 16.1042 21.4791 16.292 21.2913L20.586 16.9993H9C8.73478 16.9993 8.48043 16.894 8.29289 16.7064C8.10536 16.5189 8 16.2645 8 15.9993Z"/>
    </symbol>
    <symbol id="chevron_left" viewBox="0 0 16 17">
      <path fill-rule="evenodd" clip-rule="evenodd" d="M11.354 14.9239C11.4006 14.8775 11.4375 14.8223 11.4627 14.7615C11.4879 14.7008 11.5009 14.6357 11.5009 14.5699C11.5009 14.5041 11.4879 14.439 11.4627 14.3783C11.4375 14.3175 11.4006 14.2624 11.354 14.2159L5.70702 8.56991L11.354 2.92391C11.4005 2.87742 11.4374 2.82223 11.4625 2.76149C11.4877 2.70075 11.5007 2.63565 11.5007 2.56991C11.5007 2.50416 11.4877 2.43906 11.4625 2.37832C11.4374 2.31758 11.4005 2.2624 11.354 2.21591C11.3075 2.16942 11.2523 2.13254 11.1916 2.10738C11.1309 2.08223 11.0658 2.06928 11 2.06928C10.9343 2.06928 10.8692 2.08223 10.8084 2.10738C10.7477 2.13254 10.6925 2.16942 10.646 2.21591L4.64602 8.21591C4.59946 8.26235 4.56252 8.31753 4.53731 8.37827C4.5121 8.43902 4.49913 8.50414 4.49913 8.56991C4.49913 8.63567 4.5121 8.7008 4.53731 8.76154C4.56252 8.82229 4.59946 8.87746 4.64602 8.92391L10.646 14.9239C10.6925 14.9705 10.7476 15.0074 10.8084 15.0326C10.8691 15.0578 10.9343 15.0708 11 15.0708C11.0658 15.0708 11.1309 15.0578 11.1917 15.0326C11.2524 15.0074 11.3076 14.9705 11.354 14.9239Z"/>
    </symbol>
    <symbol id="chevron_right" viewBox="0 0 16 17">
      <path fill-rule="evenodd" clip-rule="evenodd" d="M4.64601 14.9239C4.59945 14.8775 4.5625 14.8223 4.5373 14.7615C4.51209 14.7008 4.49911 14.6357 4.49911 14.5699C4.49911 14.5041 4.51209 14.439 4.5373 14.3783C4.5625 14.3175 4.59945 14.2624 4.64601 14.2159L10.293 8.56991L4.64601 2.92391C4.59952 2.87742 4.56264 2.82223 4.53748 2.76149C4.51233 2.70075 4.49938 2.63565 4.49938 2.56991C4.49938 2.50416 4.51233 2.43906 4.53748 2.37832C4.56264 2.31758 4.59952 2.2624 4.64601 2.21591C4.6925 2.16942 4.74768 2.13254 4.80842 2.10738C4.86916 2.08223 4.93426 2.06928 5.00001 2.06928C5.06575 2.06928 5.13085 2.08223 5.19159 2.10738C5.25233 2.13254 5.30752 2.16942 5.35401 2.21591L11.354 8.21591C11.4006 8.26235 11.4375 8.31753 11.4627 8.37827C11.4879 8.43902 11.5009 8.50414 11.5009 8.56991C11.5009 8.63567 11.4879 8.7008 11.4627 8.76154C11.4375 8.82229 11.4006 8.87746 11.354 8.92391L5.35401 14.9239C5.30756 14.9705 5.25239 15.0074 5.19164 15.0326C5.1309 15.0578 5.06578 15.0708 5.00001 15.0708C4.93424 15.0708 4.86912 15.0578 4.80837 15.0326C4.74763 15.0074 4.69245 14.9705 4.64601 14.9239Z"/>
    </symbol>
    <symbol id="time_icon" viewBox="0 0 16 17">
      <path d="M6.00023 1.07031C6.00023 0.937704 6.05291 0.810527 6.14667 0.716759C6.24044 0.622991 6.36762 0.570313 6.50023 0.570312H9.50023C9.63284 0.570313 9.76001 0.622991 9.85378 0.716759C9.94755 0.810527 10.0002 0.937704 10.0002 1.07031C10.0002 1.20292 9.94755 1.3301 9.85378 1.42387C9.76001 1.51763 9.63284 1.57031 9.50023 1.57031H9.00023V2.64031C10.362 2.83689 11.6357 3.43038 12.6622 4.34665C13.6886 5.26291 14.4223 6.46133 14.7716 7.79217C15.1209 9.12301 15.0704 10.5273 14.6262 11.8295C14.182 13.1318 13.364 14.2743 12.2742 15.1143L12.8752 15.7163C12.9691 15.8101 13.0219 15.9373 13.022 16.07C13.0221 16.2026 12.9695 16.3299 12.8757 16.4238C12.782 16.5177 12.6548 16.5705 12.5221 16.5706C12.3894 16.5707 12.2621 16.5181 12.1682 16.4243L11.4222 15.6783C10.3772 16.2649 9.19861 16.5721 8.00023 16.5703C6.80185 16.5721 5.62324 16.2649 4.57823 15.6783L3.83223 16.4243C3.78574 16.4707 3.73056 16.5075 3.66985 16.5326C3.60913 16.5577 3.54407 16.5706 3.47837 16.5706C3.41268 16.5705 3.34763 16.5576 3.28695 16.5324C3.22627 16.5072 3.17115 16.4703 3.12473 16.4238C3.07831 16.3773 3.04149 16.3221 3.0164 16.2614C2.9913 16.2007 2.9784 16.1357 2.97845 16.07C2.97854 15.9373 3.03134 15.8101 3.12523 15.7163L3.72723 15.1143C2.63751 14.2744 1.81945 13.1319 1.37523 11.8298C0.931014 10.5276 0.880332 9.12337 1.22952 7.79256C1.57871 6.46174 2.31228 5.26331 3.33861 4.34698C4.36493 3.43065 5.6385 2.83705 7.00023 2.64031V1.57031H6.50023C6.36762 1.57031 6.24044 1.51763 6.14667 1.42387C6.05291 1.3301 6.00023 1.20292 6.00023 1.07031ZM8.50023 6.07031C8.50023 5.9377 8.44755 5.81053 8.35378 5.71676C8.26001 5.62299 8.13284 5.57031 8.00023 5.57031C7.86762 5.57031 7.74044 5.62299 7.64667 5.71676C7.55291 5.81053 7.50023 5.9377 7.50023 6.07031V9.43231L6.07123 11.8123C6.00293 11.9261 5.98264 12.0623 6.0148 12.1911C6.04696 12.3198 6.12895 12.4305 6.24273 12.4988C6.35651 12.5671 6.49275 12.5874 6.6215 12.5552C6.75024 12.5231 6.86093 12.4411 6.92923 12.3273L8.42923 9.82731C8.47572 9.74965 8.50026 9.66083 8.50023 9.57031V6.07031ZM0.860227 5.95731C0.601487 5.73225 0.391817 5.45636 0.244256 5.1468C0.0966952 4.83724 0.0143991 4.50063 0.00248571 4.15791C-0.0094277 3.81519 0.0492963 3.47368 0.175006 3.15462C0.300715 2.83557 0.490722 2.54578 0.73321 2.30329C0.975697 2.06081 1.26548 1.8708 1.58454 1.74509C1.9036 1.61938 2.2451 1.56066 2.58783 1.57257C2.93055 1.58448 3.26716 1.66678 3.57671 1.81434C3.88627 1.9619 4.16216 2.17157 4.38723 2.43031C2.86718 3.20206 1.63197 4.43726 0.860227 5.95731ZM11.6132 2.43031C11.8383 2.17157 12.1142 1.9619 12.4237 1.81434C12.7333 1.66678 13.0699 1.58448 13.4126 1.57257C13.7554 1.56066 14.0969 1.61938 14.4159 1.74509C14.735 1.8708 15.0248 2.06081 15.2672 2.30329C15.5097 2.54578 15.6997 2.83557 15.8254 3.15462C15.9512 3.47368 16.0099 3.81519 15.998 4.15791C15.9861 4.50063 15.9038 4.83724 15.7562 5.1468C15.6086 5.45636 15.399 5.73225 15.1402 5.95731C14.3685 4.43726 13.1333 3.20206 11.6132 2.43031Z"/>
    </symbol>
    <symbol id="pdf_icon" viewBox="0 0 25 24">
      <path d="M18.5759 1.55399L22.7489 5.90399V22.446H7.16016V22.5H22.8022V5.95874L18.5759 1.55399Z" fill="#940000"/>
      <path d="M18.5227 1.5H7.10547V22.446H22.7475V5.90475L18.5227 1.5Z" fill="#F4F4F4"/>
      <path d="M6.99172 2.625H2.19922V7.74525H17.2742V2.625H6.99172Z" fill="#7A7B7C"/>
      <path d="M17.3546 7.65824H2.29688V2.53424H17.3546V7.65824Z" fill="#DD2025"/>
      <path d="M7.28884 3.40051H7.26634H7.11109H6.30859V7.00051H7.07959V5.78626L7.24984 5.79601C7.41527 5.79317 7.57915 5.76353 7.73509 5.70826C7.87182 5.66124 7.9976 5.58699 8.10484 5.49001C8.21397 5.39763 8.3 5.28103 8.35609 5.14951C8.43132 4.93089 8.45818 4.69854 8.43484 4.46851C8.43016 4.30419 8.40135 4.14145 8.34934 3.98551C8.302 3.87294 8.23174 3.77146 8.14303 3.68753C8.05432 3.6036 7.94911 3.53906 7.83409 3.49801C7.73465 3.46201 7.63191 3.43589 7.52734 3.42001C7.44816 3.4078 7.36821 3.40128 7.28809 3.40051M7.14634 5.12101H7.07959V4.01101H7.22434C7.28823 4.00641 7.35233 4.01621 7.41192 4.03971C7.4715 4.06321 7.52505 4.09979 7.56859 4.14676C7.65883 4.26752 7.70704 4.41452 7.70584 4.56526C7.70584 4.74976 7.70584 4.91701 7.53934 5.03476C7.41939 5.10074 7.28286 5.13119 7.14634 5.12101Z" fill="#464648"/>
      <path d="M9.89881 3.39074C9.81556 3.39074 9.73456 3.39674 9.67756 3.39899L9.49906 3.40349H8.91406V7.00349H9.60256C9.86568 7.0107 10.1277 6.9661 10.3736 6.87224C10.5715 6.79373 10.7468 6.66717 10.8836 6.50399C11.0166 6.33933 11.1121 6.14761 11.1633 5.94224C11.2222 5.70964 11.251 5.47042 11.2488 5.23049C11.2634 4.9471 11.2414 4.66303 11.1836 4.38524C11.1286 4.18076 11.0258 3.99231 10.8836 3.83549C10.772 3.70886 10.6353 3.60671 10.4823 3.53549C10.3509 3.47467 10.2127 3.42985 10.0706 3.40199C10.0141 3.39265 9.95683 3.38838 9.89956 3.38924M9.76306 6.34199H9.68806V4.04399H9.69781C9.85243 4.0262 10.0089 4.05409 10.1478 4.12424C10.2496 4.20548 10.3325 4.30784 10.3908 4.42424C10.4538 4.54674 10.4901 4.68119 10.4973 4.81874C10.5041 4.98374 10.4973 5.11874 10.4973 5.23049C10.5004 5.35921 10.4921 5.48796 10.4726 5.61524C10.4494 5.74591 10.4067 5.87234 10.3458 5.99024C10.2769 6.09985 10.1837 6.19222 10.0736 6.26024C9.98103 6.32008 9.87145 6.34801 9.76156 6.33974" fill="#464648"/>
      <path d="M13.5725 3.4035H11.75V7.0035H12.521V5.5755H13.496V4.9065H12.521V4.0725H13.571V3.4035" fill="#464648"/>
      <path d="M16.8365 15.1913C16.8365 15.1913 19.2275 14.7578 19.2275 15.5745C19.2275 16.3913 17.7462 16.059 16.8365 15.1913ZM15.0687 15.2535C14.6889 15.3374 14.3187 15.4603 13.964 15.6203L14.264 14.9453C14.564 14.2703 14.8752 13.35 14.8752 13.35C15.2332 13.9525 15.6497 14.5182 16.1187 15.039C15.7651 15.0917 15.4145 15.1639 15.0687 15.255V15.2535ZM14.1222 10.3785C14.1222 9.66676 14.3525 9.47251 14.5317 9.47251C14.711 9.47251 14.9127 9.55876 14.9195 10.1768C14.8611 10.7982 14.731 11.4108 14.5317 12.0023C14.2588 11.5056 14.1176 10.9474 14.1215 10.3808L14.1222 10.3785ZM10.6355 18.2655C9.90199 17.8268 12.1737 16.476 12.5855 16.4325C12.5832 16.4333 11.4035 18.7245 10.6355 18.2655ZM19.9257 15.6713C19.9182 15.5963 19.8507 14.766 18.3732 14.8013C17.7574 14.7913 17.1419 14.8347 16.5335 14.931C15.9442 14.3373 15.4367 13.6677 15.0245 12.9398C15.2842 12.1893 15.4414 11.4073 15.4917 10.6148C15.47 9.71476 15.2547 9.19876 14.5647 9.20626C13.8747 9.21376 13.7742 9.81751 13.865 10.716C13.9539 11.3198 14.1216 11.9093 14.3637 12.4695C14.3637 12.4695 14.045 13.4618 13.6235 14.4488C13.202 15.4358 12.914 15.9533 12.914 15.9533C12.181 16.1919 11.491 16.5464 10.8702 17.0033C10.2522 17.5785 10.001 18.0203 10.3265 18.462C10.607 18.843 11.5887 18.9293 12.4662 17.7795C12.9325 17.1857 13.3584 16.5613 13.7412 15.9105C13.7412 15.9105 15.0792 15.5438 15.4955 15.4433C15.9117 15.3428 16.415 15.2633 16.415 15.2633C16.415 15.2633 17.6367 16.4925 18.815 16.449C19.9932 16.4055 19.9362 15.7448 19.9287 15.6728" fill="#DD2025"/>
      <path d="M18.4648 1.55774V5.96249H22.6896L18.4648 1.55774Z" fill="#909090"/>
      <path d="M18.5234 1.5V5.90475H22.7482L18.5234 1.5Z" fill="#F4F4F4"/>
      <path d="M7.2322 3.34274H7.2097H7.05445H6.25195V6.94274H7.02595V5.72924L7.19695 5.73899C7.36238 5.73615 7.52625 5.70651 7.6822 5.65124C7.81892 5.6042 7.9447 5.52996 8.05195 5.43299C8.16026 5.34036 8.24551 5.22378 8.30095 5.09249C8.37617 4.87387 8.40304 4.64152 8.3797 4.41149C8.37502 4.24717 8.34621 4.08444 8.2942 3.92849C8.24686 3.81592 8.1766 3.71444 8.08789 3.63051C7.99918 3.54658 7.89397 3.48204 7.77895 3.44099C7.67905 3.40464 7.5758 3.37826 7.4707 3.36224C7.39152 3.35003 7.31157 3.34351 7.23145 3.34274M7.0897 5.06324H7.02295V3.95324H7.16845C7.23234 3.94864 7.29644 3.95844 7.35603 3.98194C7.41561 4.00544 7.46916 4.04202 7.5127 4.08899C7.60294 4.20975 7.65115 4.35675 7.64995 4.50749C7.64995 4.69199 7.64995 4.85924 7.48345 4.97699C7.3635 5.04297 7.22697 5.07267 7.09045 5.06249" fill="white"/>
      <path d="M9.84188 3.333C9.75863 3.333 9.67763 3.339 9.62063 3.34125L9.44437 3.34575H8.85938V6.94575H9.54788C9.81099 6.95296 10.073 6.90836 10.3189 6.8145C10.5168 6.73599 10.6921 6.60943 10.8289 6.44625C10.9619 6.28159 11.0574 6.08988 11.1086 5.8845C11.1675 5.6519 11.1963 5.41268 11.1941 5.17275C11.2087 4.88936 11.1867 4.60529 11.1289 4.3275C11.074 4.12302 10.9711 3.93457 10.8289 3.77775C10.7173 3.65112 10.5807 3.54897 10.4276 3.47775C10.2962 3.41693 10.158 3.37211 10.0159 3.34425C9.95937 3.33491 9.90214 3.33065 9.84488 3.3315M9.70837 6.28425H9.63338V3.98625H9.64312C9.79774 3.96846 9.95419 3.99636 10.0931 4.0665C10.1949 4.14774 10.2778 4.2501 10.3361 4.3665C10.3991 4.489 10.4354 4.62345 10.4426 4.761C10.4494 4.926 10.4426 5.061 10.4426 5.17275C10.4457 5.30147 10.4374 5.43022 10.4179 5.5575C10.3948 5.68817 10.352 5.8146 10.2911 5.9325C10.2222 6.04211 10.1291 6.13448 10.0189 6.2025C9.92634 6.26235 9.81677 6.29027 9.70688 6.282" fill="white"/>
      <path d="M13.5139 3.34576H11.6914V6.94576H12.4624V5.51776H13.4374V4.84876H12.4624V4.01476H13.5124V3.34576" fill="white"/>
    </symbol>
</svg>
