<svg width="65" height="65" viewBox="0 0 65 65" fill="none" xmlns="http://www.w3.org/2000/svg">
<path d="M21.3757 12.1356C21.3757 5.72884 26.2519 1 32.6519 1C38.8995 1 43.7757 5.88139 43.7757 12.2882C43.7757 18.2373 38.5948 23.2712 32.6519 23.2712C26.4043 23.1186 21.3757 18.2373 21.3757 12.1356ZM30.5186 14.2712C29.4519 13.2034 28.5376 12.2881 27.6233 11.2204C27.0138 10.6102 26.4043 10.6102 25.9471 11.2204C25.49 11.678 25.49 12.2882 25.9471 12.8983C27.1662 14.1187 28.3852 15.339 29.6043 16.5593C30.0614 17.017 30.8233 17.017 31.2805 16.5593C33.871 14.1187 36.309 11.5254 38.7471 9.08477C39.2043 8.62714 39.2043 7.86442 38.7471 7.4068C38.29 6.94917 37.6805 6.94917 37.0709 7.4068C36.6138 7.86442 36.1567 8.32205 35.5471 8.93222C34.1757 10.7627 32.3472 12.4407 30.5186 14.2712Z" fill="#3AAA35"/>
<path d="M25.0329 29.8305C21.2233 32.1187 17.4138 34.4068 13.6043 36.6949C13.4519 36.8475 13.1472 36.8475 12.9948 36.6949C9.18524 34.4068 5.52807 32.2712 1.87093 29.983C1.87093 29.983 1.87092 29.9831 1.71854 29.8305C1.87092 29.678 2.02333 29.678 2.17571 29.5254C5.68047 27.3898 9.33762 25.2542 12.8424 23.1186C12.9948 22.9661 13.4519 22.9661 13.6043 23.1186C17.2614 25.2542 20.9186 27.5424 24.7281 29.678C24.7281 29.678 24.8805 29.678 25.0329 29.8305Z" fill="#3AAA35"/>
<path d="M44.0805 42.4915C42.2519 43.5593 40.4233 44.6271 38.7471 45.6949C36.7662 46.9152 34.9376 47.983 32.9566 49.2034C32.6519 49.3559 32.3472 49.5085 32.0424 49.3559C28.3852 47.0678 24.7281 44.9322 21.0709 42.7966L20.9186 42.6441C21.0709 42.4915 21.2233 42.339 21.3757 42.339C24.8805 40.2034 28.3852 38.0678 31.89 35.9322C32.1948 35.7797 32.4995 35.6271 32.8043 35.9322C36.3091 38.0678 39.9662 40.2034 43.6233 42.339C43.9281 42.1864 43.9281 42.339 44.0805 42.4915Z" fill="#3AAA35"/>
<path d="M40.1186 29.8305C40.2709 29.678 40.4233 29.5254 40.5757 29.5254C44.0804 27.3898 47.7376 25.2542 51.2424 23.1186C51.5471 22.9661 51.8519 22.8135 52.1566 23.1186C55.8138 25.2542 59.4709 27.5424 62.9757 29.678C63.1281 29.678 63.1281 29.8305 63.2805 29.983C63.1281 30.1356 62.9757 30.2881 62.8233 30.2881C59.3186 32.4237 55.6614 34.5593 52.1566 36.6949C52.0043 36.8475 51.5471 37 51.3947 36.8474C47.7376 34.4068 43.9281 32.1187 40.1186 29.8305Z" fill="#3AAA35"/>
<path d="M31.2805 64C27.9281 62.0169 24.5757 59.8814 21.2233 58.0509C20.0043 57.4407 19.5471 56.678 19.5471 55.3051C19.6995 51.9491 19.5471 48.7458 19.5471 45.3898C19.5471 45.0847 19.5471 44.9322 19.5471 44.4746C19.8519 44.6271 20.0043 44.6271 20.1566 44.7797C23.6614 46.9153 27.1662 48.8983 30.6709 51.0339C30.9757 51.1864 31.2805 51.339 31.2805 51.7966C31.2805 55.7627 31.2805 59.5762 31.2805 63.5423C31.4329 63.6949 31.2805 63.8475 31.2805 64Z" fill="#3AAA35"/>
<path d="M0.499512 31.8136C3.24237 33.4915 5.83286 35.017 8.42334 36.5424C9.49001 37.1526 10.5566 37.7627 11.6233 38.5254C11.7757 38.678 12.0805 38.983 12.0805 39.1356C12.0805 43.1017 12.0805 47.0678 12.0805 51.1865V51.339C11.9281 51.1864 11.7757 51.1864 11.6233 51.0339C8.11854 48.8983 4.61379 46.7627 1.10903 44.6271C0.804264 44.4746 0.651902 44.1695 0.651902 43.8644C0.651902 39.8983 0.651902 36.0848 0.651902 32.1187C0.499521 32.1187 0.499512 32.1186 0.499512 31.8136Z" fill="#3AAA35"/>
<path d="M52.9186 51.339C52.9186 51.0339 52.9186 50.7288 52.9186 50.5762C52.9186 46.9152 52.9186 43.2542 52.9186 39.5932C52.9186 38.9831 53.0709 38.678 53.5281 38.5254C57.0328 36.5424 60.3852 34.4068 63.89 32.4237C64.0424 32.2712 64.3471 32.2712 64.4995 32.1187C64.4995 33.1865 64.4995 34.1017 64.4995 35.017C64.4995 38.0678 64.4995 41.1187 64.4995 44.1695C64.4995 44.4746 64.3471 44.7797 64.0424 44.9322C60.3852 47.0678 56.8805 49.2034 53.2233 51.4915C53.2233 51.1864 53.0709 51.339 52.9186 51.339Z" fill="#3AAA35"/>
<path d="M33.7185 64C33.7185 60.339 33.8709 56.9831 33.7185 53.4746C33.7185 51.9492 34.1757 51.0339 35.5471 50.2712C38.5947 48.5932 41.6424 46.7627 44.69 44.9322C44.8424 44.7797 45.1471 44.6271 45.4519 44.4746C45.4519 44.7796 45.4519 44.9322 45.4519 45.2373C45.4519 48.8983 45.4519 52.7119 45.4519 56.3729C45.4519 56.8305 45.2995 57.1356 44.8424 57.4407C41.3376 59.5762 37.8329 61.5593 34.3281 63.6949C34.1757 63.6949 33.8709 63.8475 33.7185 64Z" fill="#3AAA35"/>
<path d="M14.3662 51.4915C14.3662 49.661 14.3662 47.8305 14.3662 46.1525C14.3662 44.0169 14.3662 41.7288 14.3662 39.5932C14.3662 39.2881 14.5185 38.9831 14.6709 38.8305C18.3281 36.6949 21.8328 34.5593 25.49 32.2712C25.6424 32.2712 25.7948 32.1187 25.9471 32.1187C25.9471 33.6441 25.9471 35.1695 25.9471 36.6949C25.9471 36.8475 25.6424 37.1525 25.49 37.1525C23.0519 38.5254 20.7662 40.0508 18.3281 41.4237C17.7186 41.7288 17.4138 42.339 17.4138 43.1017C17.4138 45.0847 17.4138 47.2203 17.4138 49.2034C17.4138 49.661 17.2614 49.9661 16.8043 50.1186C16.1948 50.4237 15.2805 50.8813 14.3662 51.4915Z" fill="#3AAA35"/>
<path d="M38.8995 31.8136C40.4233 32.7288 41.6424 33.4915 43.0138 34.2542C45.2995 35.6271 47.7376 37 50.0233 38.5254C50.3281 38.678 50.4804 38.983 50.4804 39.2881C50.4804 43.2542 50.4804 47.0678 50.4804 51.0339C50.4804 51.1864 50.4804 51.1864 50.4804 51.4915C49.4138 50.8813 48.4995 50.2712 47.5852 49.8135C47.4328 49.661 47.4328 49.3559 47.4328 49.2034C47.4328 47.2203 47.4328 45.0847 47.4328 43.1017C47.4328 42.339 47.1281 41.7288 46.3662 41.4237C44.0805 40.0508 41.6424 38.678 39.3567 37.1525C38.8995 36.8475 38.7471 36.6949 38.7471 36.2373C39.0519 34.7119 38.8995 33.339 38.8995 31.8136Z" fill="#3AAA35"/>
</svg>
