<svg width="65" height="65" viewBox="0 0 65 65" fill="none" xmlns="http://www.w3.org/2000/svg">
<path d="M8.50004 24.8843C8.52262 11.419 19.3198 0.477097 32.5565 0.500036C45.7706 0.545914 56.5 11.4878 56.5 24.8843C56.4774 38.3724 45.748 49.2455 32.4661 49.2226C19.1843 49.1997 8.47745 38.3036 8.50004 24.8843ZM32.4887 6.21186C22.3014 6.2348 14.1245 14.5846 14.1245 24.9072C14.1245 35.2527 22.3918 43.6025 32.6017 43.5796C42.676 43.5566 50.8981 35.1609 50.8981 24.8613C50.8755 14.5617 42.6308 6.18892 32.4887 6.21186Z" fill="#3AAA35"/>
<path d="M21.6453 64.5001C20.5611 61.2427 19.5446 58.146 18.483 54.9574C15.298 55.5997 12.1131 56.242 8.74746 56.9302C11.0063 52.9388 13.1973 49.108 15.411 45.2083C19.4091 48.6033 23.8816 50.6449 29.0994 51.4019C26.5921 55.7832 24.1752 60.0499 21.6453 64.5001Z" fill="#3AAA35"/>
<path d="M35.923 51.4019C41.1409 50.6449 45.6134 48.6033 49.6115 45.2083C51.8251 49.085 53.9936 52.9159 56.275 56.9073C52.9545 56.2191 49.7922 55.5768 46.5395 54.9345C45.4778 58.1001 44.4614 61.2198 43.3546 64.4771C40.8699 60.0958 38.4303 55.8062 35.923 51.4019Z" fill="#3AAA35"/>
<path d="M48.5941 24.9074C48.5941 33.8765 41.4111 41.1941 32.5339 41.217C23.6567 41.24 16.3833 33.8995 16.4059 24.9074C16.4285 15.9152 23.7019 8.52887 32.5339 8.55181C41.3659 8.57475 48.5941 15.9382 48.5941 24.9074ZM40.7786 31.1468C41.6821 30.8945 42.4953 30.7568 42.676 29.7016C42.8341 28.7382 42.292 28.2106 41.4562 27.7289C42.4501 27.5912 43.2407 27.4077 43.4214 26.4443C43.6473 25.2056 42.6308 24.9303 41.7047 24.5174C41.8854 24.4715 41.9532 24.4256 42.0209 24.4256C43.2181 24.2192 43.828 23.6228 43.7377 22.7052C43.6473 21.7418 43.0148 21.283 41.7951 21.283C40.0784 21.283 38.3617 21.283 36.6675 21.283C35.6511 21.283 35.4252 20.9389 35.6511 19.9525C35.9899 18.5074 36.3965 17.0851 36.5998 15.64C36.6901 14.9977 36.5772 14.2178 36.2609 13.6443C35.8769 12.8873 35.0638 12.635 34.2054 12.8185C33.2115 13.0249 32.692 13.736 32.4887 14.6995C31.9466 17.131 31.5626 19.6314 29.8233 21.5812C29.6878 21.7188 29.6426 21.9941 29.6652 22.2006C29.6878 22.8199 29.7781 23.4393 29.7781 24.0586C29.8007 27.2701 29.7781 30.5045 29.7781 33.8306C30.4784 33.9453 31.1108 34.1518 31.7659 34.1518C34.4539 34.1747 37.1645 34.1289 39.8525 34.1518C40.6882 34.1518 41.3659 33.9453 41.6821 33.0966C41.9984 32.2937 41.6369 31.6744 40.7786 31.1468ZM23.0694 28.0959C23.0694 29.6787 23.0694 31.2844 23.092 32.8672C23.092 33.7618 23.4308 34.1059 24.3118 34.1289C24.9894 34.1518 25.6671 34.1518 26.3221 34.1289C27.0675 34.1059 27.4515 33.716 27.4515 32.959C27.4515 29.7475 27.429 26.536 27.4064 23.3246C27.4064 22.5217 27.045 22.1088 26.2318 22.1088C25.5541 22.1088 24.8765 22.0859 24.2214 22.1088C23.3631 22.1317 23.092 22.4529 23.092 23.3246C23.0468 24.9074 23.0694 26.5131 23.0694 28.0959Z" fill="#3AAA35"/>
<path d="M40.7786 31.1468C41.6144 31.6514 41.9979 32.2937 41.6817 33.1424C41.3881 33.9912 40.7104 34.1976 39.8521 34.1976C37.1641 34.1747 34.4535 34.2206 31.7655 34.1976C31.1104 34.1976 30.4554 33.9912 29.7777 33.8765C29.7777 30.5274 29.7777 27.3159 29.7777 24.1044C29.7777 23.4851 29.6874 22.8657 29.6648 22.2464C29.6648 22.0399 29.7099 21.7647 29.8229 21.627C31.5622 19.6543 31.9462 17.1768 32.4883 14.7453C32.6916 13.7819 33.2337 13.0708 34.205 12.8643C35.0408 12.6808 35.8539 12.9561 36.2605 13.6901C36.5542 14.2636 36.6897 15.0435 36.5993 15.6858C36.3735 17.131 35.9669 18.5761 35.6506 19.9983C35.4248 20.9847 35.6732 21.3059 36.6671 21.3288C38.3838 21.3518 40.1005 21.3288 41.7946 21.3288C43.0144 21.3288 43.6469 21.7876 43.7372 22.751C43.8276 23.6457 43.2177 24.265 42.0205 24.4715C41.9528 24.4944 41.885 24.5173 41.7043 24.5632C42.6078 24.9761 43.6469 25.2514 43.421 26.4901C43.2403 27.4306 42.4271 27.6371 41.4558 27.7747C42.2916 28.2564 42.8337 28.7611 42.6756 29.7474C42.4949 30.7568 41.6821 30.9174 40.7786 31.1468Z" fill="white"/>
<path d="M23.0694 28.0959C23.0694 26.5131 23.0693 24.9071 23.0693 23.3243C23.0693 22.4526 23.3629 22.1314 24.1987 22.1085C24.8763 22.0856 25.554 22.1085 26.209 22.1085C27.0222 22.1085 27.3836 22.5443 27.3836 23.3243C27.4062 26.5357 27.4062 29.7472 27.4288 32.9587C27.4288 33.7157 27.0448 34.1286 26.2994 34.1286C25.6218 34.1515 24.9441 34.1515 24.289 34.1286C23.4081 34.1056 23.0919 33.7615 23.0693 32.8669C23.0693 31.2841 23.0694 29.7016 23.0694 28.0959Z" fill="white"/>
</svg>
