<svg width="65" height="65" viewBox="0 0 65 65" fill="none" xmlns="http://www.w3.org/2000/svg">
<path d="M39.2154 7.59902C38.29 6.65203 37.1847 5.89956 35.9644 5.38581C34.7441 4.87207 33.4334 4.60742 32.1094 4.60742C30.7853 4.60742 29.4746 4.87207 28.2543 5.38581C27.034 5.89956 25.9287 6.65203 25.0033 7.59902L22.865 9.79237L19.8053 9.75455C18.4809 9.73887 17.1667 9.98818 15.94 10.4878C14.7133 10.9874 13.599 11.7273 12.6624 12.6639C11.7258 13.6004 10.9859 14.7148 10.4863 15.9415C9.98669 17.1682 9.73739 18.4824 9.75306 19.8068L9.78744 22.8665L7.60097 25.0048C6.65398 25.9302 5.90151 27.0355 5.38777 28.2558C4.87402 29.4761 4.60938 30.7868 4.60938 32.1109C4.60938 33.4349 4.87402 34.7456 5.38777 35.9659C5.90151 37.1862 6.65398 38.2915 7.60097 39.2169L9.79088 41.3552L9.75306 44.4149C9.73739 45.7393 9.98669 47.0535 10.4863 48.2802C10.9859 49.5069 11.7258 50.6213 12.6624 51.5579C13.599 52.4944 14.7133 53.2343 15.94 53.7339C17.1667 54.2335 18.4809 54.4828 19.8053 54.4672L22.865 54.4328L25.0033 56.6193C25.9287 57.5662 27.034 58.3187 28.2543 58.8325C29.4746 59.3462 30.7853 59.6109 32.1094 59.6109C33.4334 59.6109 34.7441 59.3462 35.9644 58.8325C37.1847 58.3187 38.29 57.5662 39.2154 56.6193L41.3537 54.4294L44.4134 54.4672C45.7379 54.4828 47.0521 54.2335 48.2787 53.7339C49.5054 53.2343 50.6198 52.4944 51.5564 51.5579C52.493 50.6213 53.2328 49.5069 53.7324 48.2802C54.2321 47.0535 54.4814 45.7393 54.4657 44.4149L54.4313 41.3552L56.6178 39.2169C57.5648 38.2915 58.3172 37.1862 58.831 35.9659C59.3447 34.7456 59.6094 33.4349 59.6094 32.1109C59.6094 30.7868 59.3447 29.4761 58.831 28.2558C58.3172 27.0355 57.5648 25.9302 56.6178 25.0048L54.4279 22.8665L54.4657 19.8068C54.4814 18.4824 54.2321 17.1682 53.7324 15.9415C53.2328 14.7148 52.493 13.6004 51.5564 12.6639C50.6198 11.7273 49.5054 10.9874 48.2787 10.4878C47.0521 9.98818 45.7379 9.73887 44.4134 9.75455L41.3537 9.78893L39.2154 7.60246V7.59902ZM40.2021 28.1711L29.8885 38.4846C29.7289 38.6447 29.5392 38.7717 29.3303 38.8584C29.1215 38.945 28.8976 38.9896 28.6715 38.9896C28.4454 38.9896 28.2216 38.945 28.0127 38.8584C27.8039 38.7717 27.6142 38.6447 27.4545 38.4846L22.2978 33.3279C22.1379 33.168 22.0112 32.9783 21.9247 32.7695C21.8382 32.5607 21.7937 32.3369 21.7937 32.1109C21.7937 31.8848 21.8382 31.661 21.9247 31.4522C22.0112 31.2434 22.1379 31.0537 22.2978 30.8939C22.4576 30.734 22.6473 30.6073 22.8561 30.5208C23.0649 30.4343 23.2887 30.3898 23.5148 30.3898C23.7408 30.3898 23.9646 30.4343 24.1734 30.5208C24.3822 30.6073 24.5719 30.734 24.7318 30.8939L28.6715 34.8371L37.7681 25.7371C38.0908 25.4143 38.5286 25.233 38.9851 25.233C39.4415 25.233 39.8793 25.4143 40.2021 25.7371C40.5248 26.0599 40.7062 26.4976 40.7062 26.9541C40.7062 27.4106 40.5248 27.8483 40.2021 28.1711Z" fill="#3AAA35"/>
</svg>
