<svg width="30" height="31" viewBox="0 0 30 31" fill="none" xmlns="http://www.w3.org/2000/svg">
<path fill-rule="evenodd" clip-rule="evenodd" d="M30 23C30 22.6685 29.8683 22.3505 29.6339 22.1161C29.3995 21.8817 29.0815 21.75 28.75 21.75H1.25C0.91848 21.75 0.600538 21.8817 0.366117 22.1161C0.131697 22.3505 0 22.6685 0 23C0 23.3315 0.131697 23.6495 0.366117 23.8839C0.600538 24.1183 0.91848 24.25 1.25 24.25H28.75C29.0815 24.25 29.3995 24.1183 29.6339 23.8839C29.8683 23.6495 30 23.3315 30 23ZM30 15.5C30 15.1685 29.8683 14.8505 29.6339 14.6161C29.3995 14.3817 29.0815 14.25 28.75 14.25H1.25C0.91848 14.25 0.600536 14.3817 0.366116 14.6161C0.131695 14.8505 0 15.1685 0 15.5C0 15.8315 0.131695 16.1495 0.366116 16.3839C0.600536 16.6183 0.91848 16.75 1.25 16.75H28.75C29.0815 16.75 29.3995 16.6183 29.6339 16.3839C29.8683 16.1495 30 15.8315 30 15.5ZM30 8C30 7.66848 29.8683 7.35054 29.6339 7.11612C29.3995 6.8817 29.0815 6.75 28.75 6.75H1.25C0.91848 6.75 0.600536 6.8817 0.366116 7.11612C0.131695 7.35054 0 7.66848 0 8C0 8.33152 0.131695 8.64946 0.366116 8.88388C0.600536 9.1183 0.91848 9.25 1.25 9.25H28.75C29.0815 9.25 29.3995 9.1183 29.6339 8.88388C29.8683 8.64946 30 8.33152 30 8Z"/>
</svg>
