<svg width="24" height="25" viewBox="0 0 24 25" fill="none" xmlns="http://www.w3.org/2000/svg">
<path fill-rule="evenodd" clip-rule="evenodd" d="M5 7.57031C5 7.3051 5.10536 7.05074 5.29289 6.86321C5.48043 6.67567 5.73478 6.57031 6 6.57031H18C18.2652 6.57031 18.5196 6.67567 18.7071 6.86321C18.8946 7.05074 19 7.3051 19 7.57031C19 7.83553 18.8946 8.08988 18.7071 8.27742C18.5196 8.46496 18.2652 8.57031 18 8.57031H6C5.73478 8.57031 5.48043 8.46496 5.29289 8.27742C5.10536 8.08988 5 7.83553 5 7.57031ZM5 12.5703C5 12.3051 5.10536 12.0507 5.29289 11.8632C5.48043 11.6757 5.73478 11.5703 6 11.5703H18C18.2652 11.5703 18.5196 11.6757 18.7071 11.8632C18.8946 12.0507 19 12.3051 19 12.5703C19 12.8355 18.8946 13.0899 18.7071 13.2774C18.5196 13.465 18.2652 13.5703 18 13.5703H6C5.73478 13.5703 5.48043 13.465 5.29289 13.2774C5.10536 13.0899 5 12.8355 5 12.5703ZM5 17.5703C5 17.3051 5.10536 17.0507 5.29289 16.8632C5.48043 16.6757 5.73478 16.5703 6 16.5703H18C18.2652 16.5703 18.5196 16.6757 18.7071 16.8632C18.8946 17.0507 19 17.3051 19 17.5703C19 17.8355 18.8946 18.0899 18.7071 18.2774C18.5196 18.465 18.2652 18.5703 18 18.5703H6C5.73478 18.5703 5.48043 18.465 5.29289 18.2774C5.10536 18.0899 5 17.8355 5 17.5703Z"/>
</svg>
