<svg width="16" height="17" viewBox="0 0 16 17" fill="none" xmlns="http://www.w3.org/2000/svg">
<path fill-rule="evenodd" clip-rule="evenodd" d="M4.64601 14.9239C4.59945 14.8775 4.5625 14.8223 4.5373 14.7615C4.51209 14.7008 4.49911 14.6357 4.49911 14.5699C4.49911 14.5041 4.51209 14.439 4.5373 14.3783C4.5625 14.3175 4.59945 14.2624 4.64601 14.2159L10.293 8.56991L4.64601 2.92391C4.59952 2.87742 4.56264 2.82223 4.53748 2.76149C4.51233 2.70075 4.49938 2.63565 4.49938 2.56991C4.49938 2.50416 4.51233 2.43906 4.53748 2.37832C4.56264 2.31758 4.59952 2.2624 4.64601 2.21591C4.6925 2.16942 4.74768 2.13254 4.80842 2.10738C4.86916 2.08223 4.93426 2.06928 5.00001 2.06928C5.06575 2.06928 5.13085 2.08223 5.19159 2.10738C5.25233 2.13254 5.30752 2.16942 5.35401 2.21591L11.354 8.21591C11.4006 8.26235 11.4375 8.31753 11.4627 8.37827C11.4879 8.43902 11.5009 8.50414 11.5009 8.56991C11.5009 8.63567 11.4879 8.7008 11.4627 8.76154C11.4375 8.82229 11.4006 8.87746 11.354 8.92391L5.35401 14.9239C5.30756 14.9705 5.25239 15.0074 5.19164 15.0326C5.1309 15.0578 5.06578 15.0708 5.00001 15.0708C4.93424 15.0708 4.86912 15.0578 4.80837 15.0326C4.74763 15.0074 4.69245 14.9705 4.64601 14.9239Z"/>
</svg>
