<svg width="16" height="17" viewBox="0 0 16 17" fill="none" xmlns="http://www.w3.org/2000/svg">
<path fill-rule="evenodd" clip-rule="evenodd" d="M14.354 11.5221C14.3075 11.5686 14.2524 11.6056 14.1916 11.6308C14.1309 11.656 14.0658 11.6689 14 11.6689C13.9342 11.6689 13.8691 11.656 13.8084 11.6308C13.7476 11.6056 13.6924 11.5686 13.646 11.5221L7.99999 5.87505L2.35399 11.5221C2.3075 11.5685 2.25232 11.6054 2.19158 11.6306C2.13084 11.6557 2.06574 11.6687 1.99999 11.6687C1.93425 11.6687 1.86915 11.6557 1.80841 11.6306C1.74767 11.6054 1.69248 11.5685 1.64599 11.5221C1.5995 11.4756 1.56263 11.4204 1.53747 11.3596C1.51231 11.2989 1.49936 11.2338 1.49936 11.1681C1.49936 11.1023 1.51231 11.0372 1.53747 10.9765C1.56263 10.9157 1.5995 10.8605 1.64599 10.8141L7.64599 4.81405C7.69244 4.76749 7.74761 4.73055 7.80836 4.70534C7.8691 4.68013 7.93422 4.66716 7.99999 4.66716C8.06576 4.66716 8.13088 4.68013 8.19162 4.70534C8.25237 4.73055 8.30755 4.76749 8.35399 4.81405L14.354 10.8141C14.4006 10.8605 14.4375 10.9157 14.4627 10.9764C14.4879 11.0372 14.5009 11.1023 14.5009 11.1681C14.5009 11.2338 14.4879 11.2989 14.4627 11.3597C14.4375 11.4204 14.4006 11.4756 14.354 11.5221Z" fill="#262626"/>
</svg>
