<svg width="16" height="17" viewBox="0 0 16 17" fill="none" xmlns="http://www.w3.org/2000/svg">
<path fill-rule="evenodd" clip-rule="evenodd" d="M11.354 14.9239C11.4006 14.8775 11.4375 14.8223 11.4627 14.7615C11.4879 14.7008 11.5009 14.6357 11.5009 14.5699C11.5009 14.5041 11.4879 14.439 11.4627 14.3783C11.4375 14.3175 11.4006 14.2624 11.354 14.2159L5.70702 8.56991L11.354 2.92391C11.4005 2.87742 11.4374 2.82223 11.4625 2.76149C11.4877 2.70075 11.5007 2.63565 11.5007 2.56991C11.5007 2.50416 11.4877 2.43906 11.4625 2.37832C11.4374 2.31758 11.4005 2.2624 11.354 2.21591C11.3075 2.16942 11.2523 2.13254 11.1916 2.10738C11.1309 2.08223 11.0658 2.06928 11 2.06928C10.9343 2.06928 10.8692 2.08223 10.8084 2.10738C10.7477 2.13254 10.6925 2.16942 10.646 2.21591L4.64602 8.21591C4.59946 8.26235 4.56252 8.31753 4.53731 8.37827C4.5121 8.43902 4.49913 8.50414 4.49913 8.56991C4.49913 8.63567 4.5121 8.7008 4.53731 8.76154C4.56252 8.82229 4.59946 8.87746 4.64602 8.92391L10.646 14.9239C10.6925 14.9705 10.7476 15.0074 10.8084 15.0326C10.8691 15.0578 10.9343 15.0708 11 15.0708C11.0658 15.0708 11.1309 15.0578 11.1917 15.0326C11.2524 15.0074 11.3076 14.9705 11.354 14.9239Z" fill="#262626"/>
</svg>
