<svg width="16" height="17" viewBox="0 0 16 17" fill="none" xmlns="http://www.w3.org/2000/svg">
<path fill-rule="evenodd" clip-rule="evenodd" d="M1.64601 5.21574C1.69245 5.16918 1.74763 5.13223 1.80838 5.10703C1.86912 5.08182 1.93424 5.06885 2.00001 5.06885C2.06578 5.06885 2.1309 5.08182 2.19164 5.10703C2.25239 5.13223 2.30756 5.16918 2.35401 5.21574L8.00001 10.8627L13.646 5.21574C13.6925 5.16925 13.7477 5.13238 13.8084 5.10722C13.8692 5.08206 13.9343 5.06911 14 5.06911C14.0658 5.06911 14.1309 5.08206 14.1916 5.10722C14.2523 5.13238 14.3075 5.16925 14.354 5.21574C14.4005 5.26223 14.4374 5.31742 14.4625 5.37816C14.4877 5.4389 14.5006 5.504 14.5006 5.56974C14.5006 5.63549 14.4877 5.70059 14.4625 5.76132C14.4374 5.82206 14.4005 5.87725 14.354 5.92374L8.35401 11.9237C8.30756 11.9703 8.25239 12.0072 8.19164 12.0325C8.1309 12.0577 8.06578 12.0706 8.00001 12.0706C7.93424 12.0706 7.86912 12.0577 7.80837 12.0325C7.74763 12.0072 7.69245 11.9703 7.64601 11.9237L1.64601 5.92374C1.59945 5.8773 1.5625 5.82212 1.5373 5.76137C1.51209 5.70063 1.49911 5.63551 1.49911 5.56974C1.49911 5.50397 1.51209 5.43885 1.5373 5.37811C1.5625 5.31736 1.59945 5.26219 1.64601 5.21574Z" fill="#262626"/>
</svg>
