<svg xmlns="http://www.w3.org/2000/svg" viewBox="0 0 16 16">
	<path d="M0.7,1.5C0.6,1.5,0.5,1.4,0.5,1.3c0-0.1,0-0.2,0-0.2c0-0.1,0-0.2,0-0.2c0-0.1,0.1-0.1,0.1-0.2c0.1-0.1,0.1-0.1,0.2-0.1c0.1,0,0.2,0,0.2,0c0.1,0,0.2,0,0.2,0c0.1,0,0.1,0.1,0.2,0.1L8,7.1l6.5-6.5c0.1-0.1,0.1-0.1,0.2-0.1c0.1,0,0.2,0,0.2,0c0.1,0,0.2,0,0.2,0c0.1,0,0.1,0.1,0.2,0.1c0.1,0.1,0.1,0.1,0.1,0.2c0,0.1,0,0.2,0,0.2c0,0.1,0,0.2,0,0.2c0,0.1-0.1,0.1-0.1,0.2L8.9,8l6.5,6.5c0.1,0.1,0.1,0.1,0.1,0.2c0,0.1,0,0.2,0,0.2c0,0.1,0,0.2,0,0.2c0,0.1-0.1,0.1-0.1,0.2c-0.1,0.1-0.1,0.1-0.2,0.1c-0.1,0-0.2,0-0.2,0c-0.1,0-0.2,0-0.2,0c-0.1,0-0.1-0.1-0.2-0.1L8,8.9l-6.5,6.5c-0.1,0.1-0.1,0.1-0.2,0.1c-0.1,0-0.2,0-0.2,0c-0.1,0-0.2,0-0.2,0c-0.1,0-0.1-0.1-0.2-0.1c-0.1-0.1-0.1-0.1-0.1-0.2c0-0.1,0-0.2,0-0.2c0-0.1,0-0.2,0-0.2c0-0.1,0.1-0.1,0.1-0.2L7.1,8L0.7,1.5z"/>
	<path d="M14.9,16c-0.1,0-0.3,0-0.4-0.1c-0.1-0.1-0.3-0.1-0.4-0.2L8,9.6l-6.1,6.1c-0.1,0.1-0.2,0.2-0.4,0.2c-0.3,0.1-0.6,0.1-0.8,0c-0.1-0.1-0.3-0.1-0.4-0.2c-0.1-0.1-0.2-0.2-0.2-0.4C0,15.2,0,15,0,14.9c0-0.1,0-0.3,0.1-0.4c0.1-0.1,0.1-0.3,0.2-0.4L6.4,8L0.3,1.9C0.2,1.8,0.1,1.7,0.1,1.5C0,1.4,0,1.2,0,1.1s0-0.3,0.1-0.4c0.1-0.1,0.1-0.3,0.2-0.4s0.2-0.2,0.4-0.2C0.9,0,1.3,0,1.5,0.1c0.1,0.1,0.3,0.1,0.4,0.2L8,6.4l6.1-6.1c0.1-0.1,0.2-0.2,0.4-0.2c0.3-0.1,0.6-0.1,0.8,0c0.1,0.1,0.3,0.1,0.4,0.2c0.1,0.1,0.2,0.2,0.2,0.4C16,0.8,16,1,16,1.1s0,0.3-0.1,0.4s-0.1,0.3-0.2,0.4L9.6,8l6.1,6.1c0.1,0.1,0.2,0.2,0.2,0.4c0.1,0.1,0.1,0.3,0.1,0.4c0,0.1,0,0.3-0.1,0.4c-0.1,0.1-0.1,0.3-0.2,0.4c-0.1,0.1-0.2,0.2-0.4,0.2C15.2,16,15,16,14.9,16z M8,8.2l6.9,6.8l0.4,0.3L15,15l0-0.1l0.3-0.4L15,14.8L8.2,8l6.8-6.9l0.3-0.4L15,1l-0.1,0l-0.4-0.3L14.8,1L8,7.8L1.1,0.9L1,1l0,0.1l0,0.1L7.8,8l-6.8,6.9l-0.3,0.4L1,15l0.1,0l0.4,0.3L1.2,15L8,8.2z"/>
</svg>
