<svg width="16" height="17" viewBox="0 0 16 17" fill="none" xmlns="http://www.w3.org/2000/svg">
<path fill-rule="evenodd" clip-rule="evenodd" d="M0.050061 3.72297C0.150879 3.28121 0.398716 2.88678 0.752983 2.60428C1.10725 2.32177 1.54695 2.16794 2.00006 2.16797H14.0001C14.4532 2.16794 14.8929 2.32177 15.2471 2.60428C15.6014 2.88678 15.8492 3.28121 15.9501 3.72297L8.00006 8.58197L0.050061 3.72297ZM6.10352e-05 4.86497V11.969L5.80306 8.41097L6.10352e-05 4.86497ZM6.76106 8.99797L0.191061 13.025C0.353388 13.3673 0.609588 13.6564 0.929843 13.8587C1.2501 14.0611 1.62124 14.1683 2.00006 14.168H14.0001C14.3788 14.1681 14.7498 14.0606 15.0699 13.8581C15.39 13.6555 15.646 13.3663 15.8081 13.024L9.23806 8.99697L8.00006 9.75397L6.76106 8.99697V8.99797ZM10.1971 8.41197L16.0001 11.969V4.86497L10.1971 8.41097V8.41197Z"/>
</svg>
