<svg width="17" height="17" viewBox="0 0 17 17" fill="none" xmlns="http://www.w3.org/2000/svg">
<path fill-rule="evenodd" clip-rule="evenodd" d="M2.05149 0.795327C2.22646 0.620615 2.43657 0.485085 2.66788 0.397717C2.8992 0.310348 3.14644 0.273137 3.39323 0.288549C3.64001 0.303962 3.8807 0.371645 4.09935 0.487115C4.318 0.602584 4.50961 0.763203 4.66149 0.958327L6.45649 3.26433C6.78549 3.68733 6.90149 4.23833 6.77149 4.75833L6.22449 6.94833C6.19621 7.06176 6.19773 7.18057 6.22892 7.29324C6.26011 7.4059 6.3199 7.50859 6.40249 7.59133L8.85949 10.0483C8.94232 10.1311 9.04518 10.191 9.15804 10.2222C9.2709 10.2534 9.38991 10.2548 9.50349 10.2263L11.6925 9.67933C11.9491 9.61517 12.2169 9.61018 12.4758 9.66475C12.7346 9.71932 12.9776 9.83202 13.1865 9.99433L15.4925 11.7883C16.3215 12.4333 16.3975 13.6583 15.6555 14.3993L14.6215 15.4333C13.8815 16.1733 12.7755 16.4983 11.7445 16.1353C9.10567 15.2069 6.70976 13.6962 4.73449 11.7153C2.75378 9.74034 1.24309 7.34479 0.314487 4.70633C-0.0475134 3.67633 0.277487 2.56933 1.01749 1.82933L2.05149 0.795327Z" fill="#3AAA35"/>
</svg>
