<svg width="16" height="17" viewBox="0 0 16 17" fill="none" xmlns="http://www.w3.org/2000/svg">
<path fill-rule="evenodd" clip-rule="evenodd" d="M8 2.16797C8.13261 2.16797 8.25979 2.22065 8.35355 2.31442C8.44732 2.40818 8.5 2.53536 8.5 2.66797V7.66797H13.5C13.6326 7.66797 13.7598 7.72065 13.8536 7.81442C13.9473 7.90818 14 8.03536 14 8.16797C14 8.30058 13.9473 8.42775 13.8536 8.52152C13.7598 8.61529 13.6326 8.66797 13.5 8.66797H8.5V13.668C8.5 13.8006 8.44732 13.9278 8.35355 14.0215C8.25979 14.1153 8.13261 14.168 8 14.168C7.86739 14.168 7.74021 14.1153 7.64645 14.0215C7.55268 13.9278 7.5 13.8006 7.5 13.668V8.66797H2.5C2.36739 8.66797 2.24021 8.61529 2.14645 8.52152C2.05268 8.42775 2 8.30058 2 8.16797C2 8.03536 2.05268 7.90818 2.14645 7.81442C2.24021 7.72065 2.36739 7.66797 2.5 7.66797H7.5V2.66797C7.5 2.53536 7.55268 2.40818 7.64645 2.31442C7.74021 2.22065 7.86739 2.16797 8 2.16797Z"/>
</svg>
