<svg width="17" height="17" viewBox="0 0 17 17" fill="none" xmlns="http://www.w3.org/2000/svg">
<path d="M12.0753 10.6291C13.0436 9.30782 13.4773 7.66962 13.2896 6.04228C13.1019 4.41494 12.3067 2.91847 11.0631 1.85226C9.81941 0.786056 8.21904 0.228738 6.58213 0.291811C4.94522 0.354885 3.39248 1.0337 2.23456 2.19244C1.07665 3.35119 0.398946 4.90441 0.337044 6.54137C0.275142 8.17833 0.833605 9.77829 1.9007 11.0212C2.9678 12.2641 4.46484 13.0582 6.09231 13.2447C7.71979 13.4312 9.35768 12.9964 10.6783 12.0271H10.6773C10.7073 12.0671 10.7393 12.1051 10.7753 12.1421L14.6253 15.9921C14.8128 16.1798 15.0672 16.2852 15.3324 16.2853C15.5977 16.2854 15.8522 16.1801 16.0398 15.9926C16.2274 15.8051 16.3329 15.5508 16.333 15.2855C16.3331 15.0202 16.2278 14.7658 16.0403 14.5781L12.1903 10.7281C12.1545 10.6919 12.1161 10.6585 12.0753 10.6281V10.6291ZM12.3333 6.78513C12.3333 7.50741 12.191 8.2226 11.9146 8.88989C11.6382 9.55718 11.2331 10.1635 10.7224 10.6742C10.2117 11.1849 9.60534 11.5901 8.93805 11.8665C8.27076 12.1429 7.55557 12.2851 6.8333 12.2851C6.11102 12.2851 5.39583 12.1429 4.72854 11.8665C4.06125 11.5901 3.45493 11.1849 2.94421 10.6742C2.43349 10.1635 2.02836 9.55718 1.75196 8.88989C1.47556 8.2226 1.3333 7.50741 1.3333 6.78513C1.3333 5.32644 1.91276 3.9275 2.94421 2.89605C3.97566 1.8646 5.3746 1.28513 6.8333 1.28513C8.29199 1.28513 9.69093 1.8646 10.7224 2.89605C11.7538 3.9275 12.3333 5.32644 12.3333 6.78513Z"/>
</svg>
