<svg width="36" height="37" viewBox="0 0 36 37" fill="none" xmlns="http://www.w3.org/2000/svg">
<path d="M18 0.167969C15.4999 0.167969 7.89158 0.167969 3.68526 3.81657C1.18042 6.18717 0 9.61257 0 14.568V17.268C0 22.2234 1.18042 25.6488 3.71463 28.0464C4.97653 29.1399 6.69695 30.0138 8.80011 30.6177L9.47368 30.8103V35.6055C9.47368 36.168 9.64516 36.168 9.702 36.168C9.81853 36.168 10.0052 36.1329 10.3595 35.8341C10.4447 35.754 11.07 35.1114 14.1111 31.875L14.418 31.5483L14.8775 31.5762C15.8959 31.6365 16.9465 31.668 18 31.668C20.5001 31.668 28.1084 31.668 32.3147 28.0185C34.8186 25.6479 36 22.2225 36 17.268V14.568C36 9.61257 34.8196 6.18717 32.2854 3.78957C28.1084 0.167969 20.5001 0.167969 18 0.167969Z" fill="#6559A2"/>
<path d="M25.4623 20.7325C24.5762 20.0233 24.1671 19.8089 22.9436 19.1111C22.434 18.8209 21.6572 18.5701 21.2497 18.5701C20.9713 18.5701 20.6379 18.7724 20.4338 18.9664C19.9106 19.4634 19.7391 20.0855 18.8219 20.0855C17.9247 20.0855 16.3575 19.2179 15.233 18.0966C14.0526 17.0283 13.1394 15.5394 13.1394 14.6871C13.1394 13.8157 13.7822 13.6415 14.3054 13.1437C14.5096 12.9505 14.7345 12.6338 14.7345 12.3694C14.7345 11.9822 14.4705 11.2556 14.1651 10.7714C13.4305 9.6084 13.2056 9.21972 12.4583 8.37871C12.2055 8.09382 11.9176 7.9635 11.6161 7.96275C11.1065 7.96199 10.4373 8.20217 9.98431 8.52267C9.30321 9.0053 8.591 9.6622 8.40039 10.4805C8.37487 10.5919 8.35971 10.704 8.35493 10.8161C8.31824 11.6685 8.67076 12.5338 9.05119 13.2664C9.94683 14.9932 11.132 16.6646 12.4216 18.1572C12.8339 18.6345 13.283 19.0785 13.7479 19.5074C14.1993 19.9483 14.6667 20.3749 15.1692 20.7674C16.7403 21.9925 18.4997 23.1184 20.3173 23.9693C21.0814 24.3269 21.981 24.6557 22.8695 24.6315C22.9963 24.6277 23.1231 24.614 23.2499 24.5875C24.1113 24.4072 24.8027 23.7298 25.3108 23.0828C25.6481 22.6524 25.9009 22.0175 25.9002 21.5326C25.8994 21.2462 25.7622 20.9727 25.4623 20.7325ZM25.9002 17.0548C25.4599 17.0548 25.1026 16.7153 25.1026 16.2971V15.5394C25.1026 11.7799 21.8821 8.72042 17.9247 8.72042C17.4844 8.72042 17.1271 8.38098 17.1271 7.96275C17.1271 7.54451 17.4844 7.20508 17.9247 7.20508C22.7618 7.20508 26.6977 10.9442 26.6977 15.5394V16.2971C26.6977 16.7153 26.3404 17.0548 25.9002 17.0548ZM21.0016 15.5394C20.6475 15.5394 20.3237 15.3137 20.2304 14.9727C20.0119 14.1764 19.3579 13.5543 18.5228 13.3498C18.0962 13.2445 17.8401 12.8315 17.9502 12.4262C18.0603 12.0216 18.4941 11.7784 18.9224 11.8822C20.3165 12.2254 21.4092 13.2626 21.7736 14.5901C21.8845 14.9954 21.6293 15.4084 21.2034 15.5144C21.1356 15.5311 21.0678 15.5394 21.0016 15.5394Z" fill="white"/>
<path d="M23.508 16.2975C23.0678 16.2975 22.7105 15.9581 22.7105 15.5398C22.7105 13.1244 20.7214 11.1317 18.182 11.0044C17.7417 10.9825 17.4044 10.6256 17.4275 10.2081C17.4506 9.78989 17.8327 9.46864 18.2657 9.49137C21.6529 9.66109 24.3056 12.3182 24.3056 15.5398C24.3056 15.9581 23.9483 16.2975 23.508 16.2975Z" fill="white"/>
</svg>
