<svg width="37" height="37" viewBox="0 0 37 37" fill="none" xmlns="http://www.w3.org/2000/svg">
<path d="M18.4286 36.168C28.6064 36.168 36.8571 28.1091 36.8571 18.168C36.8571 8.22684 28.6064 0.167969 18.4286 0.167969C8.25075 0.167969 0 8.22684 0 18.168C0 28.1091 8.25075 36.168 18.4286 36.168Z" fill="#2787F5"/>
<path fill-rule="evenodd" clip-rule="evenodd" d="M17.0657 26.0629H18.4577C18.4577 26.0629 18.8782 26.0161 19.0928 25.7812C19.2904 25.5656 19.2841 25.1606 19.2841 25.1606C19.2841 25.1606 19.2569 23.265 20.1238 22.9858C20.9783 22.7108 22.0757 24.818 23.2388 25.6281C24.1183 26.2413 24.7867 26.1069 24.7867 26.1069L27.8966 26.0629C27.8966 26.0629 29.5235 25.9612 28.7521 24.663C28.6889 24.5568 28.3029 23.7026 26.4398 21.9475C24.4898 20.1105 24.7509 20.4076 27.0999 17.2301C28.5305 15.2949 29.1024 14.1135 28.9238 13.6075C28.7534 13.1256 27.7012 13.2529 27.7012 13.2529L24.1996 13.2751C24.1996 13.2751 23.94 13.2391 23.7475 13.3559C23.5594 13.4705 23.4383 13.7375 23.4383 13.7375C23.4383 13.7375 22.8841 15.2349 22.1449 16.5085C20.5857 19.1957 19.9622 19.3375 19.7074 19.1707C19.1147 18.7818 19.2626 17.6084 19.2626 16.7748C19.2626 14.1706 19.6518 13.0848 18.5048 12.8037C18.1242 12.7104 17.8441 12.6488 16.8706 12.6388C15.6212 12.6257 14.5637 12.6427 13.9649 12.9404C13.5666 13.1384 13.2593 13.5796 13.4464 13.6049C13.6778 13.6364 14.202 13.7484 14.4799 14.1324C14.8387 14.6279 14.8261 15.7406 14.8261 15.7406C14.8261 15.7406 15.0322 18.8062 14.3446 19.1871C13.8726 19.4482 13.2251 18.915 11.835 16.477C11.1227 15.2282 10.585 13.8478 10.585 13.8478C10.585 13.8478 10.4813 13.5899 10.2963 13.4519C10.0719 13.2847 9.75824 13.2314 9.75824 13.2314L6.43078 13.2536C6.43078 13.2536 5.93126 13.2677 5.7479 13.4881C5.58477 13.6842 5.73494 14.0898 5.73494 14.0898C5.73494 14.0898 8.34 20.2754 11.2897 23.3927C13.9943 26.2506 17.0657 26.0629 17.0657 26.0629Z" fill="white"/>
</svg>
