<svg width="36" height="37" viewBox="0 0 36 37" fill="none" xmlns="http://www.w3.org/2000/svg">
<path d="M36 18.168C36 8.22683 27.9411 0.167941 18 0.167941C8.05885 0.167942 -1.22135e-06 8.22683 -7.86806e-07 18.168C-3.52265e-07 28.1091 8.05886 36.168 18 36.168C27.9411 36.168 36 28.1091 36 18.168Z" fill="#219653"/>
<path d="M8.4375 27.4111L9.8301 22.3049C9.08738 20.9123 8.62319 19.334 8.62319 17.7558C8.62319 12.5567 12.8938 8.28613 18.0928 8.28613C23.2919 8.28613 27.5625 12.5567 27.5625 17.7558C27.5625 22.9548 23.2919 27.2254 18.0928 27.2254C16.5146 27.2254 15.0291 26.8541 13.6365 26.1114L8.4375 27.4111ZM13.8222 24.0689L14.1007 24.2546C15.3076 24.9973 16.6074 25.3686 18 25.3686C22.1778 25.3686 25.6129 21.9336 25.6129 17.7558C25.6129 13.578 22.1778 10.1429 18 10.1429C13.8222 10.1429 10.3871 13.578 10.3871 17.7558C10.3871 19.1484 10.7585 20.541 11.5012 21.7479L11.6869 22.1193L10.9442 24.9973L13.8222 24.0689Z" fill="white"/>
<path fill-rule="evenodd" clip-rule="evenodd" d="M21.5272 19.0547C21.1559 18.7762 20.5988 18.5905 20.1346 18.7762C19.7633 18.9619 19.5776 19.4261 19.2991 19.7046C19.2062 19.8902 19.0205 19.8903 18.8349 19.7974C17.5351 19.2404 16.5139 18.4048 15.7711 17.1979C15.6783 17.0122 15.6783 16.8265 15.864 16.6409C16.0497 16.3623 16.3282 16.0838 16.421 15.7125C16.5139 15.3411 16.3282 14.9697 16.1425 14.6912C15.9568 14.3199 15.7711 13.7628 15.3998 13.4843C15.0284 13.2986 14.5642 13.3915 14.1929 13.67C13.6358 14.1342 13.3573 14.8769 13.3573 15.5268C13.3573 15.7125 13.3573 15.8981 13.4501 16.0838C13.543 16.548 13.8215 17.0122 14.0072 17.3836C14.1929 17.6621 14.3786 18.0335 14.5642 18.312C15.307 19.2404 16.1425 20.0759 17.1637 20.7258C17.6279 21.0043 18.185 21.2828 18.742 21.4685C19.3919 21.6542 19.9489 21.9327 20.5988 21.7471C21.3415 21.6542 21.9914 21.19 22.2699 20.4473C22.3628 20.2616 22.3628 19.9831 22.3628 19.7974C22.4556 19.5189 21.8986 19.2404 21.5272 19.0547Z" fill="white"/>
</svg>
