<svg width="191" height="66" viewBox="0 0 191 66" fill="none" xmlns="http://www.w3.org/2000/svg">
<path fill-rule="evenodd" clip-rule="evenodd" d="M2.92824 10.1076C65.5888 10.1456 128.211 10.1076 190.872 10.1076V53.6926C134.633 53.6926 78.3945 53.6926 22.1558 53.6926C16.0759 53.7686 10.3001 49.1707 9.1981 43.1668C7.03215 32.1471 4.9802 21.1274 2.92824 10.1076ZM49.2872 17.4414C49.2872 23.8253 49.2872 30.2091 49.2872 36.555C50.2372 36.935 51.4911 36.593 52.5551 36.707C52.5551 31.2731 52.5551 25.8772 52.5551 20.4434C55.519 20.4434 58.483 20.4054 61.4469 20.4814C61.4849 19.4554 61.4849 18.4674 61.4849 17.4414C57.419 17.4414 53.3531 17.4794 49.2872 17.4414ZM125.627 21.9633C122.587 24.8893 119.662 27.9292 116.622 30.8551C116.66 28.0052 116.622 25.1553 116.622 22.2673C115.558 22.2293 114.456 22.2293 113.392 22.2673C113.392 27.1692 113.392 32.1091 113.392 37.049C113.62 37.049 114.114 37.049 114.342 37.049C117.306 34.1231 120.232 31.1211 123.233 28.2332C123.233 31.0831 123.233 33.8951 123.233 36.745C124.335 36.745 125.399 36.745 126.501 36.707C126.463 31.8051 126.501 26.9032 126.501 22.0013C126.273 21.9633 125.817 21.9633 125.627 21.9633ZM148.465 23.9013C145.691 26.4092 145.273 31.0451 147.477 34.0471C150.289 37.923 156.521 38.037 159.865 34.769C159.295 34.0471 158.725 33.3631 158.117 32.7171C156.293 34.1231 153.747 34.807 151.581 33.7811C150.289 33.2111 149.491 31.9571 149.225 30.5891C152.911 30.5511 156.635 30.6651 160.321 30.5511C160.587 28.2332 160.207 25.5733 158.459 23.8633C155.799 21.2034 151.125 21.3173 148.465 23.9013ZM166.59 24.3193C166.59 23.6353 166.59 22.9133 166.552 22.2293C165.564 22.2293 164.615 22.2293 163.627 22.2673C163.665 29.0312 163.627 35.795 163.627 42.5969C164.691 42.5969 165.755 42.5969 166.856 42.6349C166.894 40.0509 166.894 37.467 166.894 34.883C169.212 37.733 173.886 37.733 176.394 35.187C179.396 32.2991 179.472 26.9792 176.584 23.9773C174 21.1274 168.984 21.2793 166.59 24.3193ZM30.0216 22.0773C30.7816 25.7632 31.7316 29.4112 33.1376 32.9071C34.0495 35.149 36.4435 36.555 38.7994 36.669C41.3454 36.783 43.8913 36.707 46.4752 36.745C46.4752 35.719 46.4752 34.655 46.4372 33.6291C44.0053 33.5911 41.6114 33.7051 39.1794 33.5151C37.9634 33.4391 36.7475 32.9071 36.1775 31.7671C35.0755 29.7532 34.8095 27.3972 34.4295 25.1553C38.3814 25.1553 42.3713 25.1173 46.3232 25.1933C46.4372 24.2053 46.4372 23.1793 46.4372 22.1913C41.0034 22.1533 35.5315 22.0393 30.0216 22.0773ZM61.3329 22.2673C61.3329 25.1933 61.2949 28.0812 61.3329 31.0071C61.3709 32.9071 62.0929 34.997 63.8408 35.985C66.0828 37.315 69.0467 36.783 70.9467 35.073C70.9467 36.707 70.6807 38.7589 68.9707 39.4809C66.6528 40.3549 64.1448 39.4049 62.1309 38.227C61.7509 39.1009 61.3709 39.9749 60.9529 40.8489C63.8408 42.5589 67.5648 43.4328 70.7187 41.9889C73.0366 40.9629 74.2146 38.341 74.1766 35.871C74.1766 31.3111 74.1766 26.7892 74.1766 22.2293C73.1126 22.2293 72.0487 22.2293 70.9847 22.1913C70.8707 24.8513 70.9847 27.5112 70.9467 30.1711C70.9467 31.2351 70.7187 32.3751 69.8447 33.0591C68.1727 34.541 64.9808 33.7051 64.6768 31.3491C64.5248 28.3092 64.6768 25.2693 64.6388 22.2293C63.5368 22.2673 62.4349 22.2673 61.3329 22.2673ZM79.9145 22.2293C79.8005 25.2693 80.1805 28.3472 79.4585 31.3491C79.1545 32.7171 78.0525 33.7431 76.7225 34.1611C76.7225 35.073 76.7225 36.023 76.7225 36.935C78.6985 36.745 80.6744 35.795 81.7004 34.0091C83.2584 31.3491 83.0684 28.1192 83.1444 25.1553C84.8924 25.1553 86.6403 25.1553 88.3883 25.1553C88.3503 28.9932 88.4263 32.8311 88.3503 36.669C89.4522 36.745 90.5542 36.707 91.6562 36.707C91.6182 31.8811 91.6562 27.0552 91.6562 22.2293C87.7423 22.2293 83.8284 22.2673 79.9145 22.2293ZM97.4321 22.2293C97.3181 25.2693 97.6601 28.3852 96.9761 31.3491C96.6721 32.7171 95.5701 33.7431 94.2401 34.1611C94.2401 35.073 94.2401 36.023 94.2401 36.935C96.2161 36.745 98.192 35.795 99.218 34.0091C100.776 31.3491 100.624 28.1192 100.662 25.1553C102.41 25.1553 104.158 25.1553 105.906 25.1553C105.868 28.9932 105.944 32.8311 105.868 36.669C106.97 36.707 108.072 36.707 109.174 36.707C109.136 31.8811 109.174 27.0552 109.174 22.2293C105.222 22.2293 101.308 22.2673 97.4321 22.2293ZM130.757 22.2293C130.757 27.0552 130.757 31.8811 130.757 36.707C133.417 36.707 136.115 36.745 138.813 36.707C140.941 36.707 143.183 35.339 143.601 33.1731C144.019 31.4251 142.993 29.6012 141.397 28.9552C142.575 27.8532 143.069 26.0292 142.271 24.5473C141.435 22.8753 139.383 22.3053 137.673 22.2673C135.317 22.2673 133.037 22.2293 130.757 22.2293ZM36.3295 38.7589C34.3155 39.5569 33.9735 42.6729 35.8355 43.8128C37.5454 45.1428 40.4334 43.8128 40.3954 41.6089C40.6994 39.5569 38.2294 37.847 36.3295 38.7589ZM49.9712 38.683C47.9952 39.2909 47.2352 42.0649 48.7932 43.5088C50.2752 45.2188 53.4671 44.2688 53.7711 42.0269C54.2651 39.8989 51.9851 37.923 49.9712 38.683ZM133.911 25.0413C133.873 26.0292 133.873 27.0172 133.873 28.0052C135.393 27.9672 136.913 28.1192 138.433 27.9292C139.725 27.6252 139.725 25.5353 138.433 25.1933C136.989 24.8893 135.431 25.1173 133.911 25.0413ZM149.225 28.3092C151.885 28.3092 154.545 28.3092 157.167 28.3092C157.167 26.3712 155.533 24.6233 153.595 24.6993C151.467 24.5473 149.567 26.2572 149.225 28.3092ZM169.63 25.0413C166.628 25.9912 165.982 30.1711 167.692 32.5271C168.908 34.2371 171.454 34.617 173.24 33.5911C176.128 31.9191 176.128 27.0552 173.24 25.3833C172.176 24.7373 170.808 24.6993 169.63 25.0413ZM133.911 30.5891C133.911 31.6911 133.911 32.8311 133.911 33.9331C135.697 33.8571 137.521 34.1231 139.269 33.7811C140.827 33.4391 140.713 30.9311 139.155 30.6651C137.407 30.4751 135.659 30.6271 133.911 30.5891Z" fill="#3E3E3E"/>
<path fill-rule="evenodd" clip-rule="evenodd" d="M30.0216 22.0773C35.4935 22.0393 40.9654 22.1533 46.4752 22.1913C46.4752 23.1793 46.4752 24.2053 46.3612 25.1933C42.4093 25.1173 38.4194 25.1553 34.4675 25.1553C34.8475 27.3972 35.1135 29.7531 36.2155 31.7671C36.7855 32.8691 38.0014 33.4391 39.2174 33.5151C41.6494 33.6671 44.0433 33.5531 46.4752 33.6291C46.5132 34.655 46.5132 35.719 46.5132 36.745C43.9673 36.707 41.4214 36.783 38.8374 36.669C36.4815 36.555 34.0875 35.187 33.1755 32.9071C31.7316 29.4112 30.7816 25.7632 30.0216 22.0773Z" fill="#3E3E3E"/>
</svg>
