<svg width="269" height="42" viewBox="0 0 269 42" fill="none" xmlns="http://www.w3.org/2000/svg">
<path d="M120.206 12.3382L125.816 8.1984H107.035V32.9965H125.816V28.8567H112.401V22.5253H123.864V18.3855H112.401V12.3382H120.206Z" fill="#3E3E3E"/>
<path d="M92.8475 17.8579H86.3433V12.3382H96.75L102.36 8.1984H80.9773V32.9965H92.1564C98.4167 32.9965 102.035 30.1555 102.035 25.204C102.035 20.4554 98.7826 17.8579 92.8475 17.8579ZM91.9532 28.8567H86.3433V21.9977H91.9532C95.3679 21.9977 96.9533 23.1341 96.9533 25.4475C96.9533 27.7609 95.2459 28.8567 91.9532 28.8567Z" fill="#3E3E3E"/>
<path d="M141.019 8.1984H130.816V32.9965H136.182V25.9751H141.06C147.564 25.9751 151.629 22.5659 151.629 17.0868C151.629 11.6076 147.564 8.1984 141.019 8.1984ZM140.897 21.8353H136.141V12.3382H140.897C144.353 12.3382 146.223 14.0428 146.223 17.0868C146.223 20.1307 144.353 21.8353 140.897 21.8353Z" fill="#3E3E3E"/>
<path d="M71.7902 27.6392C70.3674 28.4103 68.782 28.8162 67.1559 28.8162C62.3184 28.8162 58.8224 25.3663 58.8224 20.6178C58.8224 15.8692 62.3184 12.4194 67.1559 12.4194C68.9039 12.3788 70.6113 12.947 72.0341 13.9616L75.8959 11.1206L75.652 10.8771C73.4162 8.88836 70.408 7.87371 66.9933 7.87371C63.294 7.87371 59.92 9.13188 57.4809 11.4047C55.0418 13.7587 53.6597 17.0462 53.741 20.4554C53.7003 23.9052 55.0418 27.2333 57.4809 29.6685C60.0419 32.063 63.4566 33.4024 66.9526 33.3212C70.8145 33.3212 74.1886 31.9819 76.465 29.5467L73.0097 26.9898L71.7902 27.6392Z" fill="#3E3E3E"/>
<path d="M216.143 8.23899V33.0371H221.509V22.8906H232.932V33.0371H238.298V8.23899H232.932V18.4261H221.509V8.23899H216.143ZM206.915 33.0371H212.566L202.077 8.23899H196.63L185.939 33.0371H191.346L193.5 28.045H204.882L206.915 33.0371ZM195.126 23.9052L199.273 13.9616L203.175 23.9052H195.126ZM250.331 23.0123H253.664L261.876 32.9965H268.786L257.81 20.1713L267.404 8.1984H261.266L253.298 18.832H250.331V8.1984H244.965V32.9965H250.331V23.0123ZM168.215 17.8985V12.3788H182.24V8.23899H162.849V33.0371H174.028C180.288 33.0371 183.906 30.1961 183.906 25.2446C183.906 20.496 180.654 17.8985 174.719 17.8985H168.215ZM168.215 22.0383H173.825C177.24 22.0383 178.825 23.1747 178.825 25.4881C178.825 27.8015 177.158 28.9379 173.825 28.9379H168.215V22.0383Z" fill="#3E3E3E"/>
<path d="M36.952 8.03605C37.9276 9.29422 38.7407 10.6742 39.4317 12.1353L20.6508 25.9751L12.7645 21.0236V15.098L20.6102 20.009L36.952 8.03605Z" fill="#3E3E3E"/>
<path d="M4.7562 20.6178C4.7562 20.3337 4.7562 20.0901 4.79685 19.806L0.0406513 19.5625C0.0406513 19.8872 0 20.2525 0 20.5772C0 26.2592 2.31712 31.4137 6.05704 35.1476L9.4311 31.7789C6.54486 28.9379 4.7562 25.0011 4.7562 20.6178Z" fill="#3E3E3E"/>
<path d="M20.6102 4.78916C20.8948 4.78916 21.1387 4.78916 21.4232 4.82975L21.6671 0.0811728C21.3419 0.0811728 20.9761 0.0405867 20.6508 0.0405867C14.9597 0.0405867 9.79696 2.354 6.05704 6.08792L9.4311 9.45657C12.2767 6.57495 16.2605 4.78916 20.6102 4.78916Z" fill="#3E3E3E"/>
<path d="M20.6102 36.4464C20.3256 36.4464 20.0817 36.4464 19.7972 36.4058L19.5533 41.1543C19.8785 41.1543 20.2443 41.1949 20.5695 41.1949C26.2607 41.1949 31.4234 38.8815 35.1634 35.1476L31.7893 31.7789C28.9437 34.7011 25.0005 36.4464 20.6102 36.4464Z" fill="#3E3E3E"/>
<path d="M29.5535 7.54902L33.578 4.58623C30.0413 1.7452 25.529 0 20.6102 0V4.74858C23.9436 4.78916 27.0331 5.80382 29.5535 7.54902Z" fill="#3E3E3E"/>
<path d="M41.261 20.6178C41.261 19.3596 41.1391 18.142 40.9358 16.9244L36.5048 20.2119C36.5048 20.3337 36.5048 20.496 36.5048 20.6178C36.5048 25.2852 34.4723 29.4655 31.2608 32.3471L34.4723 35.8781C38.6187 32.1442 41.261 26.6651 41.261 20.6178Z" fill="#3E3E3E"/>
<path d="M20.6102 36.4464C15.9353 36.4464 11.7482 34.417 8.86198 31.2107L5.32532 34.417C9.10589 38.5974 14.5532 41.1949 20.6102 41.1949V36.4464Z" fill="#3E3E3E"/>
<path d="M10.0002 8.88836L6.78876 5.35737C2.60168 9.13188 0 14.5704 0 20.6178L4.7562 20.6178C4.7562 15.9909 6.78876 11.77 10.0002 8.88836Z" fill="#3E3E3E"/>
</svg>
