<svg width="129" height="21" viewBox="0 0 129 21" fill="none" xmlns="http://www.w3.org/2000/svg">
<path d="M57.6798 6.78736L60.3689 4.83008H51.3662V16.5546H60.3689V14.5973H53.9384V11.6038H59.4335V9.64653H53.9384V6.78736H57.6798Z" fill="#21A038"/>
<path d="M44.5654 9.39707H41.4476V6.78736H46.4361L49.1252 4.83008H38.8754V16.5546H44.2341C47.235 16.5546 48.9693 15.2113 48.9693 12.8703C48.9693 10.6252 47.4104 9.39707 44.5654 9.39707ZM44.1367 14.5973H41.4476V11.3543H44.1367C45.7736 11.3543 46.5335 11.8916 46.5335 12.9854C46.5335 14.0792 45.7151 14.5973 44.1367 14.5973Z" fill="#21A038"/>
<path d="M67.6568 4.83008H62.7657V16.5546H65.3379V13.2349H67.6763C70.7941 13.2349 72.7427 11.623 72.7427 9.03248C72.7427 6.44196 70.7941 4.83008 67.6568 4.83008ZM67.5983 11.2776H65.3184V6.78736H67.5983C69.2547 6.78736 70.1511 7.5933 70.1511 9.03248C70.1511 10.4717 69.2547 11.2776 67.5983 11.2776Z" fill="#21A038"/>
<path d="M34.4715 14.0208C33.7894 14.3854 33.0295 14.5773 32.25 14.5773C29.9311 14.5773 28.2553 12.9463 28.2553 10.7011C28.2553 8.45602 29.9311 6.82495 32.25 6.82495C33.0879 6.80576 33.9063 7.07441 34.5884 7.55414L36.4396 6.2109L36.3227 6.09577C35.2509 5.15551 33.8089 4.67578 32.1721 4.67578C30.3988 4.67578 28.7814 5.27064 27.6122 6.34523C26.4431 7.45819 25.7805 9.0125 25.8195 10.6244C25.8 12.2555 26.4431 13.829 27.6122 14.9803C28.8399 16.1124 30.4767 16.7457 32.1526 16.7073C34.0038 16.7073 35.6211 16.0741 36.7124 14.9227L35.056 13.7138L34.4715 14.0208Z" fill="#21A038"/>
<path d="M103.668 4.84927V16.5738H106.24V11.7765H111.716V16.5738H114.288V4.84927H111.716V9.66572H106.24V4.84927H103.668ZM99.2443 16.5738H101.953L96.9254 4.84927H94.3142L89.1893 16.5738H91.781L92.8137 14.2135H98.2699L99.2443 16.5738ZM93.5932 12.2562L95.5808 7.55492L97.4515 12.2562H93.5932ZM120.056 11.8341H121.654L125.59 16.5546H128.903L123.641 10.4908L128.24 4.83008H125.298L121.478 9.85761H120.056V4.83008H117.484V16.5546H120.056V11.8341ZM80.6932 9.41626V6.80655H87.416V4.84927H78.121V16.5738H83.4798C86.4807 16.5738 88.215 15.2305 88.215 12.8895C88.215 10.6444 86.656 9.41626 83.811 9.41626H80.6932ZM80.6932 14.6165V11.3735H83.3823C85.0192 11.3735 85.7792 11.9108 85.7792 13.0046C85.7792 14.0984 84.9802 14.6357 83.3823 14.6357H80.6932V14.6165Z" fill="#21A038"/>
<path d="M17.7716 4.75195C18.2393 5.34681 18.629 5.99924 18.9603 6.69005L9.95755 13.2335L6.17719 10.8924V8.09085L9.93807 10.4127L17.7716 4.75195Z" fill="#21A038"/>
<path d="M2.33837 10.702C2.33837 10.5677 2.33837 10.4526 2.35786 10.3183L0.0779457 10.2031C0.0779457 10.3566 0.0584593 10.5293 0.0584593 10.6829C0.0584593 13.3693 1.16918 15.8063 2.96193 17.5717L4.57931 15.979C3.19577 14.6358 2.33837 12.7745 2.33837 10.702Z" fill="url(#paint0_linear_2134_12904)"/>
<path d="M9.93807 3.21777C10.0745 3.21777 10.1914 3.21777 10.3278 3.23696L10.4447 0.991845C10.2888 0.991845 10.1134 0.972656 9.95755 0.972656C7.22946 0.972656 4.75468 2.06643 2.96193 3.83182L4.5793 5.42451C5.94335 4.06209 7.85302 3.21777 9.93807 3.21777Z" fill="url(#paint1_linear_2134_12904)"/>
<path d="M9.93807 18.1853C9.80166 18.1853 9.68474 18.1853 9.54834 18.1661L9.43142 20.4112C9.58731 20.4112 9.76269 20.4304 9.91858 20.4304C12.6467 20.4304 15.1214 19.3366 16.9142 17.5712L15.2968 15.9785C13.9328 17.3601 12.0426 18.1853 9.93807 18.1853Z" fill="url(#paint2_linear_2134_12904)"/>
<path d="M14.2251 4.52229L16.1542 3.12149C14.4589 1.77825 12.2959 0.953125 9.93807 0.953125V3.19824C11.536 3.21743 13.0169 3.69716 14.2251 4.52229Z" fill="url(#paint3_linear_2134_12904)"/>
<path d="M19.8372 10.7013C19.8372 10.1064 19.7787 9.53075 19.6813 8.95508L17.5573 10.5094C17.5573 10.567 17.5573 10.6437 17.5573 10.7013C17.5573 12.908 16.5829 14.8845 15.0435 16.2469L16.5829 17.9164C18.5705 16.151 19.8372 13.5604 19.8372 10.7013Z" fill="#21A038"/>
<path d="M9.93807 18.1844C7.69713 18.1844 5.69003 17.2249 4.30649 15.709L2.61118 17.2249C4.42341 19.2014 7.03459 20.4295 9.93807 20.4295V18.1844Z" fill="url(#paint4_linear_2134_12904)"/>
<path d="M4.85211 5.15577L3.31269 3.48633C1.30559 5.27091 0.0584593 7.84224 0.0584593 10.7014H2.33837C2.33837 8.51385 3.31269 6.5182 4.85211 5.15577Z" fill="url(#paint5_linear_2134_12904)"/>
<defs>
<linearGradient id="paint0_linear_2134_12904" x1="266.822" y1="719.746" x2="39.7953" y2="55.4707" gradientUnits="userSpaceOnUse">
<stop offset="0.1444" stop-color="#F2E913"/>
<stop offset="0.3037" stop-color="#E7E518"/>
<stop offset="0.5823" stop-color="#CADB26"/>
<stop offset="0.891" stop-color="#A3CD39"/>
</linearGradient>
<linearGradient id="paint1_linear_2134_12904" x1="67.951" y1="260.859" x2="657.14" y2="33.5806" gradientUnits="userSpaceOnUse">
<stop offset="0.0592" stop-color="#0FA8E0"/>
<stop offset="0.5385" stop-color="#0099F9"/>
<stop offset="0.9234" stop-color="#0291EB"/>
</linearGradient>
<linearGradient id="paint2_linear_2134_12904" x1="-3.95574" y1="269.65" x2="699.796" y2="108.646" gradientUnits="userSpaceOnUse">
<stop offset="0.1226" stop-color="#A3CD39"/>
<stop offset="0.2846" stop-color="#86C339"/>
<stop offset="0.8693" stop-color="#21A038"/>
</linearGradient>
<linearGradient id="paint3_linear_2134_12904" x1="-36.9053" y1="144.6" x2="547.727" y2="327.194" gradientUnits="userSpaceOnUse">
<stop offset="0.0566" stop-color="#0291EB"/>
<stop offset="0.79" stop-color="#0C8ACB"/>
</linearGradient>
<linearGradient id="paint4_linear_2134_12904" x1="60.5813" y1="203.769" x2="687.742" y2="440.966" gradientUnits="userSpaceOnUse">
<stop offset="0.1324" stop-color="#F2E913"/>
<stop offset="0.2977" stop-color="#EBE716"/>
<stop offset="0.5306" stop-color="#D9E01F"/>
<stop offset="0.8023" stop-color="#BBD62D"/>
<stop offset="0.9829" stop-color="#A3CD39"/>
</linearGradient>
<linearGradient id="paint5_linear_2134_12904" x1="173.538" y1="752.112" x2="419.182" y2="105.278" gradientUnits="userSpaceOnUse">
<stop offset="0.0698" stop-color="#A3CD39"/>
<stop offset="0.2599" stop-color="#81C55F"/>
<stop offset="0.9216" stop-color="#0FA8E0"/>
</linearGradient>
</defs>
</svg>
