<svg aria-hidden="true" style="width: 0px; height: 0px; overflow: hidden; position: absolute;" xmlns="http://www.w3.org/2000/svg">
    <symbol id="search_icon" viewBox="0 0 17 17">
      <path d="M12.0753 10.6291C13.0436 9.30782 13.4773 7.66962 13.2896 6.04228C13.1019 4.41494 12.3067 2.91847 11.0631 1.85226C9.81941 0.786056 8.21904 0.228738 6.58213 0.291811C4.94522 0.354885 3.39248 1.0337 2.23456 2.19244C1.07665 3.35119 0.398946 4.90441 0.337044 6.54137C0.275142 8.17833 0.833605 9.77829 1.9007 11.0212C2.9678 12.2641 4.46484 13.0582 6.09231 13.2447C7.71979 13.4312 9.35768 12.9964 10.6783 12.0271H10.6773C10.7073 12.0671 10.7393 12.1051 10.7753 12.1421L14.6253 15.9921C14.8128 16.1798 15.0672 16.2852 15.3324 16.2853C15.5977 16.2854 15.8522 16.1801 16.0398 15.9926C16.2274 15.8051 16.3329 15.5508 16.333 15.2855C16.3331 15.0202 16.2278 14.7658 16.0403 14.5781L12.1903 10.7281C12.1545 10.6919 12.1161 10.6585 12.0753 10.6281V10.6291ZM12.3333 6.78513C12.3333 7.50741 12.191 8.2226 11.9146 8.88989C11.6382 9.55718 11.2331 10.1635 10.7224 10.6742C10.2117 11.1849 9.60534 11.5901 8.93805 11.8665C8.27076 12.1429 7.55557 12.2851 6.8333 12.2851C6.11102 12.2851 5.39583 12.1429 4.72854 11.8665C4.06125 11.5901 3.45493 11.1849 2.94421 10.6742C2.43349 10.1635 2.02836 9.55718 1.75196 8.88989C1.47556 8.2226 1.3333 7.50741 1.3333 6.78513C1.3333 5.32644 1.91276 3.9275 2.94421 2.89605C3.97566 1.8646 5.3746 1.28513 6.8333 1.28513C8.29199 1.28513 9.69093 1.8646 10.7224 2.89605C11.7538 3.9275 12.3333 5.32644 12.3333 6.78513Z"/>
    </symbol>
    <symbol id="phone_icon" viewBox="0 0 17 17">
      <path fill-rule="evenodd" clip-rule="evenodd" d="M2.05149 0.795327C2.22646 0.620615 2.43657 0.485085 2.66788 0.397717C2.8992 0.310348 3.14644 0.273137 3.39323 0.288549C3.64001 0.303962 3.8807 0.371645 4.09935 0.487115C4.318 0.602584 4.50961 0.763203 4.66149 0.958327L6.45649 3.26433C6.78549 3.68733 6.90149 4.23833 6.77149 4.75833L6.22449 6.94833C6.19621 7.06176 6.19773 7.18057 6.22892 7.29324C6.26011 7.4059 6.3199 7.50859 6.40249 7.59133L8.85949 10.0483C8.94232 10.1311 9.04518 10.191 9.15804 10.2222C9.2709 10.2534 9.38991 10.2548 9.50349 10.2263L11.6925 9.67933C11.9491 9.61517 12.2169 9.61018 12.4758 9.66475C12.7346 9.71932 12.9776 9.83202 13.1865 9.99433L15.4925 11.7883C16.3215 12.4333 16.3975 13.6583 15.6555 14.3993L14.6215 15.4333C13.8815 16.1733 12.7755 16.4983 11.7445 16.1353C9.10567 15.2069 6.70976 13.6962 4.73449 11.7153C2.75378 9.74034 1.24309 7.34479 0.314487 4.70633C-0.0475134 3.67633 0.277487 2.56933 1.01749 1.82933L2.05149 0.795327Z" fill="#3AAA35"/>
    </symbol>
    <symbol id="burger_icon" viewBox="0 0 30 31">
      <path fill-rule="evenodd" clip-rule="evenodd" d="M30 23C30 22.6685 29.8683 22.3505 29.6339 22.1161C29.3995 21.8817 29.0815 21.75 28.75 21.75H1.25C0.91848 21.75 0.600538 21.8817 0.366117 22.1161C0.131697 22.3505 0 22.6685 0 23C0 23.3315 0.131697 23.6495 0.366117 23.8839C0.600538 24.1183 0.91848 24.25 1.25 24.25H28.75C29.0815 24.25 29.3995 24.1183 29.6339 23.8839C29.8683 23.6495 30 23.3315 30 23ZM30 15.5C30 15.1685 29.8683 14.8505 29.6339 14.6161C29.3995 14.3817 29.0815 14.25 28.75 14.25H1.25C0.91848 14.25 0.600536 14.3817 0.366116 14.6161C0.131695 14.8505 0 15.1685 0 15.5C0 15.8315 0.131695 16.1495 0.366116 16.3839C0.600536 16.6183 0.91848 16.75 1.25 16.75H28.75C29.0815 16.75 29.3995 16.6183 29.6339 16.3839C29.8683 16.1495 30 15.8315 30 15.5ZM30 8C30 7.66848 29.8683 7.35054 29.6339 7.11612C29.3995 6.8817 29.0815 6.75 28.75 6.75H1.25C0.91848 6.75 0.600536 6.8817 0.366116 7.11612C0.131695 7.35054 0 7.66848 0 8C0 8.33152 0.131695 8.64946 0.366116 8.88388C0.600536 9.1183 0.91848 9.25 1.25 9.25H28.75C29.0815 9.25 29.3995 9.1183 29.6339 8.88388C29.8683 8.64946 30 8.33152 30 8Z"/>
    </symbol>
    <symbol id="close_icon" viewBox="0 0 16 16">
      <path d="M0.7,1.5C0.6,1.5,0.5,1.4,0.5,1.3c0-0.1,0-0.2,0-0.2c0-0.1,0-0.2,0-0.2c0-0.1,0.1-0.1,0.1-0.2c0.1-0.1,0.1-0.1,0.2-0.1c0.1,0,0.2,0,0.2,0c0.1,0,0.2,0,0.2,0c0.1,0,0.1,0.1,0.2,0.1L8,7.1l6.5-6.5c0.1-0.1,0.1-0.1,0.2-0.1c0.1,0,0.2,0,0.2,0c0.1,0,0.2,0,0.2,0c0.1,0,0.1,0.1,0.2,0.1c0.1,0.1,0.1,0.1,0.1,0.2c0,0.1,0,0.2,0,0.2c0,0.1,0,0.2,0,0.2c0,0.1-0.1,0.1-0.1,0.2L8.9,8l6.5,6.5c0.1,0.1,0.1,0.1,0.1,0.2c0,0.1,0,0.2,0,0.2c0,0.1,0,0.2,0,0.2c0,0.1-0.1,0.1-0.1,0.2c-0.1,0.1-0.1,0.1-0.2,0.1c-0.1,0-0.2,0-0.2,0c-0.1,0-0.2,0-0.2,0c-0.1,0-0.1-0.1-0.2-0.1L8,8.9l-6.5,6.5c-0.1,0.1-0.1,0.1-0.2,0.1c-0.1,0-0.2,0-0.2,0c-0.1,0-0.2,0-0.2,0c-0.1,0-0.1-0.1-0.2-0.1c-0.1-0.1-0.1-0.1-0.1-0.2c0-0.1,0-0.2,0-0.2c0-0.1,0-0.2,0-0.2c0-0.1,0.1-0.1,0.1-0.2L7.1,8L0.7,1.5z"/>
      <path d="M14.9,16c-0.1,0-0.3,0-0.4-0.1c-0.1-0.1-0.3-0.1-0.4-0.2L8,9.6l-6.1,6.1c-0.1,0.1-0.2,0.2-0.4,0.2c-0.3,0.1-0.6,0.1-0.8,0c-0.1-0.1-0.3-0.1-0.4-0.2c-0.1-0.1-0.2-0.2-0.2-0.4C0,15.2,0,15,0,14.9c0-0.1,0-0.3,0.1-0.4c0.1-0.1,0.1-0.3,0.2-0.4L6.4,8L0.3,1.9C0.2,1.8,0.1,1.7,0.1,1.5C0,1.4,0,1.2,0,1.1s0-0.3,0.1-0.4c0.1-0.1,0.1-0.3,0.2-0.4s0.2-0.2,0.4-0.2C0.9,0,1.3,0,1.5,0.1c0.1,0.1,0.3,0.1,0.4,0.2L8,6.4l6.1-6.1c0.1-0.1,0.2-0.2,0.4-0.2c0.3-0.1,0.6-0.1,0.8,0c0.1,0.1,0.3,0.1,0.4,0.2c0.1,0.1,0.2,0.2,0.2,0.4C16,0.8,16,1,16,1.1s0,0.3-0.1,0.4s-0.1,0.3-0.2,0.4L9.6,8l6.1,6.1c0.1,0.1,0.2,0.2,0.2,0.4c0.1,0.1,0.1,0.3,0.1,0.4c0,0.1,0,0.3-0.1,0.4c-0.1,0.1-0.1,0.3-0.2,0.4c-0.1,0.1-0.2,0.2-0.4,0.2C15.2,16,15,16,14.9,16z M8,8.2l6.9,6.8l0.4,0.3L15,15l0-0.1l0.3-0.4L15,14.8L8.2,8l6.8-6.9l0.3-0.4L15,1l-0.1,0l-0.4-0.3L14.8,1L8,7.8L1.1,0.9L1,1l0,0.1l0,0.1L7.8,8l-6.8,6.9l-0.3,0.4L1,15l0.1,0l0.4,0.3L1.2,15L8,8.2z"/>
    </symbol>
    <symbol id="chevron_down" viewBox="0 0 16 17">
      <path fill-rule="evenodd" clip-rule="evenodd" d="M1.64601 5.21574C1.69245 5.16918 1.74763 5.13223 1.80838 5.10703C1.86912 5.08182 1.93424 5.06885 2.00001 5.06885C2.06578 5.06885 2.1309 5.08182 2.19164 5.10703C2.25239 5.13223 2.30756 5.16918 2.35401 5.21574L8.00001 10.8627L13.646 5.21574C13.6925 5.16925 13.7477 5.13238 13.8084 5.10722C13.8692 5.08206 13.9343 5.06911 14 5.06911C14.0658 5.06911 14.1309 5.08206 14.1916 5.10722C14.2523 5.13238 14.3075 5.16925 14.354 5.21574C14.4005 5.26223 14.4374 5.31742 14.4625 5.37816C14.4877 5.4389 14.5006 5.504 14.5006 5.56974C14.5006 5.63549 14.4877 5.70059 14.4625 5.76132C14.4374 5.82206 14.4005 5.87725 14.354 5.92374L8.35401 11.9237C8.30756 11.9703 8.25239 12.0072 8.19164 12.0325C8.1309 12.0577 8.06578 12.0706 8.00001 12.0706C7.93424 12.0706 7.86912 12.0577 7.80837 12.0325C7.74763 12.0072 7.69245 11.9703 7.64601 11.9237L1.64601 5.92374C1.59945 5.8773 1.5625 5.82212 1.5373 5.76137C1.51209 5.70063 1.49911 5.63551 1.49911 5.56974C1.49911 5.50397 1.51209 5.43885 1.5373 5.37811C1.5625 5.31736 1.59945 5.26219 1.64601 5.21574Z"/>
    </symbol>
    <symbol id="email_icon" viewBox="0 0 16 17">
      <path fill-rule="evenodd" clip-rule="evenodd" d="M0.050061 3.72297C0.150879 3.28121 0.398716 2.88678 0.752983 2.60428C1.10725 2.32177 1.54695 2.16794 2.00006 2.16797H14.0001C14.4532 2.16794 14.8929 2.32177 15.2471 2.60428C15.6014 2.88678 15.8492 3.28121 15.9501 3.72297L8.00006 8.58197L0.050061 3.72297ZM6.10352e-05 4.86497V11.969L5.80306 8.41097L6.10352e-05 4.86497ZM6.76106 8.99797L0.191061 13.025C0.353388 13.3673 0.609588 13.6564 0.929843 13.8587C1.2501 14.0611 1.62124 14.1683 2.00006 14.168H14.0001C14.3788 14.1681 14.7498 14.0606 15.0699 13.8581C15.39 13.6555 15.646 13.3663 15.8081 13.024L9.23806 8.99697L8.00006 9.75397L6.76106 8.99697V8.99797ZM10.1971 8.41197L16.0001 11.969V4.86497L10.1971 8.41097V8.41197Z"/>
    </symbol>
    <symbol id="pin_icon" viewBox="0 0 16 17">
      <path fill-rule="evenodd" clip-rule="evenodd" d="M6.00006 16.168C6.00006 16.168 12.0001 10.482 12.0001 6.16797C12.0001 4.57667 11.3679 3.05055 10.2427 1.92533C9.11748 0.80011 7.59136 0.167969 6.00006 0.167969C4.40876 0.167969 2.88264 0.80011 1.75742 1.92533C0.632202 3.05055 6.10589e-05 4.57667 6.10352e-05 6.16797C6.10352e-05 10.482 6.00006 16.168 6.00006 16.168ZM6.00006 9.16797C6.79571 9.16797 7.55877 8.8519 8.12138 8.28929C8.68399 7.72668 9.00006 6.96362 9.00006 6.16797C9.00006 5.37232 8.68399 4.60926 8.12138 4.04665C7.55877 3.48404 6.79571 3.16797 6.00006 3.16797C5.20441 3.16797 4.44135 3.48404 3.87874 4.04665C3.31613 4.60926 3.00006 5.37232 3.00006 6.16797C3.00006 6.96362 3.31613 7.72668 3.87874 8.28929C4.44135 8.8519 5.20441 9.16797 6.00006 9.16797Z"/>
    </symbol>
    <symbol id="chevron_up" viewBox="0 0 16 17">
      <path fill-rule="evenodd" clip-rule="evenodd" d="M14.354 11.5221C14.3075 11.5686 14.2524 11.6056 14.1916 11.6308C14.1309 11.656 14.0658 11.6689 14 11.6689C13.9342 11.6689 13.8691 11.656 13.8084 11.6308C13.7476 11.6056 13.6924 11.5686 13.646 11.5221L7.99999 5.87505L2.35399 11.5221C2.3075 11.5685 2.25232 11.6054 2.19158 11.6306C2.13084 11.6557 2.06574 11.6687 1.99999 11.6687C1.93425 11.6687 1.86915 11.6557 1.80841 11.6306C1.74767 11.6054 1.69248 11.5685 1.64599 11.5221C1.5995 11.4756 1.56263 11.4204 1.53747 11.3596C1.51231 11.2989 1.49936 11.2338 1.49936 11.1681C1.49936 11.1023 1.51231 11.0372 1.53747 10.9765C1.56263 10.9157 1.5995 10.8605 1.64599 10.8141L7.64599 4.81405C7.69244 4.76749 7.74761 4.73055 7.80836 4.70534C7.8691 4.68013 7.93422 4.66716 7.99999 4.66716C8.06576 4.66716 8.13088 4.68013 8.19162 4.70534C8.25237 4.73055 8.30755 4.76749 8.35399 4.81405L14.354 10.8141C14.4006 10.8605 14.4375 10.9157 14.4627 10.9764C14.4879 11.0372 14.5009 11.1023 14.5009 11.1681C14.5009 11.2338 14.4879 11.2989 14.4627 11.3597C14.4375 11.4204 14.4006 11.4756 14.354 11.5221Z"/>
    </symbol>
</svg>
